<svg id="_x33_0" enable-background="new 0 0 64 64" height="512" viewBox="0 0 64 64" width="512" xmlns="http://www.w3.org/2000/svg"><g><g><g><path d="m40 43v3h-2-6c2.21 0 4-1.79 4-4s-1.79-4-4-4h8z" fill="#cf9e76"/></g><g><path d="m24 38h8c-2.21 0-4 1.79-4 4s1.79 4 4 4h-6-2v-3z" fill="#cf9e76"/></g><g><path d="m20.16 50h-4.16-4v-1.75c0-2.43.82-4.69 2.24-6.5 1.41-1.81 3.41-3.16 5.76-3.75v9c0 .26.1.49.26.67.18.2.45.33.74.33l-.41.82c-.19.38-.33.77-.43 1.18z" fill="#cf9e76"/></g><g><path d="m27.2 56 4.8 6h-12v-10.69c0 1.1.33 2.18.94 3.09l1.06 1.6 1.06-1.6c.49-.73.8-1.58.9-2.45z" fill="#cf9e76"/></g><g><path d="m44 51.31v10.69h-12l4.8-6 3.24-4.05c.1.87.41 1.72.9 2.45l1.06 1.6 1.06-1.6c.61-.91.94-1.99.94-3.09z" fill="#cf9e76"/></g><g><path d="m43.74 47.67c.16-.18.26-.41.26-.67v-9c4.7 1.18 8 5.4 8 10.25v1.75h-4-4.16c-.1-.41-.24-.8-.43-1.18l-.41-.82c.29 0 .56-.13.74-.33z" fill="#cf9e76"/></g><g><path d="m38 46-2.4 4h-7.2l-2.4-4h6z" fill="#ff826e"/></g><g><path d="m40 47c0 .55.45 1 1 1l-.41.82c-.39.78-.59 1.63-.59 2.49 0 .21.01.43.04.64l-3.24 4.05h-4.8l3.6-6 2.4-4h2z" fill="#fc6e51"/></g><g><path d="m36.8 56-4.8 6-4.8-6h4.8z" fill="#fc6e51"/></g><g><path d="m26 46 2.4 4 3.6 6h-4.8l-3.24-4.05c.03-.21.04-.43.04-.64 0-.86-.2-1.71-.59-2.49l-.41-.82c.55 0 1-.45 1-1v-1z" fill="#fc6e51"/></g><g><path d="m35.6 50-3.6 6-3.6-6z" fill="#ff826e"/></g><g><path d="m20 38v9c0 .26.1.49.26.67.18.2.45.33.74.33h2c.55 0 1-.45 1-1v-1-3-5z" fill="#656d78"/></g><g><path d="m23.41 48.82c.39.78.59 1.63.59 2.49 0 .21-.01.43-.04.64-.1.87-.41 1.72-.9 2.45l-1.06 1.6-1.06-1.6c-.61-.91-.94-1.99-.94-3.09 0-.44.05-.88.16-1.31.1-.41.24-.8.43-1.18l.41-.82h2z" fill="#656d78"/></g><g><path d="m43.41 48.82c.19.38.33.77.43 1.18.11.43.16.87.16 1.31 0 1.1-.33 2.18-.94 3.09l-1.06 1.6-1.06-1.6c-.49-.73-.8-1.58-.9-2.45-.03-.21-.04-.43-.04-.64 0-.86.2-1.71.59-2.49l.41-.82h2z" fill="#656d78"/></g><g><path d="m40 38v5 3 1c0 .55.45 1 1 1h2c.29 0 .56-.13.74-.33.16-.18.26-.41.26-.67v-9z" fill="#656d78"/></g><g><path d="m21.6 12c-.68 1.18-1.17 2.49-1.41 3.89h-.01c-.46.07-.93.11-1.4.11-.91 0-1.81-.14-2.68-.4l-2.41-1.14-3.69-2.46 3.69-2.46c1.16-.76 2.46-1.26 3.82-1.45.42-.06.84-.09 1.27-.09 1.72 0 3.41.49 4.86 1.39-.05.04-.09.08-.13.12-.74.74-1.38 1.58-1.91 2.49z" fill="#b4dd7f"/></g><g><path d="m23.65 9.38c-.01 0-.01.01-.01.01-1.45-.9-3.14-1.39-4.86-1.39-.43 0-.85.03-1.27.09-.65-1-1.17-2.08-1.56-3.23l-.95-2.86h3.51c3.55 0 6.71 2.07 8.18 5.23-1.13.56-2.15 1.28-3.04 2.15z" fill="#b4dd7f"/></g><g><path d="m18.78 16c.47 0 .94-.04 1.4-.11h.01c-.13.69-.19 1.39-.19 2.11v1c-1.28 1.28-3.02 2-4.83 2h-2.17l.36-1.44c.4-1.61 1.38-3.02 2.74-3.96.87.26 1.77.4 2.68.4z" fill="#b4dd7f"/></g><g><path d="m44 18v20h-4c-1.91-1.28-3.21-3.29-3.59-5.56l-.27-1.59c2.31-1.4 3.86-3.95 3.86-6.85v-4.23c0-1.72-.89-3.33-2.35-4.24l-1.96-1.22-3.69-2.31v-6c6.63 0 12 5.37 12 12z" fill="#656d78"/></g><g><path d="m26.69 7.23c1.6-.79 3.4-1.23 5.31-1.23v6l-3.69 2.31-1.96 1.22c-1.46.91-2.35 2.52-2.35 4.24v4.23c0 2.9 1.55 5.45 3.86 6.85l-.27 1.59c-.19 1.14-.61 2.2-1.22 3.15s-1.41 1.77-2.37 2.41h-4v-19-1c0-.72.06-1.42.19-2.11.24-1.4.73-2.71 1.41-3.89.53-.91 1.17-1.75 1.91-2.49.04-.04.08-.08.13-.12 0 0 0-.01.01-.01.89-.87 1.91-1.59 3.04-2.15z" fill="#656d78"/></g><g><path d="m32 12 3.69 2.31-.28.28c-.9.9-2.13 1.41-3.41 1.41s-2.51-.51-3.41-1.41l-.28-.28z" fill="#ff826e"/></g><g><path d="m16 50h4.16c-.11.43-.16.87-.16 1.31v10.69h-8v-12z" fill="#f0d0b4"/></g><g><path d="m48 50h4v12h-8v-10.69c0-.44-.05-.88-.16-1.31z" fill="#f0d0b4"/></g><g><path d="m40 38h-8-8c.96-.64 1.76-1.46 2.37-2.41s1.03-2.01 1.22-3.15l.27-1.59c1.21.73 2.62 1.15 4.14 1.15s2.93-.42 4.14-1.15l.27 1.59c.38 2.27 1.68 4.28 3.59 5.56z" fill="#f0d0b4"/></g><g><path d="m40 24c0 2.9-1.55 5.45-3.86 6.85-1.21.73-2.62 1.15-4.14 1.15s-2.93-.42-4.14-1.15c-2.31-1.4-3.86-3.95-3.86-6.85v-4.23c0-1.72.89-3.33 2.35-4.24l1.96-1.22.28.28c.9.9 2.13 1.41 3.41 1.41s2.51-.51 3.41-1.41l.28-.28 1.96 1.22c1.46.91 2.35 2.52 2.35 4.24z" fill="#f0d0b4"/></g><g><circle cx="32" cy="42" fill="#fcd770" r="4"/></g></g><g><path d="m34 25.764c-.381.762-1.147 1.236-2 1.236s-1.619-.474-2-1.236l-.105-.211-1.789.895.105.21c.722 1.445 2.174 2.342 3.789 2.342s3.067-.897 3.789-2.342l.105-.211-1.789-.895z"/><circle cx="28" cy="20" r="1"/><circle cx="36" cy="20" r="1"/><circle cx="32" cy="42" r="1"/><path d="m31 19h2v4h-2z"/><path d="m45 37.254v-19.254c0-7.168-5.832-13-13-13-1.725 0-3.37.345-4.878.958-1.778-3.033-5.048-4.958-8.609-4.958h-4.9l1.395 4.181c.258.775.586 1.524.966 2.246-1.001.28-1.964.699-2.84 1.283l-4.937 3.29 4.936 3.29c.354.236.727.436 1.103.624-.883.957-1.525 2.122-1.846 3.405l-.67 2.681h3.452c1.364 0 2.672-.352 3.828-1.003v16.257c-4.746 1.534-8 5.943-8 10.992v14.754h42v-14.754c0-5.049-3.254-9.459-8-10.992zm6 10.992v.754h-6.426c-.068-.18-.144-.357-.227-.531.398-.366.653-.886.653-1.469v-7.62c3.587 1.437 6 4.913 6 8.866zm-20-41.195v4.395l-5.181 3.237c-1.765 1.104-2.819 3.005-2.819 5.088v4.229c0 3.011 1.491 5.674 3.768 7.309l-.162.97c-.316 1.898-1.386 3.601-2.942 4.725l-2.664-.003v-19.001c0-5.728 4.402-10.442 10-10.949zm8 15.949h-4v2h3.92c-.488 3.387-3.401 6-6.92 6s-6.432-2.613-6.92-6h3.92v-2h-4v-3.229c0-1.388.703-2.656 1.88-3.392l1.301-.813c1.053.913 2.421 1.434 3.819 1.434s2.766-.521 3.819-1.434l1.301.813c1.177.735 1.88 2.003 1.88 3.392zm-3.579 9.607c.272 1.636.989 3.155 2.032 4.414l-5.305-.006c-.051-.002-.097-.015-.148-.015-.049 0-.095.013-.144.015l-5.298-.007c1.037-1.256 1.75-2.771 2.021-4.4l.045-.271c1.044.424 2.182.663 3.376.663s2.332-.239 3.376-.663zm6.498 6.393-.919 1.149v-1.149zm-2.919 12.314c0 .103.018.204.023.307l-2.704 3.379h-2.553l4.8-8h.434c0 .583.255 1.103.654 1.469-.425.884-.654 1.865-.654 2.845zm-10.974-12.314c-.635.838-1.026 1.87-1.026 3s.391 2.162 1.026 3h-3.026v-6zm6.974 3c0 1.654-1.346 3-3 3s-3-1.346-3-3 1.346-3 3-3 3 1.346 3 3zm.034 7h-6.068l-1.2-2h4.234 4.234zm-1.2 2-1.834 3.056-1.834-3.056zm-10.834-10.851-.919-1.149h.919zm-.281 2.851-1.719 2.149v-4.298zm.281 2.851v1.149h-.919zm1.346 2.618c.399-.366.654-.886.654-1.469h.434l4.8 8h-2.553l-2.703-3.379c.004-.102.022-.203.022-.307 0-.98-.229-1.961-.654-2.845zm10.373 8.531-2.719 3.399-2.719-3.399zm6.562-14 1.719-2.149v4.298zm-.281 4v-1.149l.919 1.149zm-2-2h-3.026c.635-.838 1.026-1.87 1.026-3s-.391-2.162-1.026-3h3.026zm-7-30c-.706 0-1.395-.211-1.993-.575l1.993-1.246 1.993 1.246c-.598.364-1.287.575-1.993.575zm-10.518 34.271.136-.271h.764l.136.271c.315.631.482 1.338.482 2.043 0 .904-.266 1.781-.767 2.533l-.233.351-.233-.35c-.501-.753-.767-1.629-.767-2.534 0-.705.167-1.412.482-2.043zm-.482 7.032 1 1.5 1.897-2.845c.187-.28.348-.572.488-.873l5.534 6.915h-8.919zm18.614-2.219c.14.301.302.594.488.873l1.898 2.845 1-1.5v4.698h-8.919zm2.619-.236-.233.35-.233-.35c-.501-.753-.767-1.629-.767-2.534 0-.706.167-1.412.482-2.043l.136-.271h.764l.136.271c.315.631.482 1.338.482 2.043 0 .905-.266 1.781-.767 2.534zm.767-35.848v19.028l-2.637-.003c-1.57-1.124-2.651-2.836-2.969-4.746l-.162-.97c2.277-1.635 3.768-4.298 3.768-7.309v-4.229c0-2.083-1.054-3.984-2.819-5.088l-5.181-3.237v-4.395c5.598.507 10 5.221 10 10.949zm-26.097-13.452-.515-1.548h2.125c2.807 0 5.39 1.492 6.827 3.856-.551.331-1.083.69-1.578 1.096l-2.993-3.592-1.537 1.28 1.298 1.558c-.808-.136-1.626-.176-2.443-.121-.478-.803-.888-1.643-1.184-2.529zm-5.1 7.452 2.439-1.626c2.283-1.522 5.279-1.758 7.781-.695-.349.418-.665.861-.961 1.321h-5.062v2h4.003c-.265.633-.47 1.295-.633 1.974-1.811.129-3.617-.341-5.128-1.348zm3.369 8h-.892l.049-.196c.312-1.243 1.036-2.327 2.029-3.121.789.193 1.596.317 2.421.317.09 0 .181-.008.272-.01-.026.334-.051.669-.051 1.01v.559c-1.062.928-2.404 1.441-3.828 1.441zm3.828 19.38v7.62c0 .583.255 1.103.654 1.469-.083.174-.16.35-.227.531h-6.427v-.754c0-3.953 2.413-7.429 6-8.866zm-6 11.62h2v4h2v-4h2.018c-.005.105-.018.209-.018.314v9.686h-6zm32 10v-9.686c0-.105-.013-.21-.018-.314h2.018v4h2v-4h2v10z"/></g></g></svg>