<svg id="flat" height="512" viewBox="0 0 128 128" width="512" xmlns="http://www.w3.org/2000/svg"><rect fill="#84879c" height="96.875" rx="1.773" width="33.884" y="16.615"/><path d="m33.885 18.39v93.331a1.767 1.767 0 0 1 -1.768 1.769h-10.017a1.77 1.77 0 0 0 1.779-1.769v-93.331a1.779 1.779 0 0 0 -1.779-1.779h10.02a1.776 1.776 0 0 1 1.765 1.779z" fill="#707583"/><circle cx="16.942" cy="33.458" fill="#c1cdd3" r="8.303" transform="matrix(.099 -.995 .995 .099 -18.023 47.021)"/><path d="m19.516 41.354a8.409 8.409 0 0 1 -2.57.405 8.3 8.3 0 0 1 0-16.6 8.409 8.409 0 0 1 2.57.405 8.311 8.311 0 0 0 0 15.795z" fill="#d9e2e9"/><path d="m16.942 42.8a9.344 9.344 0 1 1 9.343-9.344 9.354 9.354 0 0 1 -9.343 9.344zm0-16.606a7.263 7.263 0 1 0 7.263 7.262 7.271 7.271 0 0 0 -7.263-7.256z" fill="#2f3a5a"/><path d="m6.932 49.868h20.02v55.539h-20.02z" fill="#f0f5f9"/><g fill="#c8cbd2"><path d="m22.37 58.3h-10.855a1.041 1.041 0 1 1 0-2.081h10.855a1.041 1.041 0 0 1 0 2.081z"/><path d="m22.37 66.449h-10.855a1.041 1.041 0 1 1 0-2.081h10.855a1.041 1.041 0 0 1 0 2.081z"/><path d="m22.37 74.6h-10.855a1.041 1.041 0 1 1 0-2.081h10.855a1.041 1.041 0 0 1 0 2.081z"/><path d="m22.37 82.754h-10.855a1.041 1.041 0 1 1 0-2.081h10.855a1.041 1.041 0 0 1 0 2.081z"/><path d="m22.37 90.906h-10.855a1.041 1.041 0 1 1 0-2.081h10.855a1.041 1.041 0 0 1 0 2.081z"/><path d="m22.37 99.059h-10.855a1.041 1.041 0 1 1 0-2.081h10.855a1.041 1.041 0 0 1 0 2.081z"/></g><rect fill="#6bb3d9" height="96.875" rx="1.773" width="33.884" x="38.284" y="16.615"/><path d="m72.17 18.39v93.331a1.768 1.768 0 0 1 -1.77 1.769h-10.019a1.769 1.769 0 0 0 1.779-1.769v-93.331a1.778 1.778 0 0 0 -1.779-1.779h10.019a1.777 1.777 0 0 1 1.77 1.779z" fill="#4fa4d1"/><circle cx="55.227" cy="33.458" fill="#c1cdd3" r="8.303" transform="matrix(.099 -.995 .995 .099 16.489 85.119)"/><path d="m57.8 41.354a8.414 8.414 0 0 1 -2.57.405 8.3 8.3 0 1 1 0-16.6 8.414 8.414 0 0 1 2.57.405 8.311 8.311 0 0 0 0 15.795z" fill="#d9e2e9"/><path d="m55.227 42.8a9.344 9.344 0 1 1 9.343-9.344 9.355 9.355 0 0 1 -9.343 9.344zm0-16.606a7.263 7.263 0 1 0 7.262 7.262 7.271 7.271 0 0 0 -7.262-7.256z" fill="#2f3a5a"/><path d="m45.217 49.868h20.02v55.539h-20.02z" fill="#f0f5f9"/><path d="m60.654 58.3h-10.854a1.041 1.041 0 0 1 0-2.081h10.854a1.041 1.041 0 1 1 0 2.081z" fill="#c8cbd2"/><path d="m60.654 66.449h-10.854a1.041 1.041 0 0 1 0-2.081h10.854a1.041 1.041 0 1 1 0 2.081z" fill="#c8cbd2"/><path d="m60.654 74.6h-10.854a1.041 1.041 0 0 1 0-2.081h10.854a1.041 1.041 0 1 1 0 2.081z" fill="#c8cbd2"/><path d="m60.654 82.754h-10.854a1.041 1.041 0 0 1 0-2.081h10.854a1.041 1.041 0 1 1 0 2.081z" fill="#c8cbd2"/><path d="m60.654 90.906h-10.854a1.041 1.041 0 0 1 0-2.081h10.854a1.041 1.041 0 1 1 0 2.081z" fill="#c8cbd2"/><path d="m60.654 99.059h-10.854a1.041 1.041 0 0 1 0-2.081h10.854a1.041 1.041 0 1 1 0 2.081z" fill="#c8cbd2"/><rect fill="#ffc943" height="96.875" rx="1.773" transform="matrix(.969 -.245 .245 .969 -12.635 26.485)" width="33.884" x="83.137" y="15.565"/><path d="m105.068 14.611 22.877 90.482a1.767 1.767 0 0 1 -1.281 2.149l-9.714 2.458a1.769 1.769 0 0 0 1.291-2.151l-22.877-90.485a1.779 1.779 0 0 0 -2.164-1.289l9.714-2.456a1.778 1.778 0 0 1 2.154 1.292z" fill="#f7b521"/><circle cx="92.335" cy="33.372" fill="#c1cdd3" r="8.303" transform="matrix(.989 -.148 .148 .989 -3.93 14.072)"/><path d="m96.766 40.4a8.436 8.436 0 0 1 -2.392 1.023 8.3 8.3 0 0 1 -4.074-16.103 8.4 8.4 0 0 1 2.591-.237 8.311 8.311 0 0 0 3.875 15.317z" fill="#d9e2e9"/><path d="m92.319 42.72a9.358 9.358 0 1 1 2.306-.289 9.413 9.413 0 0 1 -2.306.289zm.028-16.613a7.314 7.314 0 0 0 -1.792.224 7.226 7.226 0 1 0 1.792-.224z" fill="#2f3a5a"/><path d="m93.155 48.434h20.02v55.539h-20.02z" fill="#f0f5f9" transform="matrix(.969 -.245 .245 .969 -15.532 27.613)"/><path d="m92.906 58.815a1.04 1.04 0 0 1 -.254-2.049l10.524-2.661a1.041 1.041 0 0 1 .51 2.018l-10.524 2.661a1.079 1.079 0 0 1 -.256.031z" fill="#c8cbd2"/><path d="m94.905 66.718a1.04 1.04 0 0 1 -.255-2.049l10.524-2.66a1.041 1.041 0 0 1 .51 2.018l-10.524 2.66a1.065 1.065 0 0 1 -.255.031z" fill="#c8cbd2"/><path d="m96.9 74.623a1.041 1.041 0 0 1 -.254-2.05l10.524-2.661a1.041 1.041 0 0 1 .51 2.018l-10.522 2.661a1.069 1.069 0 0 1 -.258.032z" fill="#c8cbd2"/><path d="m98.9 82.526a1.041 1.041 0 0 1 -.254-2.05l10.524-2.66a1.041 1.041 0 0 1 .51 2.018l-10.524 2.66a1.069 1.069 0 0 1 -.256.032z" fill="#c8cbd2"/><path d="m100.9 90.43a1.041 1.041 0 0 1 -.254-2.05l10.524-2.661a1.041 1.041 0 1 1 .51 2.018l-10.525 2.663a1.02 1.02 0 0 1 -.255.03z" fill="#c8cbd2"/><path d="m102.9 98.333a1.041 1.041 0 0 1 -.254-2.05l10.523-2.66a1.041 1.041 0 0 1 .51 2.018l-10.525 2.659a1.026 1.026 0 0 1 -.254.033z" fill="#c8cbd2"/></svg>