<svg id="Layer_1" enable-background="new 0 0 256 256" height="512" viewBox="0 0 256 256" width="512" xmlns="http://www.w3.org/2000/svg"><path d="m162.915 140.89h-69.83c-7.012 0-12.696 5.684-12.696 12.696v23.23 4.62 66.564h95.222v-66.563-4.62-23.23c0-7.012-5.684-12.697-12.696-12.697z" fill="#6bdddd"/><path d="m175.611 250h-95.222c-1.104 0-2-.896-2-2v-94.414c0-8.104 6.593-14.696 14.696-14.696h69.83c8.104 0 14.696 6.592 14.696 14.696v94.414c0 1.104-.895 2-2 2zm-93.222-4h91.223v-92.414c0-5.897-4.798-10.696-10.696-10.696h-69.83c-5.898 0-10.696 4.798-10.696 10.696v92.414z" fill="#3762cc"/><path d="m175.303 76.389c-.1 0-.197.013-.297.015v-4.395c0-25.691-21.045-46.518-47.006-46.518-25.961 0-47.006 20.827-47.006 46.518v4.395c-.1-.002-.197-.015-.297-.015-7.92 0-14.341 6.354-14.341 14.192s6.421 14.192 14.341 14.192c.52 0 1.033-.031 1.539-.084 4.851 20.58 23.492 35.915 45.764 35.915 22.273 0 40.914-15.335 45.764-35.915.506.053 1.018.084 1.539.084 7.92 0 14.341-6.354 14.341-14.192-.001-7.838-6.421-14.192-14.341-14.192z" fill="#f9cfcf"/><path d="m128 142.604c-22.326 0-41.539-14.65-47.299-35.831-.001 0-.003 0-.004 0-9.011 0-16.341-7.264-16.341-16.192 0-8.358 6.425-15.258 14.638-16.105v-2.468c0-26.753 21.984-48.518 49.006-48.518s49.006 21.765 49.006 48.518v2.468c8.213.847 14.638 7.747 14.638 16.105 0 8.928-7.33 16.192-16.341 16.192-.002 0-.003 0-.005 0-5.76 21.18-24.972 35.831-47.298 35.831zm-45.763-39.915c.917 0 1.73.63 1.944 1.541 4.771 20.239 22.789 34.374 43.818 34.374 21.028 0 39.047-14.135 43.817-34.374.229-.98 1.168-1.634 2.155-1.53.467.049.902.073 1.33.073 6.805 0 12.341-5.469 12.341-12.192 0-6.716-5.525-12.182-12.321-12.192-.119.008-.197.013-.277.015-.549.024-1.056-.195-1.439-.571-.384-.376-.6-.891-.6-1.428v-4.396c0-24.547-20.189-44.518-45.006-44.518s-45.005 19.97-45.005 44.517v4.396c0 .537-.216 1.052-.6 1.428-.383.376-.896.597-1.439.571-.081-.001-.161-.006-.241-.012-.002 0-.004 0-.005 0-6.819 0-12.353 5.468-12.353 12.19 0 6.723 5.536 12.192 12.341 12.192.427 0 .862-.024 1.329-.073.071-.008.141-.011.211-.011z" fill="#3762cc"/><path d="m65.551 59.922c-2.127-5.696-2.278-11.941-.429-17.733l.159-.498c3.025-9.475 10.994-16.533 20.765-18.392 4.612-.877 9.373-.542 13.816.973l.519.177c.03.269.075.539.141.809 2.134 8.722 6.05 16.76 11.372 23.667-4.619 12.868-10.27 20.205-14.578 24.266v.001l-5.654 5.739-10.964-2.542c-2.996 0-5.775.912-8.076 2.466z" fill="#4671c6"/><path d="m183.706 40.417c-3.688-11.443-12.112-20.537-22.882-25.02l.001-.006c-37.861-18.637-58.569 3.848-58.569 3.848-1.559 1.5-2.282 3.781-1.734 6.019 4.346 17.767 16.057 32.726 32.083 40.981l.022.012c3.46 1.782 7.072 3.237 10.792 4.347.925.276 1.671-.795 1.111-1.595l-7.785-11.109c-.679-.968.513-2.15 1.439-1.425 8.608 6.741 25.333 17.908 42.252 18.468l2.755-7.545c3.166-8.672 3.348-18.184.515-26.975z" fill="#4671c6"/><path d="m91.661 80.931c-.15 0-.302-.017-.452-.052l-10.732-2.489c-2.415.042-4.74.773-6.736 2.122-.508.343-1.146.435-1.729.248-.584-.187-1.05-.631-1.265-1.205l-7.07-18.933c-2.273-6.088-2.437-12.85-.461-19.041l.159-.499c3.251-10.183 11.794-17.75 22.296-19.748 4.944-.939 10.072-.579 14.836 1.044l.519.177c.732.25 1.256.9 1.342 1.669.021.184.051.369.096.553 2.054 8.393 5.759 16.105 11.015 22.926.416.54.528 1.255.299 1.896-4.852 13.518-10.884 21.081-15.089 25.046l-5.602 5.688c-.381.388-.897.598-1.426.598zm-10.964-6.542c.152 0 .304.018.452.052l9.873 2.29 4.868-4.942c3.835-3.618 9.239-10.394 13.75-22.526-5.195-6.979-8.894-14.806-11.002-23.286-3.942-1.238-8.154-1.486-12.22-.712-9.06 1.723-16.43 8.25-19.233 17.035l-.159.499c-1.704 5.339-1.563 11.173.398 16.424l6.25 16.737c2.182-1.033 4.571-1.571 7.023-1.571z" fill="#3762cc"/><path d="m180.436 76.937c-.021 0-.044 0-.066-.001-14.675-.486-29.121-8.631-38.535-15.265l4.333 6.184c.744 1.062.734 2.482-.024 3.534-.76 1.055-2.052 1.496-3.296 1.125-3.828-1.142-7.575-2.651-11.136-4.486-16.576-8.539-28.645-23.951-33.132-42.295-.698-2.85.17-5.878 2.265-7.911 1.296-1.335 23.109-22.811 60.863-4.226.01.004.019.009.027.013 11.349 4.773 20.046 14.312 23.875 26.193 2.958 9.179 2.767 19.221-.54 28.275l-2.755 7.545c-.29.792-1.042 1.315-1.879 1.315zm-42.872-22.687c.649 0 1.302.213 1.853.645 8.065 6.315 23.741 16.862 39.646 17.97l2.248-6.158c3.003-8.222 3.177-17.34.491-25.676-3.486-10.814-11.413-19.484-21.748-23.787-.086-.036-.169-.077-.247-.124-35.889-17.591-55.275 2.608-56.085 3.478-.025.027-.055.057-.081.083-1.089 1.048-1.54 2.619-1.178 4.102 4.213 17.219 15.532 31.682 31.057 39.679 2.498 1.287 5.079 2.399 7.714 3.325l-6.128-8.744c-.875-1.25-.707-2.917.398-3.965.58-.55 1.319-.828 2.06-.828z" fill="#3762cc"/><path d="m131.474 140.463c-.19.015-.379.031-.569.043-.295.018-.59.033-.887.046-.669.03-1.341.051-2.018.051s-1.349-.021-2.019-.051c-.297-.013-.592-.028-.887-.046-.19-.012-.378-.028-.567-.043-6.922-.501-13.43-2.475-19.194-5.625v5.401c0 12.558 9.822 22.738 21.938 22.738h1.458c12.116 0 21.938-10.18 21.938-22.738v-5.402c-5.764 3.151-12.271 5.125-19.193 5.626z" fill="#f9cfcf"/><path d="m175.61 250h-95.221c-1.104 0-2-.896-2-2v-94.414c0-8.104 6.593-14.696 14.696-14.696h10.248v-4.053c0-.706.372-1.36.979-1.72.607-.361 1.359-.374 1.979-.035 5.674 3.101 11.857 4.913 18.38 5.386l.551.042c.276.017.56.032.845.044 1.284.056 2.581.057 3.861 0 .288-.012.57-.027.854-.044l.537-.041c6.532-.474 12.716-2.286 18.389-5.387.619-.338 1.372-.325 1.979.035s.979 1.014.979 1.72v4.053h10.248c8.103 0 14.695 6.592 14.695 14.696v94.414c.001 1.104-.894 2-1.999 2zm-93.221-4h91.222v-92.414c0-5.897-4.798-10.696-10.695-10.696h-12.266c-.54 0-1.057-.218-1.434-.605-.376-.387-.58-.909-.565-1.449l.007-.218c.004-.126.009-.252.009-.379v-2.156c-5.349 2.472-11.068 3.941-17.049 4.375l-.586.044c-.313.019-.62.035-.93.048-1.39.063-2.814.063-4.21 0-.306-.013-.614-.029-.921-.048l-.6-.045c-5.971-.433-11.69-1.902-17.039-4.374v2.156c0 .134.005.267.009.4l.006.197c.015.54-.189 1.062-.565 1.449-.377.387-.894.605-1.434.605h-12.263c-5.898 0-10.696 4.798-10.696 10.696z" fill="#3762cc"/><path d="m58.113 185.86 22.276 15.598v-20.021-4.62-23.23c0-1.452.256-2.842.705-4.141l-23.487 33.543c-.654.932-.427 2.218.506 2.871z" fill="#6bdddd"/><path d="m159.304 89.21c-11.577 0-18.874-7.617-19.198-7.962-.757-.805-.718-2.071.088-2.827.803-.755 2.066-.717 2.823.084.079.083 7.356 7.589 18.311 6.614 1.105-.101 2.071.714 2.17 1.814s-.714 2.072-1.814 2.17c-.812.073-1.607.107-2.38.107z" fill="#3762cc"/><path d="m159.748 96.294h-18.186c-1.104 0-2-.896-2-2s.896-2 2-2h18.186c1.104 0 2 .896 2 2s-.895 2-2 2z" fill="#3762cc"/><path d="m96.696 89.21c-.774 0-1.567-.034-2.379-.106-1.101-.099-1.913-1.07-1.814-2.17.098-1.1 1.071-1.914 2.17-1.814 11.047.985 18.236-6.534 18.308-6.61.758-.805 2.023-.843 2.826-.088.806.756.845 2.022.088 2.827-.325.345-7.624 7.961-19.199 7.961z" fill="#3762cc"/><path d="m114.582 96.294h-18.186c-1.104 0-2-.896-2-2s.896-2 2-2h18.186c1.104 0 2 .896 2 2s-.895 2-2 2z" fill="#3762cc"/><ellipse cx="128" cy="117.186" fill="#f9a7a7" rx="15.027" ry="12.116"/><path d="m175.625 181.434v20.021l22.276-15.598c.933-.653 1.16-1.939.506-2.872l-23.476-33.528-.011-.015c.449 1.3.705 2.689.705 4.141v23.23z" fill="#6bdddd"/><path d="m190.578 148.655c-1.104 0-2-.896-2-2 0-9.926-8.075-18.001-18.002-18.001-1.104 0-2-.896-2-2s.896-2 2-2c12.132 0 22.002 9.87 22.002 22.001 0 1.104-.895 2-2 2z" fill="#3762cc"/><path d="m182.436 150.717c-1.104 0-2-.896-2-2 0-6.573-5.348-11.921-11.921-11.921-1.104 0-2-.896-2-2s.896-2 2-2c8.779 0 15.921 7.142 15.921 15.921 0 1.104-.896 2-2 2z" fill="#3762cc"/><path d="m65.422 148.655c-1.104 0-2-.896-2-2 0-12.132 9.87-22.001 22.002-22.001 1.104 0 2 .896 2 2s-.896 2-2 2c-9.927 0-18.002 8.075-18.002 18.001 0 1.104-.896 2-2 2z" fill="#3762cc"/><path d="m73.564 150.717c-1.104 0-2-.896-2-2 0-8.779 7.142-15.921 15.921-15.921 1.104 0 2 .896 2 2s-.896 2-2 2c-6.573 0-11.921 5.348-11.921 11.921 0 1.104-.895 2-2 2z" fill="#3762cc"/><path d="m192.119 236.422-10.7 4.3c-1.145.46-2.401.568-3.608.309l-1.914-.41-39.447-34.729c-6.481-2.562-12.131-6.817-16.382-12.29l-.003.003-.044-.061c-.531-.686-1.036-1.394-1.522-2.117l-2.853-3.969.007-.007c-1.372-1.782-1.399-4.332.088-6.146l7.963-9.713c2.015-2.458 5.343-3.615 8.64-2.698 1.141.317 2.179.93 3.094 1.681l6.526 5.35c2.627 2.154 4.96 4.643 6.939 7.404l5.042 7.033 18.25 12.49 1.218.834 2.211 1.189v-3.419l14.032-9.826s6.138 20.079 9.295 30.6c1.159 3.865.243 8.05-2.425 11.077-1.205 1.367-2.714 2.435-4.407 3.115z" fill="#f9cfcf"/><path d="m179.115 243.169c-.575 0-1.152-.061-1.724-.184l-1.913-.41c-.335-.072-.646-.228-.902-.455l-39.189-34.501c-6.612-2.681-12.42-7.063-16.82-12.692-.044-.049-.085-.101-.124-.155-.538-.697-1.062-1.425-1.604-2.231l-2.816-3.917c-.032-.044-.062-.09-.089-.136-1.844-2.559-1.748-6.003.261-8.453l7.963-9.713c2.57-3.135 6.776-4.455 10.723-3.356 1.318.367 2.605 1.06 3.826 2.061l6.525 5.35c2.763 2.264 5.218 4.883 7.298 7.786l4.836 6.747 18.261 12.497c.015-.634.331-1.225.852-1.589l14.032-9.826c.524-.368 1.191-.461 1.799-.253.605.208 1.074.694 1.262 1.306.061.201 6.176 20.205 9.298 30.61 1.366 4.555.305 9.405-2.84 12.974-1.406 1.595-3.191 2.857-5.163 3.649l-10.7 4.299c-.98.393-2.013.592-3.052.592zm-2.288-4.395 1.403.301c.82.175 1.664.104 2.442-.209l10.7-4.3c1.396-.561 2.659-1.454 3.654-2.583 2.225-2.525 2.976-5.957 2.009-9.18-2.44-8.137-6.716-22.154-8.487-27.957l-10.924 7.649v2.378c0 .704-.37 1.355-.974 1.717-.604.36-1.355.378-1.974.044l-2.211-1.189c-.063-.034-.123-.07-.183-.111l-19.469-13.324c-.192-.131-.359-.296-.495-.485l-5.042-7.033c-1.877-2.618-4.091-4.98-6.582-7.022l-6.526-5.351c-.788-.646-1.583-1.084-2.362-1.301-2.42-.675-4.99.128-6.557 2.039l-7.963 9.713c-.87 1.062-.891 2.566-.05 3.659.054.069.102.142.145.215l2.74 3.812c.527.783 1 1.44 1.48 2.061.001.001.002.002.003.004.014.017.027.035.041.052 4.043 5.206 9.416 9.236 15.538 11.657.215.085.413.206.586.359zm15.292-2.352h.01z" fill="#3762cc"/><path d="m181.091 210.825c-.405 0-.815-.123-1.17-.379l-5.468-3.951c-.895-.647-1.096-1.897-.449-2.792.646-.894 1.896-1.098 2.793-.45l5.468 3.951c.895.647 1.096 1.897.449 2.792-.391.541-1.003.829-1.623.829z" fill="#3762cc"/><path d="m63.881 236.414 10.7 4.3c1.145.46 2.401.568 3.608.309l1.914-.41 39.447-34.729c6.481-2.562 12.131-6.817 16.382-12.29l.003.003.044-.061c.531-.686 1.036-1.394 1.522-2.117l2.853-3.969-.007-.007c1.372-1.782 1.399-4.332-.088-6.146l-7.963-9.713c-2.015-2.458-5.343-3.615-8.64-2.698-1.14.317-2.179.93-3.094 1.681l-6.526 5.35c-2.627 2.154-4.96 4.643-6.939 7.404l-5.042 7.033-18.25 12.49-1.218.834-2.211 1.189v-3.419l-14.032-9.826s-6.138 20.079-9.295 30.6c-1.159 3.865-.243 8.05 2.425 11.077 1.205 1.368 2.715 2.435 4.407 3.115z" fill="#f9cfcf"/><g fill="#3762cc"><path d="m76.885 243.162c-1.039 0-2.071-.199-3.05-.592l-10.7-4.3c-1.972-.792-3.757-2.054-5.162-3.649-3.145-3.57-4.207-8.42-2.841-12.975 3.123-10.406 9.237-30.409 9.298-30.61.188-.612.656-1.098 1.262-1.307.604-.208 1.274-.115 1.799.253l14.032 9.826c.521.365.837.956.852 1.59l18.261-12.497 4.837-6.747c2.08-2.902 4.535-5.522 7.297-7.785l6.526-5.351c1.22-1 2.507-1.694 3.825-2.061 3.943-1.096 8.151.221 10.724 3.356l7.962 9.713c2.011 2.454 2.105 5.903.255 8.462-.025.042-.054.084-.083.126l-2.853 3.969c-.49.732-1.028 1.481-1.564 2.174-.017.021-.033.041-.05.061-4.41 5.678-10.247 10.095-16.897 12.792l-39.189 34.501c-.257.227-.567.383-.902.455l-1.914.41c-.573.125-1.15.186-1.725.186zm-12.258-8.604 10.7 4.3c.777.313 1.624.385 2.441.209l1.404-.301 39.056-34.384c.173-.153.371-.274.586-.359 6.121-2.42 11.494-6.451 15.538-11.657.014-.018.027-.035.041-.052.001-.001.002-.003.003-.004.481-.622.967-1.297 1.443-2.008l2.783-3.874c.042-.071.089-.14.14-.207.841-1.092.82-2.597-.051-3.659l-7.962-9.713c-1.566-1.91-4.143-2.71-6.558-2.039-.779.217-1.574.654-2.361 1.3l-6.527 5.351c-2.49 2.042-4.704 4.404-6.582 7.022l-5.042 7.033c-.136.189-.303.354-.495.485l-19.468 13.323c-.059.041-.12.078-.183.112l-2.212 1.189c-.619.334-1.369.316-1.974-.045-.604-.361-.974-1.013-.974-1.717v-2.378l-10.924-7.649c-1.771 5.803-6.046 19.82-8.487 27.957-.967 3.223-.216 6.655 2.01 9.18.996 1.131 2.259 2.025 3.655 2.585z"/><path d="m74.909 210.817c-.62 0-1.232-.288-1.623-.829-.646-.895-.445-2.146.449-2.792l5.468-3.951c.897-.647 2.147-.445 2.793.45s.445 2.146-.449 2.792l-5.468 3.951c-.354.256-.765.379-1.17.379z"/><path d="m80.389 203.458c-.403 0-.805-.122-1.147-.362l-22.276-15.598c-.889-.623-1.481-1.554-1.67-2.622-.188-1.069.051-2.146.674-3.035l23.486-33.542c.572-.818 1.659-1.088 2.548-.634.889.453 1.307 1.492.981 2.435-.396 1.143-.596 2.316-.596 3.488v47.871c0 .746-.415 1.43-1.076 1.774-.292.15-.608.225-.924.225zm-21.129-19.236 19.129 13.394v-40.82l-19.144 27.34-1.133 1.725z"/><path d="m175.625 203.455c-.316 0-.633-.075-.924-.226-.661-.344-1.076-1.028-1.076-1.774v-47.871c0-1.172-.2-2.345-.596-3.488-.325-.94.091-1.977.976-2.432.886-.455 1.971-.191 2.546.621l23.495 33.553c.622.889.861 1.967.673 3.035-.188 1.069-.782 2-1.672 2.623l-22.274 15.597c-.343.24-.745.362-1.148.362zm2-46.643v40.8l19.128-13.394z"/><path d="m128 130.803c-9.113 0-16.527-6.108-16.527-13.616s7.414-13.617 16.527-13.617 16.527 6.108 16.527 13.616-7.414 13.617-16.527 13.617zm0-24.233c-7.459 0-13.527 4.762-13.527 10.616s6.068 10.616 13.527 10.616 13.527-4.762 13.527-10.616-6.068-10.616-13.527-10.616z"/></g><path d="m115.577 162.957c-1.134-.099-1.974-1.099-1.874-2.234l2.224-25.418c.099-1.134 1.099-1.974 2.234-1.874 1.134.099 1.974 1.099 1.874 2.234l-2.224 25.418c-.099 1.134-1.099 1.973-2.234 1.874z" fill="#e0ebfc"/><path d="m128.527 153.049c-1.139 0-2.062-.923-2.062-2.062v-25.516c0-1.139.923-2.062 2.062-2.062 1.139 0 2.062.923 2.062 2.062v25.516c-.001 1.139-.924 2.062-2.062 2.062z" fill="#e0ebfc"/><path d="m141.024 162.957c-1.134.099-2.134-.74-2.234-1.874l-2.224-25.418c-.099-1.134.74-2.134 1.874-2.234 1.134-.099 2.134.74 2.234 1.874l2.224 25.418c.1 1.134-.74 2.134-1.874 2.234z" fill="#e0ebfc"/></svg>