<?xml version="1.0" encoding="iso-8859-1"?>
<!-- Generator: Adobe Illustrator 19.0.0, SVG Export Plug-In . SVG Version: 6.00 Build 0)  -->
<svg version="1.1" id="Capa_1" xmlns="http://www.w3.org/2000/svg" xmlns:xlink="http://www.w3.org/1999/xlink" x="0px" y="0px"
	 viewBox="0 0 512.12 512.12" style="enable-background:new 0 0 512.12 512.12;" xml:space="preserve">
<g transform="translate(0 -1)">
	<g transform="translate(1 1)">
		<path style="fill:#00838F;" d="M442.879,288.034l-8.619,53.419c0,0-107.691,85.845-145.067,85.333l-25.259,0.002
			c37.632-0.002,144.725-85.336,144.725-85.336l8.619-53.419c7.424-132.693-85.419-176.981-85.419-176.981l-0.085-0.171
			c-5.209-1.703-10.648-2.595-16.128-2.645c13.961-1.353,28.049-0.46,41.728,2.645l0.085,0.171
			C357.461,111.053,450.303,155.341,442.879,288.034z"/>
		<path style="fill:#00BCD4;" d="M417.279,288.034l-8.619,53.419c0,0-107.093,85.333-144.725,85.333h-43.008
			C176.639,425.165,71.594,320.12,71.594,320.12l-3.755-29.867c-8.363-131.669,81.579-177.323,85.248-179.2h0.085
			c5.491-2.949,11.479-4.859,17.664-5.632c15.957-2.389,34.475,0,41.472,5.461l0.085,0.171
			c11.071,5.925,21.242,13.395,30.208,22.187c3.669,3.584,7.595,7.509,11.435,12.032h2.56c11.658-13.837,25.74-25.433,41.557-34.219
			c5.686-1.685,11.566-2.631,17.493-2.816c5.48,0.05,10.919,0.943,16.128,2.645l0.085,0.171
			C331.861,111.053,424.703,155.341,417.279,288.034z"/>
		<path style="fill:#FF9801;" d="M203.861,196.386c-0.05,13.42,5.229,26.31,14.677,35.84c-8.96,6.656-40.277,34.901-40.277,100.693
			l-0.683,0.853c-4.433-3.731-9.528-6.597-15.019-8.448c-16.012-6.489-30.879-15.507-44.032-26.709
			c-2.645-2.133-5.205-4.181-7.595-6.229c-12.117-10.24-30.123-4.779-41.301,6.4l1.963,21.333l-3.755-29.867
			c-8.363-131.669,81.579-177.323,85.248-179.2h0.085c8.759,5.613,18.952,8.576,29.355,8.533
			c10.558,0.025,20.899-2.997,29.781-8.704l0.085,0.171c15.906,8.691,30.033,20.3,41.643,34.219
			C226.176,145.788,203.86,168.521,203.861,196.386z"/>
		<path style="fill:#795548;" d="M237.994,64.12c-0.038,30.618-24.849,55.429-55.467,55.467c-10.429,0.043-20.65-2.92-29.44-8.533
			c-22.575-14.166-31.876-42.39-22.146-67.202s35.739-39.188,61.926-34.23S238.007,37.468,237.994,64.12z"/>
		<path style="fill:#FFE0B2;" d="M383.061,64.12c-0.038,30.618-24.849,55.429-55.467,55.467c-10.429,0.043-20.65-2.92-29.44-8.533
			c-22.575-14.166-31.876-42.39-22.146-67.202s35.739-39.188,61.926-34.23C364.121,14.579,383.074,37.468,383.061,64.12z"/>
		<path style="fill:#6A1B9A;" d="M332.543,333.773c-3.51,2.784-6.688,5.962-9.472,9.472c-11.153,14.487-17.078,32.321-16.811,50.603
			v24.405h-8.533c-4.707,0.014-8.519,3.826-8.533,8.533h-24.917c0.014-4.707,3.826-8.519,8.533-8.533h8.533v-24.405
			c-0.268-18.281,5.657-36.116,16.811-50.603c2.784-3.509,5.963-6.688,9.472-9.472l-0.683-0.853
			c0-48.384-16.896-76.459-29.44-90.539c5.229-2.573,9.988-6.005,14.08-10.155c8.96,6.656,40.277,34.901,40.277,100.693
			L332.543,333.773z"/>
		<path style="fill:#9D27B0;" d="M307.626,333.773c-3.509,2.784-6.688,5.963-9.472,9.472
			c-11.154,14.487-17.078,32.321-16.811,50.603v24.405h-8.533c-4.707,0.014-8.519,3.826-8.533,8.533h-43.349
			c-0.014-4.707-3.826-8.519-8.533-8.533h-8.533v-24.405c0.267-18.281-5.657-36.115-16.811-50.603
			c-2.784-3.51-5.962-6.688-9.472-9.472l0.683-0.853c0-48.384,16.896-76.459,29.44-90.539c3.258-3.744,6.89-7.146,10.837-10.155
			c6.558,6.767,14.903,11.531,24.064,13.739c4.061,1.1,8.252,1.645,12.459,1.621c7.781,0.008,15.46-1.773,22.443-5.205
			c12.544,14.08,29.44,42.155,29.44,90.539L307.626,333.773z"/>
		<g>
			<path style="fill:#795548;" d="M306.261,196.386c0.041,28.153-22.656,51.058-50.809,51.274
				c-28.153,0.215-51.197-22.34-51.587-50.491s22.023-51.334,50.171-51.898c0.336-0.071,0.68-0.099,1.024-0.085
				c0.513-0.014,1.027,0.014,1.536,0.085C284.253,146.069,306.259,168.718,306.261,196.386z"/>
			<path style="fill:#795548;" d="M203.861,393.848v24.405l2.399,10.8l-85.244,2l0.242-12.8l-61.696-61.696
				c-7.044-6.978-12.743-15.193-16.811-24.235L9.301,258.765c-1.132-2.432-1.715-5.083-1.707-7.765
				c0.025-10.311,8.377-18.663,18.688-18.688c7.485-0.028,14.251,4.45,17.152,11.349l19.115,44.544
				c0.512,1.194,1.109,2.475,1.707,3.669c0.369,0.923,0.827,1.809,1.365,2.645c0,0.171,0.085,0.256,0.171,0.427
				c0.171,0.341,0.427,0.768,0.597,1.109l3.243-1.707v-0.085c3.085-3.103,6.814-5.492,10.923-6.997
				c10.301-3.969,21.947-2.006,30.379,5.12c2.389,2.048,4.949,4.096,7.595,6.229c13.153,11.202,28.02,20.22,44.032,26.709
				c5.491,1.851,10.586,4.717,15.019,8.448c3.51,2.784,6.688,5.962,9.472,9.472C198.203,357.732,204.128,375.566,203.861,393.848z"
				/>
		</g>
		<path style="fill:#4E342E;" d="M502.527,251c0.008,2.682-0.574,5.334-1.707,7.765l-33.451,73.557
			c-4.068,9.042-9.767,17.257-16.811,24.235l-61.696,61.696l-0.256,15.445l-25.6-0.853l0.256-14.592l61.696-61.696
			c7.044-6.978,12.743-15.193,16.811-24.235l33.451-73.557c1.132-2.432,1.715-5.083,1.707-7.765
			c-0.024-5.163-2.15-10.093-5.888-13.653c5.444-5.083,13.384-6.453,20.217-3.49C498.09,236.819,502.516,243.552,502.527,251z"/>
		<path style="fill:#795548;" d="M476.927,251c0.008,2.682-0.574,5.334-1.707,7.765l-33.451,73.557
			c-4.068,9.042-9.767,17.257-16.811,24.235l-61.696,61.696l-0.256,14.592l-57.429-1.792l0.683-12.8v-24.405
			c-0.267-18.281,5.657-36.115,16.811-50.603c2.784-3.51,5.962-6.688,9.472-9.472c4.433-3.731,9.528-6.597,15.019-8.448
			c16.012-6.489,30.879-15.507,44.032-26.709c2.645-2.133,5.205-4.181,7.595-6.229c2.011-1.765,4.286-3.205,6.741-4.267
			c5.337-2.535,11.307-3.426,17.152-2.56c6.59,0.948,12.696,4.001,17.408,8.704v0.085l3.243,1.707
			c0.768-1.451,1.536-2.901,2.219-4.352c0.597-1.109,1.109-2.304,1.621-3.499l19.115-44.544c0.995-2.385,2.477-4.536,4.352-6.315
			C474.778,240.907,476.904,245.837,476.927,251z"/>
		<g>
			<path style="fill:#6A1B9A;" d="M118.527,418.253h93.867c4.713,0,8.533,3.82,8.533,8.533v68.267c0,4.713-3.821,8.533-8.533,8.533
				h-93.867c-4.713,0-8.533-3.821-8.533-8.533v-68.267C109.994,422.074,113.814,418.253,118.527,418.253z"/>
			<path style="fill:#6A1B9A;" d="M297.727,418.253h93.867c4.713,0,8.533,3.82,8.533,8.533v68.267c0,4.713-3.821,8.533-8.533,8.533
				h-93.867c-4.713,0-8.533-3.821-8.533-8.533v-68.267C289.194,422.074,293.014,418.253,297.727,418.253z"/>
		</g>
		<g>
			<path style="fill:#9D27B0;" d="M195.327,426.786v68.267c0.457,4.145-2.44,7.912-6.564,8.533h-72.205
				c-4.124-0.622-7.021-4.388-6.564-8.533v-68.267c-0.457-4.145,2.44-7.912,6.564-8.533h72.205
				C192.887,418.875,195.784,422.641,195.327,426.786z"/>
			<path style="fill:#9D27B0;" d="M374.527,426.786v68.267c0.457,4.145-2.44,7.912-6.564,8.533h-72.205
				c-4.124-0.622-7.021-4.388-6.564-8.533v-68.267c-0.457-4.145,2.44-7.912,6.564-8.533h72.205
				C372.087,418.875,374.984,422.641,374.527,426.786z"/>
		</g>
	</g>
	<g>
		<path d="M35.965,336.841c4.515,9.957,10.792,19.017,18.529,26.742l52.595,52.595c-2.965,3.139-4.62,7.291-4.629,11.609v68.267
			c0.009,9.422,7.645,17.057,17.067,17.067h93.867c9.422-0.009,17.057-7.645,17.067-17.067V436.32h51.2v59.733
			c0.009,9.422,7.645,17.057,17.067,17.067h93.867c9.422-0.009,17.057-7.645,17.067-17.067v-68.267
			c-0.009-4.318-1.664-8.47-4.629-11.609l52.595-52.595c7.737-7.725,14.014-16.784,18.529-26.742l33.442-73.571
			c4.054-8.913,3.006-19.316-2.745-27.241c-5.75-7.925-15.316-12.148-25.046-11.059c-9.73,1.09-18.125,7.324-21.98,16.325
			l-7.498,17.493c-5.499-88.116-56.39-132.304-79.21-147.79c18.743-18.149,24.595-45.859,14.789-70.036
			c-9.806-24.177-33.306-39.983-59.396-39.948c-26.09,0.035-49.548,15.902-59.29,40.105c-9.742,24.203-3.817,51.897,14.974,69.997
			c-10.143,6.906-19.493,14.911-27.88,23.867c-8.468-9.045-17.918-17.115-28.177-24.062c18.717-18.184,24.522-45.91,14.67-70.075
			C232.958,16.68,209.423,0.915,183.327,1c-26.096,0.086-49.527,16.005-59.22,40.234s-3.707,51.917,15.13,69.978
			c-23.071,15.745-73.849,60.253-78.955,148.715l-7.983-18.628c-3.853-9.004-12.247-15.242-21.98-16.334
			c-9.732-1.092-19.3,3.132-25.052,11.058c-5.752,7.926-6.799,18.333-2.743,27.246L35.965,336.841z M119.527,496.053v-68.267h93.867
			l0.012,68.267H119.527z M213.056,386.792c0.171-0.544,0.284-1.104,0.337-1.672c0-0.513,0.271-51.471,23.658-79.913
			c1.943-2.354,2.481-5.567,1.41-8.426c-1.071-2.859-3.587-4.928-6.598-5.426c-3.012-0.499-6.06,0.649-7.995,3.01
			c-11.808,15.697-19.761,33.949-23.219,53.285c-1.792-3.03-3.783-5.939-5.96-8.706c-2.105-2.623-4.384-5.1-6.824-7.415
			c0.645-50.714,21.045-76.883,31.616-87.022c21.486,16.817,51.67,16.817,73.156,0c10.571,10.139,30.971,36.308,31.616,87.022
			c-2.439,2.315-4.719,4.793-6.823,7.415c-2.177,2.767-4.168,5.675-5.96,8.706c-3.458-19.335-11.411-37.588-23.219-53.285
			c-2.996-3.631-8.367-4.15-12.003-1.159c-3.636,2.99-4.164,8.36-1.18,12.001c23.313,28.35,23.659,79.408,23.659,79.921
			c0.055,0.564,0.168,1.121,0.338,1.661c-0.218,2.659-0.338,5.343-0.338,8.047v15.884c-6.069,0.019-11.669,3.271-14.693,8.533
			h-55.947c-3.024-5.262-8.624-8.514-14.693-8.533v-15.883C213.394,392.133,213.274,389.45,213.056,386.792z M256.061,154.72
			c23.564,0,42.667,19.103,42.667,42.667s-19.103,42.667-42.667,42.667s-42.667-19.103-42.667-42.667
			C213.422,173.834,232.508,154.747,256.061,154.72z M392.594,496.053h-93.867v-68.267h93.867V496.053z M475.515,248.016
			c1.593-3.731,5.26-6.15,9.317-6.146c3.448,0.001,6.66,1.754,8.527,4.653s2.133,6.549,0.706,9.688l-33.442,73.571
			c-3.673,8.091-8.776,15.453-15.063,21.733l-59.204,59.204h-70.562v-15.883c-0.261-16.334,5.013-32.276,14.963-45.233
			c5.216-6.954,12.344-12.24,20.513-15.212c16.779-6.593,32.345-15.932,46.059-27.634c0.416-0.275,0.807-0.586,1.168-0.931
			c2.371-1.894,4.771-3.852,7.222-5.915c7.973-6.625,19.47-6.846,27.692-0.533c-3.09,4.634-6.631,8.951-10.571,12.887
			l-38.983,38.983c-2.156,2.156-2.997,5.297-2.208,8.242c0.789,2.944,3.089,5.244,6.033,6.033c2.944,0.789,6.086-0.053,8.242-2.208
			l38.983-38.983c9.14-9.122,16.446-19.913,21.521-31.787L475.515,248.016z M281.661,65.12c0-25.921,21.013-46.933,46.933-46.933
			c25.921,0,46.933,21.013,46.933,46.933s-21.013,46.933-46.933,46.933C302.685,112.024,281.69,91.028,281.661,65.12z
			 M328.594,129.12c10.393,0.004,20.629-2.541,29.81-7.411c16.272,9.35,80.22,53.014,77.273,159.46
			c-10.528-4.585-22.53-4.36-32.879,0.616c-0.305-33.04-6.899-65.72-19.428-96.294c-1.198-2.807-3.803-4.761-6.834-5.124
			c-3.03-0.363-6.024,0.921-7.85,3.366s-2.207,5.68-1,8.483c0.24,0.562,23.332,55.357,16.912,102.805
			c-11.605,9.719-24.675,17.542-38.724,23.179c-1.697,0.566-3.313,1.365-4.951,2.101c-3.28-49.299-23.858-76.135-36.425-88.093
			c11.143-15.411,14.258-35.216,8.384-53.303s-20.033-32.282-38.105-38.204c7.411-7.139,15.576-13.451,24.352-18.826
			C308.221,126.633,318.331,129.119,328.594,129.12z M136.594,65.12c0-25.921,21.013-46.933,46.933-46.933
			s46.933,21.013,46.933,46.933s-21.013,46.933-46.933,46.933C157.619,112.024,136.623,91.028,136.594,65.12z M154.018,121.854
			c18.567,9.73,40.735,9.686,59.263-0.118c8.804,5.37,16.997,11.684,24.433,18.829c-18.176,5.829-32.459,20.013-38.414,38.148
			c-5.955,18.135-2.86,38.025,8.324,53.494c-12.567,11.957-33.144,38.795-36.425,88.094c-1.639-0.736-3.257-1.535-4.955-2.102
			c-14.047-5.638-27.115-13.46-38.72-23.179c-6.398-47.342,16.676-102.247,16.916-102.809c1.834-4.327-0.176-9.323-4.496-11.174
			c-4.32-1.851-9.323,0.14-11.191,4.453c-12.529,30.575-19.123,63.255-19.428,96.296c-10.18-4.86-21.959-5.105-32.332-0.672
			C74.081,175.235,137.36,131.495,154.018,121.854z M18.764,246.52c1.843-2.923,5.069-4.683,8.525-4.65
			c4.059-0.003,7.727,2.417,9.321,6.15l19.083,44.525c5.075,11.874,12.381,22.665,21.521,31.787l38.983,38.983
			c2.155,2.155,5.297,2.997,8.242,2.208c2.944-0.789,5.244-3.089,6.033-6.033c0.789-2.944-0.053-6.086-2.208-8.242l-38.983-38.983
			c-3.917-3.914-7.44-8.205-10.517-12.809c8.188-6.321,19.661-6.133,27.638,0.454c2.449,2.061,4.849,4.017,7.218,5.911
			c0.363,0.348,0.757,0.662,1.178,0.939c13.712,11.699,29.275,21.036,46.05,27.63c8.171,2.971,15.3,8.257,20.517,15.212
			c9.95,12.957,15.223,28.899,14.963,45.233v15.883h-70.562l-59.204-59.204c-6.287-6.28-11.389-13.642-15.063-21.733l-33.442-73.571
			C16.597,253.076,16.865,249.409,18.764,246.52L18.764,246.52z"/>
		<path d="M196.327,453.386h-8.533c-4.713,0-8.533,3.82-8.533,8.533s3.821,8.533,8.533,8.533h8.533c4.713,0,8.533-3.821,8.533-8.533
			S201.04,453.386,196.327,453.386z"/>
		<path d="M324.327,453.386h-8.533c-4.713,0-8.533,3.82-8.533,8.533s3.82,8.533,8.533,8.533h8.533c4.713,0,8.533-3.821,8.533-8.533
			S329.04,453.386,324.327,453.386z"/>
	</g>
</g>
<g>
</g>
<g>
</g>
<g>
</g>
<g>
</g>
<g>
</g>
<g>
</g>
<g>
</g>
<g>
</g>
<g>
</g>
<g>
</g>
<g>
</g>
<g>
</g>
<g>
</g>
<g>
</g>
<g>
</g>
</svg>
