<svg id="Layer_3" height="512" viewBox="0 0 64 64" width="512" xmlns="http://www.w3.org/2000/svg" data-name="Layer 3"><path d="m62 20.08a1.921 1.921 0 0 0 -.923-1.641l-25.367-15.401a7.151 7.151 0 0 0 -3.71-1.038 7.151 7.151 0 0 0 -3.71 1.038l-25.367 15.401a1.921 1.921 0 0 0 -.923 1.641 1.919 1.919 0 0 0 1.92 1.92h56.16a1.919 1.919 0 0 0 1.92-1.92z" fill="#b5b5b5"/><path d="m55 14.75-19.29-11.712a7.149 7.149 0 0 0 -7.42 0l-25.29 15.355v.607h49a3 3 0 0 0 3-3z" fill="#ccc"/><path d="m28 26h8v22h-8z" fill="#939393"/><path d="m6 22v2a2 2 0 0 0 2 2h8a2 2 0 0 0 2-2v-2" fill="#686868"/><path d="m6 52v-2a2 2 0 0 1 2-2h8a2 2 0 0 1 2 2v2" fill="#474747"/><path d="m26 22v2a2 2 0 0 0 2 2h8a2 2 0 0 0 2-2v-2" fill="#686868"/><path d="m26 52v-2a2 2 0 0 1 2-2h8a2 2 0 0 1 2 2v2" fill="#474747"/><path d="m46 22v2a2 2 0 0 0 2 2h8a2 2 0 0 0 2-2v-2" fill="#686868"/><path d="m46 52v-2a2 2 0 0 1 2-2h8a2 2 0 0 1 2 2v2" fill="#474747"/><path d="m48 26h8v22h-8z" fill="#939393"/><path d="m53 43v-17h-5v19h3a2 2 0 0 0 2-2z" fill="#b5b5b5"/><path d="m33 43v-17h-5v19h3a2 2 0 0 0 2-2z" fill="#b5b5b5"/><path d="m8 26h8v22h-8z" fill="#939393"/><circle cx="32" cy="37" fill="#f0ae42" r="7"/><ellipse cx="31" cy="37" fill="#f9d266" rx="6" ry="6.92"/><path d="m2 56h60v6h-60z" fill="#474747"/><path d="m60 58v-2h-58v3h57a1 1 0 0 0 1-1z" fill="#545454"/><path d="m4 56v-2a2 2 0 0 1 2-2h52a2 2 0 0 1 2 2v2" fill="#686868"/><path d="m36 10v-1a3 3 0 0 0 -3-3v-1h-2v1a3 3 0 0 0 -3 3v1a3 3 0 0 0 3 3v3a1 1 0 0 1 -1-1v-1h-2v1a3 3 0 0 0 3 3v1h2v-1a3 3 0 0 0 3-3v-1a3 3 0 0 0 -3-3v-3a1 1 0 0 1 1 1v1zm-2 4v1a1 1 0 0 1 -1 1v-3a1 1 0 0 1 1 1zm-3-3a1 1 0 0 1 -1-1v-1a1 1 0 0 1 1-1z" fill="#559b2d"/><path d="m32 30a7.014 7.014 0 0 0 -1 .08v2.1a2.993 2.993 0 0 0 1 5.82 1 1 0 1 1 -1 1h-2a3 3 0 0 0 2 2.816v2.1a6.29 6.29 0 0 0 2 0v-2.1a2.993 2.993 0 0 0 -1-5.816 1 1 0 1 1 1-1h2a3 3 0 0 0 -2-2.816v-2.1a7.014 7.014 0 0 0 -1-.084z" fill="#f4a93c"/><path d="m13 43v-17h-5v19h3a2 2 0 0 0 2-2z" fill="#b5b5b5"/><path d="m62 55h-1v-1a3 3 0 0 0 -2-2.816v-1.184a3 3 0 0 0 -2-2.816v-20.368a3 3 0 0 0 2-2.816v-1h1.08a2.92 2.92 0 0 0 1.52-5.415l-25.371-15.401a8.278 8.278 0 0 0 -8.458 0l-25.371 15.4a2.92 2.92 0 0 0 1.52 5.416h1.08v1a3 3 0 0 0 2 2.816v20.368a3 3 0 0 0 -2 2.816v1.184a3 3 0 0 0 -2 2.816v1h-1a1 1 0 0 0 -1 1v6a1 1 0 0 0 1 1h60a1 1 0 0 0 1-1v-6a1 1 0 0 0 -1-1zm-47-28v20h-6v-20zm2 20.184v-20.368a3 3 0 0 0 2-2.816v-1h6v1a3 3 0 0 0 2 2.816v3.949a7.979 7.979 0 0 0 0 12.47v3.949a3 3 0 0 0 -2 2.816v1h-6v-1a3 3 0 0 0 -2-2.816zm18-.184h-6v-2.589a7.935 7.935 0 0 0 6 0zm-4-15.91v1.094a2.993 2.993 0 0 0 1 5.816 1 1 0 1 1 -1 1h-2a3 3 0 0 0 2 2.816v1.094a5.993 5.993 0 0 1 0-11.82zm2 11.82v-1.094a2.993 2.993 0 0 0 -1-5.816 1 1 0 1 1 1-1h2a3 3 0 0 0 -2-2.816v-1.094a5.993 5.993 0 0 1 0 11.82zm-1-13.91a7.945 7.945 0 0 0 -3 .589v-2.589h6v2.589a7.945 7.945 0 0 0 -3-.589zm4-4h-8a1 1 0 0 1 -1-1v-1h10v1a1 1 0 0 1 -1 1zm-9 25a1 1 0 0 1 1-1h8a1 1 0 0 1 1 1v1h-10zm10-2.816v-3.949a7.979 7.979 0 0 0 0-12.47v-3.949a3 3 0 0 0 2-2.816v-1h6v1a3 3 0 0 0 2 2.816v20.368a3 3 0 0 0 -2 2.816v1h-6v-1a3 3 0 0 0 -2-2.816zm12-.184v-20h6v20zm-2 3a1 1 0 0 1 1-1h8a1 1 0 0 1 1 1v1h-10zm10-26a1 1 0 0 1 -1 1h-8a1 1 0 0 1 -1-1v-1h10zm-54-3.92a.925.925 0 0 1 .442-.786l25.368-15.401a6.144 6.144 0 0 1 6.38 0l25.368 15.407a.919.919 0 0 1 -.478 1.7h-56.16a.921.921 0 0 1 -.92-.92zm14 2.92v1a1 1 0 0 1 -1 1h-8a1 1 0 0 1 -1-1v-1zm-9 26h8a1 1 0 0 1 1 1v1h-10v-1a1 1 0 0 1 1-1zm-3 5a1 1 0 0 1 1-1h52a1 1 0 0 1 1 1v1h-54zm56 7h-58v-4h58z"/><path d="m33 6v-1h-2v1a3 3 0 0 0 -3 3v1a3 3 0 0 0 3 3v3a1 1 0 0 1 -1-1v-1h-2v1a3 3 0 0 0 3 3v1h2v-1a3 3 0 0 0 3-3v-1a3 3 0 0 0 -3-3v-3a1 1 0 0 1 1 1v1h2v-1a3 3 0 0 0 -3-3zm1 8v1a1 1 0 0 1 -1 1v-3a1 1 0 0 1 1 1zm-3-3a1 1 0 0 1 -1-1v-1a1 1 0 0 1 1-1z"/></svg>