<svg id="Capa_1" enable-background="new 0 0 512 512" height="512" viewBox="0 0 512 512" width="512" xmlns="http://www.w3.org/2000/svg"><g><g><g clip-rule="evenodd" fill-rule="evenodd"><path d="m219.501 142.921h-197.001c-8.25 0-15 6.758-15 15v202.499c0 8.242 6.758 15 15 15h30v60l75-60h149.999c8.242 0 15-6.75 15-15v-59.447h-57.997c-8.242 0-15-6.75-15-15v-143.052z" fill="#faef93"/><path d="m219.501 285.973c0 8.25 6.758 15 15 15h149.999l75 60v-60h30c8.242 0 15-6.758 15-15v-202.499c0-8.242-6.75-15-15-15h-254.999c-8.25 0-15 6.75-15 15z" fill="#c7efbc"/><path d="m45 142.921h-22.5c-8.25 0-15 6.758-15 15v202.499c0 8.242 6.758 15 15 15h22.5c-8.242 0-15-6.758-15-15v-202.499c0-8.242 6.75-15 15-15zm174.501 0h-22.5v143.053c0 20.665 16.836 37.499 37.499 37.499h57.997v-22.5h-57.997c-8.242 0-15-6.75-15-15v-143.052zm-167.001 224.999v67.5l22.5-18v-49.5z" fill="#f6e23d"/><path d="m257.001 68.474h-22.5c-8.25 0-15 6.758-15 15v202.499c0 8.242 6.758 15 15 15h22.5c-8.242 0-15-6.758-15-15v-202.499c0-8.242 6.75-15 15-15z" fill="#8edf78"/></g><g><path d="m482 135.974h-15v-15h15zm0-30h-15v-15h15z" fill="#fff"/></g></g><g><path d="m489.5 60.974h-254.999c-12.406 0-22.5 10.093-22.5 22.5v15h15v-15c0-4.135 3.364-7.5 7.5-7.5h254.999c4.136 0 7.5 3.365 7.5 7.5v202.5c0 4.065-3.435 7.5-7.5 7.5h-37.5v51.896l-64.869-51.896h-152.63c-4.135 0-7.5-3.364-7.5-7.5v-172.5h-15v21.947h-189.501c-12.407 0-22.5 10.093-22.5 22.5v202.499c0 12.407 10.093 22.5 22.5 22.5h22.5v68.105l85.131-68.105h79.868v-15h-85.129l-64.87 51.895v-51.895h-37.5c-4.065 0-7.5-3.435-7.5-7.5v-202.499c0-4.135 3.364-7.5 7.5-7.5h189.501v135.553c0 12.406 10.093 22.5 22.5 22.5h50.498v51.947c0 4.136-3.365 7.5-7.5 7.5h-22.5v15h22.5c12.407 0 22.5-10.093 22.5-22.5v-51.947h81.871l85.13 68.105v-68.105h22.5c12.407 0 22.5-10.093 22.5-22.5v-202.5c0-12.407-10.094-22.5-22.5-22.5z"/><path d="m224.999 367.92h15v15h-15z"/><path d="m434.881 182.774 8.508 22.543 14.034-5.296-35.362-93.701-13.835.016-35.67 93.656 14.018 5.339 8.591-22.557zm-19.767-52.38 14.107 37.38h-28.344z"/><path d="m261.244 218.123h186.514v15h-186.514z"/><path d="m261.244 248.122h186.514v15h-186.514z"/><path d="m261.244 173.123h82.503v15h-82.503z"/><path d="m261.244 143.124h97.507v15h-97.507z"/><path d="m154.283 218.474h42.718v15h-42.718z"/><path d="m42.776 293.473h154.225v15h-154.225z"/><path d="m42.776 323.473h186.514v15h-186.514z"/><path d="m154.287 248.474h42.714v15h-42.714z"/><path d="m83.038 170.849v21.699h-42.33v15h18.253c5.413 12.423 13.138 24.7 22.938 36.535-6.273 5.534-14.624 12.084-26.387 21.31l9.257 11.803c9.515-7.462 18.132-15.285 25.769-23.362 7.637 8.078 16.254 15.9 25.769 23.362l9.257-11.803c-11.762-9.226-20.113-15.775-26.386-21.31 9.8-11.835 17.524-24.111 22.938-36.535h18.253v-15h-42.33v-21.699zm23.081 36.699c-5.229 13.174-8.789 20.503-15.58 28.1-6.792-7.597-10.351-14.926-15.581-28.1z"/></g></g></svg>