<?xml version="1.0" encoding="UTF-8" standalone="no"?>
<!-- Created with Inkscape (http://www.inkscape.org/) -->

<svg
   xmlns:dc="http://purl.org/dc/elements/1.1/"
   xmlns:cc="http://creativecommons.org/ns#"
   xmlns:rdf="http://www.w3.org/1999/02/22-rdf-syntax-ns#"
   xmlns:svg="http://www.w3.org/2000/svg"
   xmlns="http://www.w3.org/2000/svg"
   xmlns:sodipodi="http://sodipodi.sourceforge.net/DTD/sodipodi-0.dtd"
   xmlns:inkscape="http://www.inkscape.org/namespaces/inkscape"
   version="1.1"
   width="561.88599"
   height="124.14498"
   id="svg2"
   sodipodi:docname="caixa-logo.svg"
   inkscape:version="0.92.2 (5c3e80d, 2017-08-06)">
  <sodipodi:namedview
     pagecolor="#ffffff"
     bordercolor="#666666"
     borderopacity="1"
     objecttolerance="10"
     gridtolerance="10"
     guidetolerance="10"
     inkscape:pageopacity="0"
     inkscape:pageshadow="2"
     inkscape:window-width="1600"
     inkscape:window-height="837"
     id="namedview18"
     showgrid="false"
     inkscape:zoom="0.51077978"
     inkscape:cx="280.94299"
     inkscape:cy="62.072491"
     inkscape:window-x="-8"
     inkscape:window-y="-8"
     inkscape:window-maximized="1"
     inkscape:current-layer="svg2" />
  <defs
     id="defs4">
    <style
       type="text/css"
       id="style2989" />
  </defs>
  <metadata
     id="metadata7">
    <rdf:RDF>
      <cc:Work
         rdf:about="">
        <dc:format>image/svg+xml</dc:format>
        <dc:type
           rdf:resource="http://purl.org/dc/dcmitype/StillImage" />
        <dc:title />
      </cc:Work>
    </rdf:RDF>
  </metadata>
  <g
     transform="translate(-93.342716,-453.14683)"
     id="layer1">
    <g
       transform="matrix(3.543307,0,0,3.543307,12.61739,-17.622597)"
       id="g3014"
       style="fill-rule:evenodd">
      <g
         id="Camada_x0020_1">
        <metadata
           id="CorelCorpID_0Corel-Layer" />
        <path
           d="m 48.9129,153.875 c -7.8207,6.3047 -14.1724,1.8476 -13.441,-3.5224 0.6338,-4.6538 7.9195,-10.2519 14.4773,-3.3787 l 1.5875,-12.7222 c -11.3416,-3.669 -20.264,-0.0751 -26.7671,10.7817 -3.6852,8.6428 -2.2446,15.4338 4.3216,20.3729 4.3835,2.9211 10.2337,3.2739 17.5507,1.0584 l 2.271,-12.5897 z"
           id="path2993"
           style="fill:#016db8" />
        <path
           d="m 85.5802,167.743 -6.8792,-34.0432 -13.582,0 -16.9613,33.747 13.0648,0 1.4271,-4.1135 9.3486,0 0.5292,4.4097 13.0528,0 z m -15.0153,-22.644 0.5733,10.3188 -4.8948,0 3.7924,-10.3188 0.5291,0 z"
           id="path2995"
           style="fill:#016db8" />
        <polygon
           points="100.816,167.28 105.931,133.325 93.4958,133.325 88.3805,167.28 "
           id="polygon2997"
           style="fill:#016db8" />
        <polygon
           points="119.295,149.535 134.244,149.535 129.126,139.328 126.174,133.44 111.269,133.44 "
           id="polygon2999"
           style="fill:#016db8" />
        <polygon
           points="126.557,167.439 141.417,167.439 133.303,151.343 123.498,161.603 "
           id="polygon3001"
           style="fill:#016db8" />
        <path
           d="m 160.898,133.7 -17.0215,33.8668 13.0528,0.0882 1.4993,-4.3215 9.3486,0 0.5292,4.4097 13.0528,0 -6.8792,-34.0432 -13.582,0 z m 1.02,21.7041 3.7924,-10.3188 0.5291,0 0.5733,10.3188 -4.8948,0 z"
           id="path3003"
           style="fill:#016db8" />
        <polygon
           points="134.62,133.506 129.149,139.35 134.267,149.557 149.525,133.506 "
           id="polygon3005"
           style="fill:#f8a23d" />
        <polygon
           points="118.451,151.336 103.281,167.255 118.054,167.255 123.462,161.596 133.267,151.336 "
           id="polygon3007"
           style="fill:#f8a23d" />
      </g>
    </g>
  </g>
  <text
     xml:space="preserve"
     style="font-style:normal;font-weight:normal;font-size:40px;line-height:1.25;font-family:sans-serif;letter-spacing:0px;word-spacing:0px;fill:#000000;fill-opacity:1;stroke:none"
     x="178.15897"
     y="194.62544"
     id="text830"><tspan
       sodipodi:role="line"
       id="tspan828"
       x="178.15897"
       y="194.62544">logodownload.org</tspan></text>
</svg>
