<svg id="Flat" height="512" viewBox="0 0 512 512" width="512" xmlns="http://www.w3.org/2000/svg"><rect fill="#fbe9d8" height="288" rx="16" width="464" x="24" y="112"/><path d="m56 208h144v144h-144z" fill="#bfb1a3"/><path d="m104 304h48a48 48 0 0 1 48 48 0 0 0 0 1 0 0h-144a0 0 0 0 1 0 0 48 48 0 0 1 48-48z" fill="#a3d4f7"/><g fill="#bfb1a3"><path d="m40 112h432a16 16 0 0 1 16 16v32a0 0 0 0 1 0 0h-464a0 0 0 0 1 0 0v-32a16 16 0 0 1 16-16z"/><path d="m400 208h-112a8 8 0 0 1 0-16h112a8 8 0 0 1 0 16z"/><path d="m440 240h-192a8 8 0 0 1 0-16h192a8 8 0 0 1 0 16z"/><path d="m392 272h-144a8 8 0 0 1 0-16h144a8 8 0 0 1 0 16z"/><path d="m392 304h-144a8 8 0 0 1 0-16h144a8 8 0 0 1 0 16z"/><path d="m280 368a8 8 0 0 1 -8-8v-32a8 8 0 0 1 16 0v32a8 8 0 0 1 -8 8z"/><path d="m248 368a8 8 0 0 1 -8-8v-32a8 8 0 0 1 16 0v32a8 8 0 0 1 -8 8z"/><path d="m440 368a8 8 0 0 1 -8-8v-32a8 8 0 0 1 16 0v32a8 8 0 0 1 -8 8z"/><path d="m408 368a8 8 0 0 1 -8-8v-32a8 8 0 0 1 16 0v32a8 8 0 0 1 -8 8z"/><path d="m328 368a8 8 0 0 1 -8-8v-32a8 8 0 0 1 16 0v32a8 8 0 0 1 -8 8z"/><path d="m360 368a8 8 0 0 1 -8-8v-32a8 8 0 0 1 16 0v32a8 8 0 0 1 -8 8z"/></g><rect fill="#f7cca9" height="96" rx="40" width="80" x="88" y="208"/><path d="m128 208a40 40 0 0 0 -40 40h24c8 0 16-8 16-8s8 8 16 8h24a40 40 0 0 0 -40-40z" fill="#ad6643"/></svg>