<svg id="Layer_2" enable-background="new 0 0 512 512" height="512" viewBox="0 0 512 512" width="512" xmlns="http://www.w3.org/2000/svg"><g><g><path d="m256 333h164l82-129-86-90-160-42-160 42-86 90 82 129z" fill="#466089"/></g><g><path d="m256 72-160 42 75 219h85 85l75-219z" fill="#6e83b7"/></g><g><path d="m92 362s14 78 164 78 164-78 164-78v-29h-164-164z" fill="#6e83b7"/></g><g><path d="m256 278c103 0 164 29 164 29v55s-61-29-164-29-164 29-164 29v-55s61-29 164-29z" fill="#466089"/></g><g><path d="m420 315h12v38h-12z" fill="#ffe352"/></g><g><path d="m80 315h12v38h-12z" fill="#ffe352"/></g><g><path d="m350 142-19-25c-8 8-20 8-20 8-39 0-55-22-55-22s-16 22-55 22c0 0-12 0-20-8l-19 25c19 13 24 34 24 44 0 25-12 37-12 63 0 59 82 70 82 70s82-11 82-70c0-26-12-38-12-63 0-10 5-31 24-44z" fill="#ffe352"/></g><g><g><path d="m205.471 196h101.058c-.332-3.144-.529-6.46-.529-10 0-11.874 3.903-27.763 13.868-41.917-4.306.822-7.593.917-8.868.917-25.568 0-43.503-7.765-55-15.461-11.497 7.696-29.432 15.461-55 15.461-1.275 0-4.562-.095-8.868-.917 9.965 14.154 13.868 30.043 13.868 41.917 0 3.54-.197 6.856-.529 10z" fill="#ffb236"/></g><g><path d="m195.418 236c-.87 4.02-1.418 8.215-1.418 13 0 5.967 0 24.127 29.098 38.814 13.369 6.748 27.204 9.837 32.907 10.908 5.564-1.044 18.991-4.036 32.138-10.529 29.857-14.746 29.857-33.146 29.857-39.193 0-4.785-.548-8.98-1.418-13z" fill="#ffb236"/></g></g></g></svg>