<svg id="Layer_1" enable-background="new 0 0 256 256" height="512" viewBox="0 0 256 256" width="512" xmlns="http://www.w3.org/2000/svg"><path d="m161.867 136.453h-67.735c-6.801 0-12.315 5.514-12.315 12.315v22.533 4.481 64.566h92.365v-64.566-4.481-22.533c0-6.802-5.513-12.315-12.315-12.315z" fill="#6bdddd"/><path d="m174.183 242.349h-92.366c-1.104 0-2-.896-2-2v-91.581c0-7.893 6.422-14.315 14.315-14.315h67.734c7.894 0 14.315 6.422 14.315 14.315v91.581c.002 1.104-.894 2-1.998 2zm-90.366-4h88.365v-89.581c0-5.688-4.628-10.315-10.315-10.315h-67.734c-5.688 0-10.315 4.627-10.315 10.315v89.581z" fill="#3762cc"/><path d="m173.883 73.886c-.097 0-.191.012-.288.014v-4.263c0-24.921-20.414-45.123-45.595-45.123-25.182 0-45.595 20.202-45.595 45.123v4.263c-.097-.002-.191-.014-.288-.014-7.682 0-13.91 6.163-13.91 13.766s6.228 13.766 13.91 13.766c.505 0 1.002-.03 1.493-.082 4.705 19.962 22.787 34.837 44.391 34.837 21.604 0 39.686-14.875 44.391-34.837.491.052.988.082 1.493.082 7.682 0 13.91-6.163 13.91-13.766-.001-7.602-6.229-13.766-13.912-13.766z" fill="#f9cfcf"/><path d="m128 138.174c-21.669 0-40.317-14.207-45.926-34.755-8.754-.022-15.868-7.086-15.868-15.767 0-8.121 6.228-14.827 14.198-15.675v-2.34c0-25.983 21.352-47.123 47.596-47.123s47.596 21.139 47.596 47.123v2.34c7.971.849 14.198 7.555 14.198 15.675 0 8.681-7.115 15.745-15.869 15.767-5.609 20.548-24.257 34.755-45.925 34.755zm-44.39-38.837c.917 0 1.73.63 1.944 1.541 4.621 19.604 22.075 33.296 42.445 33.296s37.823-13.692 42.444-33.296c.229-.98 1.156-1.64 2.156-1.53.453.047.873.071 1.283.071 6.567 0 11.91-5.278 11.91-11.767 0-6.481-5.332-11.755-11.89-11.766-.115.008-.191.013-.269.014-.521.01-1.056-.195-1.439-.571-.385-.376-.601-.891-.601-1.428v-4.264c0-23.778-19.557-43.123-43.596-43.123s-43.593 19.345-43.593 43.123v4.264c0 .538-.216 1.052-.601 1.428-.384.376-.946.584-1.439.571-.079-.001-.157-.006-.235-.012-.001 0-.003 0-.004 0-6.579 0-11.919 5.277-11.919 11.764 0 6.488 5.343 11.767 11.91 11.767.41 0 .83-.023 1.282-.071.072-.008.142-.011.212-.011z" fill="#3762cc"/><path d="m136.669 116.804c-1.104 0-2-.896-2-2 0-.967-.428-1.91-1.238-2.725-.741-.747-1.76-1.331-2.945-1.691-.713-.216-1.528-.322-2.491-.322s-1.778.105-2.491.322c-1.186.36-2.204.945-2.945 1.691-.811.815-1.238 1.758-1.238 2.725 0 1.104-.896 2-2 2s-2-.896-2-2c0-2.018.853-3.986 2.4-5.544 1.206-1.214 2.804-2.147 4.621-2.699 1.095-.333 2.29-.495 3.653-.495s2.559.162 3.653.495c1.817.552 3.415 1.485 4.621 2.7 1.548 1.557 2.4 3.526 2.4 5.543 0 1.105-.896 2-2 2z" fill="#3762cc"/><path d="m67.424 57.913c-2.063-5.525-2.21-11.583-.416-17.201l.154-.483c2.934-9.191 10.664-16.037 20.142-17.84 4.474-.851 9.091-.526 13.401.943l.503.172c.029.261.073.523.137.784 2.07 8.46 5.869 16.257 11.031 22.957-4.48 12.482-9.962 19.598-14.141 23.538v.001l-5.485 5.567-10.635-2.466c-2.906 0-5.602.884-7.833 2.392z" fill="#4671c6"/><path d="m182.034 38.993c-3.578-11.1-11.748-19.92-22.196-24.269l.001-.006c-36.725-18.078-56.812 3.732-56.812 3.732-1.512 1.455-2.213 3.667-1.682 5.838 4.216 17.234 15.576 31.744 31.121 39.752l.022.011c3.356 1.729 6.86 3.14 10.468 4.217.897.268 1.621-.771 1.077-1.547l-7.551-10.776c-.658-.939.498-2.086 1.396-1.383 8.35 6.539 24.573 17.371 40.984 17.914l2.672-7.318c3.073-8.41 3.249-17.637.5-26.165z" fill="#4671c6"/><g fill="#3762cc"><path d="m92.752 78.352c-.15 0-.302-.017-.452-.052l-10.404-2.412c-2.328.042-4.569.748-6.492 2.047-.508.344-1.145.437-1.729.248-.584-.187-1.05-.631-1.265-1.205l-6.86-18.365c-2.209-5.918-2.368-12.491-.447-18.508l.154-.484c3.16-9.898 11.464-17.254 21.673-19.196 4.807-.912 9.793-.563 14.421 1.016l.502.171c.734.25 1.258.9 1.344 1.67.021.178.05.357.093.536 1.987 8.123 5.578 15.596 10.672 22.208.416.54.528 1.255.299 1.896-4.711 13.123-10.567 20.467-14.651 24.317l-5.432 5.517c-.381.386-.897.596-1.426.596zm-10.636-6.466c.152 0 .304.018.452.052l9.545 2.213 4.698-4.77c3.713-3.504 8.942-10.062 13.313-21.798-5.028-6.762-8.61-14.342-10.654-22.55-3.808-1.189-7.872-1.426-11.792-.679-8.767 1.667-15.897 7.983-18.61 16.483l-.154.484c-1.649 5.167-1.513 10.811.385 15.892l6.04 16.174c2.107-.987 4.412-1.501 6.777-1.501z"/><path d="m178.863 74.478c-.022 0-.045 0-.067-.001-14.105-.467-27.988-8.218-37.131-14.62l4.006 5.717c.736 1.05.728 2.456-.023 3.497-.753 1.043-2.031 1.483-3.263 1.115-3.721-1.11-7.358-2.576-10.813-4.356-16.095-8.291-27.813-23.254-32.169-41.065-.682-2.785.166-5.744 2.213-7.73 1.279-1.315 22.459-22.15 59.106-4.109.01.004.019.009.027.013 11.021 4.637 19.469 13.901 23.188 25.442 2.874 8.916 2.688 18.67-.523 27.465l-2.673 7.318c-.289.791-1.041 1.314-1.878 1.314zm-41.585-22.127c.643 0 1.288.211 1.833.638 7.81 6.115 22.982 16.323 38.379 17.415l2.166-5.931c2.907-7.962 3.076-16.793.475-24.867-3.376-10.474-11.052-18.87-21.061-23.035-.086-.036-.169-.078-.247-.124-34.763-17.037-53.546 2.521-54.328 3.362-.025.027-.055.057-.081.083-1.041 1.001-1.473 2.504-1.126 3.921 4.082 16.686 15.051 30.7 30.095 38.449 2.363 1.218 4.805 2.274 7.298 3.16l-5.836-8.328c-.866-1.236-.701-2.886.394-3.923.573-.544 1.304-.82 2.039-.82z"/><path d="m105.439 97.446c-2.884 0-5.229-2.342-5.229-5.221v-8.703c0-2.879 2.346-5.222 5.229-5.222s5.229 2.343 5.229 5.222v8.703c0 2.879-2.346 5.221-5.229 5.221z"/><path d="m150.539 97.446c-2.884 0-5.229-2.342-5.229-5.221v-8.703c0-2.879 2.346-5.222 5.229-5.222s5.229 2.343 5.229 5.222v8.703c-.001 2.879-2.346 5.221-5.229 5.221z"/><path d="m158.944 81.985c-.133 0-.267-.013-.401-.041l-16.509-3.368c-1.083-.221-1.781-1.277-1.561-2.359.221-1.083 1.278-1.785 2.359-1.56l16.509 3.368c1.083.221 1.781 1.277 1.561 2.359-.193.948-1.027 1.601-1.958 1.601z"/><path d="m97.044 81.985c-.931 0-1.765-.653-1.958-1.601-.221-1.083.478-2.139 1.561-2.359l16.509-3.368c1.076-.225 2.139.477 2.359 1.56.221 1.083-.478 2.139-1.561 2.359l-16.509 3.368c-.134.028-.268.041-.401.041z"/></g><path d="m110.469 178.068c-.876.155-1.781-.256-2.182-1.06l-5.507-11.01-2.374 2.934c-.42.519-1.081.807-1.757.768-.678-.039-1.287-.4-1.623-.964l-6.661-11.159c-.557-.934-.215-2.136.766-2.685.979-.549 2.227-.238 2.784.696l5.159 8.642 2.528-3.124c.436-.539 1.128-.828 1.83-.763s1.313.474 1.618 1.082l6.923 13.841c.485.971.054 2.148-.964 2.629-.175.084-.357.141-.54.173z" fill="#f9a7a7"/><path d="m145.53 178.068c.876.155 1.781-.256 2.182-1.06l5.507-11.01 2.374 2.934c.42.519 1.081.807 1.757.768.678-.039 1.287-.4 1.623-.964l6.661-11.159c.557-.934.215-2.136-.766-2.685-.979-.549-2.227-.238-2.784.696l-5.159 8.642-2.528-3.124c-.436-.539-1.128-.828-1.83-.763s-1.313.474-1.618 1.082l-6.923 13.841c-.485.971-.054 2.148.964 2.629.176.084.358.141.54.173z" fill="#f9a7a7"/><path d="m128.187 252.142c-20.686 0-37.515-16.829-37.515-37.514s16.829-37.514 37.515-37.514 37.514 16.829 37.514 37.514-16.829 37.514-37.514 37.514zm0-71.028c-18.48 0-33.515 15.034-33.515 33.514s15.034 33.514 33.515 33.514c18.479 0 33.514-15.034 33.514-33.514s-15.035-33.514-33.514-33.514z" fill="#f9a7a7"/><path d="m128.187 244.653c-16.556 0-30.025-13.469-30.025-30.025s13.47-30.024 30.025-30.024 30.024 13.469 30.024 30.024-13.469 30.025-30.024 30.025zm0-56.049c-14.351 0-26.025 11.674-26.025 26.024s11.675 26.025 26.025 26.025 26.024-11.675 26.024-26.025-11.675-26.024-26.024-26.024z" fill="#f9a7a7"/><path d="m128.186 236.854c-12.275 0-22.226-9.951-22.226-22.226 0-12.275 9.951-22.226 22.226-22.226 12.275 0 22.226 9.951 22.226 22.226.001 12.275-9.951 22.226-22.226 22.226z" fill="#f9a7a7"/><path d="m125.323 227.538 7.247-1.186v-7.465l-7.247 2.617z" fill="#f9cfcf"/><path d="m134.215 202.386c-1.091-.691-2.355-1.061-3.64-1.188l-8.146-.807c-3.279-.325-6.586-.218-9.838.319l-8.282 1.366-21.084-3.951-1.408-.264v-2.659l-23.246-16.277-12.191 17.41c-1.779 2.541-2.121 5.821-.903 8.675l5.446 12.763c.47 1.101 1.258 2.036 2.263 2.686l1.594 1.031 50.877 3.236c6.203 2.688 12.997 3.645 19.666 2.807v.004l.072-.012c.835-.107 1.667-.245 2.497-.408l4.679-.765v-.009c2.164-.281 3.931-2.012 4.155-4.276l1.201-12.123c.29-2.937-1.062-5.88-3.712-7.558z" fill="#f9cfcf"/><path d="m120.625 229.828c-5.29 0-10.545-1.058-15.439-3.126l-50.533-3.214c-.342-.022-.672-.131-.96-.317l-1.594-1.031c-1.344-.87-2.387-2.107-3.016-3.58l-5.446-12.763c-1.498-3.515-1.085-7.48 1.106-10.608l12.359-17.652c.635-.905 1.881-1.125 2.786-.491.904.633 1.124 1.88.491 2.785l-12.36 17.653c-1.394 1.989-1.656 4.51-.703 6.744l5.446 12.763c.314.737.836 1.356 1.509 1.792l1.156.748 50.355 3.203c.23.015.456.069.668.161 5.85 2.534 12.286 3.455 18.622 2.657.02-.002.039-.005.059-.006.004-.001.007-.001.01-.001.759-.097 1.532-.223 2.364-.387l4.555-.746c.082-.021.166-.038.252-.049 1.298-.168 2.294-1.192 2.423-2.49l1.2-12.124c.225-2.266-.845-4.439-2.791-5.671-.761-.482-1.692-.781-2.767-.888l-8.146-.807c-3.103-.307-6.238-.205-9.315.302l-8.282 1.366c-.229.038-.466.035-.693-.007l-32.467-6.083c-1.086-.204-1.801-1.249-1.598-2.334s1.25-1.802 2.334-1.598l32.121 6.019 7.935-1.308c3.423-.565 6.908-.677 10.36-.336l8.146.807c1.701.169 3.22.669 4.513 1.489 3.23 2.046 5.006 5.665 4.631 9.445l-1.2 12.124c-.306 3.084-2.621 5.534-5.665 6.029-.052.013-.104.023-.157.032l-4.679.765c-.858.17-1.719.311-2.567.418-.025.003-.051.006-.076.008-1.646.205-3.299.307-4.947.307z" fill="#3762cc"/><path d="m81.817 197.203c-.403 0-.805-.122-1.147-.362l-23.246-16.277c-.904-.633-1.124-1.88-.491-2.785l23.93-34.175c.572-.818 1.659-1.087 2.548-.635.888.454 1.307 1.492.981 2.435-.381 1.103-.574 2.234-.574 3.364v46.435c0 .746-.415 1.43-1.076 1.774-.292.151-.608.226-.925.226zm-20.461-18.769 18.461 12.927v-39.291z" fill="#3762cc"/><path d="m58.571 178.925 23.246 16.277v-19.42-4.481-22.533c0-1.403.239-2.748.673-4.003z" fill="#6bdddd"/><path d="m81.817 197.203c-.403 0-.805-.122-1.147-.362l-23.246-16.277c-.904-.633-1.124-1.88-.491-2.785l23.919-34.16c.572-.818 1.661-1.088 2.548-.634.889.454 1.308 1.493.98 2.436-.373 1.078-.563 2.204-.563 3.348v46.435c0 .746-.415 1.43-1.076 1.774-.291.15-.607.225-.924.225zm-20.461-18.769 18.461 12.927v-39.292z" fill="#3762cc"/><path d="m131.37 136.038c-.184.014-.368.03-.552.042-.286.017-.573.032-.86.045-.649.029-1.301.05-1.958.05s-1.309-.02-1.958-.05c-.288-.012-.574-.027-.86-.045-.184-.012-.367-.028-.55-.042-6.715-.486-13.027-2.401-18.618-5.457v5.239c0 12.181 9.527 22.056 21.279 22.056h1.415c11.752 0 21.279-9.875 21.279-22.056v-5.24c-5.591 3.057-11.903 4.972-18.617 5.458z" fill="#f9cfcf"/><path d="m174.183 242.349h-92.366c-1.104 0-2-.896-2-2v-91.581c0-7.894 6.422-14.315 14.315-14.315h9.88v-3.871c0-.706.372-1.36.979-1.72.608-.361 1.359-.374 1.979-.035 5.497 3.003 11.486 4.759 17.804 5.217l.533.04c.267.016.542.031.818.043 1.247.055 2.502.055 3.741 0 .279-.012.553-.026.826-.043l.518-.04c6.329-.458 12.318-2.214 17.815-5.218.619-.338 1.372-.326 1.979.035s.979 1.014.979 1.72v3.871h9.881c7.894 0 14.315 6.422 14.315 14.315v91.581c.004 1.105-.892 2.001-1.996 2.001zm-90.366-4h88.365v-89.581c0-5.688-4.628-10.315-10.315-10.315h-11.896c-.54 0-1.058-.218-1.434-.605-.377-.387-.581-.91-.565-1.45l.006-.191c.004-.128.009-.256.009-.385v-1.998c-5.171 2.377-10.697 3.791-16.472 4.209l-.57.043c-.303.019-.602.034-.902.047-1.35.06-2.733.06-4.089 0-.296-.013-.593-.029-.891-.046l-.585-.044c-5.768-.418-11.294-1.832-16.465-4.209v1.998c0 .129.005.257.009.385l.006.191c.016.54-.188 1.063-.565 1.45-.376.387-.894.605-1.434.605h-11.896c-5.688 0-10.315 4.627-10.315 10.315v89.581z" fill="#3762cc"/><path d="m134.215 202.386c-1.091-.691-2.355-1.061-3.64-1.188l-8.146-.807c-3.279-.325-6.586-.218-9.838.319l-8.282 1.366-21.084-3.951-1.408-.264v-2.659l-23.246-16.277-12.191 17.41c-1.779 2.541-2.121 5.821-.903 8.675l5.446 12.763c.47 1.101 1.258 2.036 2.263 2.686l1.594 1.031 50.877 3.236c6.203 2.688 12.997 3.645 19.666 2.807v.004l.072-.012c.835-.107 1.667-.245 2.497-.408l4.679-.765v-.009c2.164-.281 3.931-2.012 4.155-4.276l1.201-12.123c.29-2.937-1.062-5.88-3.712-7.558z" fill="#f9cfcf"/><path d="m120.625 229.828c-5.29 0-10.545-1.058-15.439-3.126l-50.533-3.214c-.342-.022-.672-.131-.96-.317l-1.594-1.031c-1.344-.87-2.387-2.107-3.016-3.58l-5.446-12.763c-1.498-3.515-1.085-7.48 1.106-10.608l12.359-17.652c.635-.905 1.881-1.125 2.786-.491.904.633 1.124 1.88.491 2.785l-12.36 17.653c-1.394 1.989-1.656 4.51-.703 6.744l5.446 12.763c.314.737.836 1.356 1.509 1.792l1.156.748 50.355 3.203c.23.015.456.069.668.161 5.85 2.534 12.286 3.455 18.622 2.657.02-.002.039-.005.059-.006.004-.001.007-.001.01-.001.759-.097 1.532-.223 2.364-.387l4.555-.746c.082-.021.166-.038.252-.049 1.298-.168 2.294-1.192 2.423-2.49l1.2-12.124c.225-2.266-.845-4.439-2.791-5.671-.761-.482-1.692-.781-2.767-.888l-8.146-.807c-3.103-.307-6.238-.205-9.315.302l-8.282 1.366c-.229.038-.466.035-.693-.007l-32.467-6.083c-1.086-.204-1.801-1.249-1.598-2.334s1.25-1.802 2.334-1.598l32.121 6.019 7.935-1.308c3.423-.565 6.908-.677 10.36-.336l8.146.807c1.701.169 3.22.669 4.513 1.489 3.23 2.046 5.006 5.665 4.631 9.445l-1.2 12.124c-.306 3.084-2.621 5.534-5.665 6.029-.052.013-.104.023-.157.032l-4.679.765c-.858.17-1.719.311-2.567.418-.025.003-.051.006-.076.008-1.646.205-3.299.307-4.947.307z" fill="#3762cc"/><path d="m81.817 197.203c-.403 0-.805-.122-1.147-.362l-23.246-16.277c-.904-.633-1.124-1.88-.491-2.785l23.93-34.175c.572-.818 1.659-1.087 2.548-.635.888.454 1.307 1.492.981 2.435-.381 1.103-.574 2.234-.574 3.364v46.435c0 .746-.415 1.43-1.076 1.774-.292.151-.608.226-.925.226zm-20.461-18.769 18.461 12.927v-39.291z" fill="#3762cc"/><path d="m58.571 178.925 23.246 16.277v-19.42-4.481-22.533c0-1.403.239-2.748.673-4.003z" fill="#6bdddd"/><path d="m81.817 197.203c-.403 0-.805-.122-1.147-.362l-23.246-16.277c-.904-.633-1.124-1.88-.491-2.785l23.919-34.16c.572-.818 1.661-1.088 2.548-.634.889.454 1.308 1.493.98 2.436-.373 1.078-.563 2.204-.563 3.348v46.435c0 .746-.415 1.43-1.076 1.774-.291.15-.607.225-.924.225zm-20.461-18.769 18.461 12.927v-39.292z" fill="#3762cc"/><path d="m121.785 202.386c1.091-.691 2.355-1.061 3.64-1.188l8.146-.807c3.279-.325 6.586-.218 9.838.319l8.282 1.366 21.084-3.951 1.408-.264v-2.659l23.246-16.277 12.191 17.41c1.779 2.541 2.121 5.821.904 8.675l-5.446 12.763c-.47 1.101-1.258 2.036-2.263 2.686l-1.594 1.031-50.877 3.236c-6.203 2.688-12.997 3.645-19.666 2.807v.004l-.072-.012c-.835-.107-1.667-.245-2.497-.408l-4.679-.765v-.009c-2.164-.281-3.931-2.012-4.155-4.276l-1.201-12.123c-.291-2.937 1.061-5.88 3.711-7.558z" fill="#f9cfcf"/><path d="m135.375 229.828c-1.607 0-3.216-.098-4.82-.294-.07-.004-.141-.012-.21-.024-.841-.108-1.701-.249-2.622-.43l-4.616-.754c-.053-.009-.106-.02-.158-.032-3.043-.496-5.358-2.945-5.664-6.029l-1.2-12.124c-.375-3.78 1.4-7.399 4.631-9.445 1.293-.819 2.812-1.319 4.513-1.488l8.146-.807c3.455-.341 6.939-.229 10.36.336l7.935 1.308 32.121-6.019c1.084-.204 2.131.512 2.334 1.598s-.512 2.13-1.598 2.334l-32.467 6.083c-.229.042-.465.045-.693.007l-8.282-1.366c-3.078-.507-6.214-.608-9.315-.302l-8.146.807c-1.074.106-2.006.405-2.767.887-1.946 1.232-3.016 3.405-2.791 5.671l1.2 12.124c.129 1.297 1.125 2.321 2.423 2.49.087.011.171.028.254.05l4.49.734c.895.175 1.668.301 2.427.398.003 0 .006 0 .01.001.02.001.039.004.059.006 6.335.795 12.773-.123 18.622-2.657.212-.092.438-.146.668-.161l50.355-3.203 1.155-.748c.674-.436 1.195-1.055 1.51-1.792l5.446-12.763c.953-2.233.69-4.754-.702-6.743l-12.363-17.651c-.633-.905-.413-2.152.491-2.785.907-.635 2.152-.412 2.786.491l12.36 17.653c2.19 3.127 2.604 7.093 1.105 10.607l-5.446 12.764c-.629 1.473-1.672 2.71-3.017 3.58l-1.593 1.031c-.288.186-.618.295-.96.317l-50.533 3.214c-4.892 2.069-10.148 3.126-15.438 3.126zm65.846-8.337h.01z" fill="#3762cc"/><path d="m174.183 197.203c-.316 0-.633-.075-.924-.226-.661-.344-1.076-1.028-1.076-1.774v-46.435c0-1.13-.193-2.262-.574-3.364-.325-.942.094-1.981.981-2.435.89-.451 1.976-.183 2.548.635l23.93 34.175c.633.905.413 2.152-.491 2.785l-23.246 16.277c-.344.24-.745.362-1.148.362zm2-45.133v39.291l18.461-12.927z" fill="#3762cc"/><path d="m197.429 178.925-23.246 16.277v-19.42-4.481-22.533c0-1.403-.239-2.748-.673-4.003z" fill="#6bdddd"/><path d="m174.183 197.203c-.316 0-.633-.075-.924-.226-.661-.344-1.076-1.028-1.076-1.774v-46.435c0-1.144-.189-2.27-.563-3.348-.327-.943.092-1.982.98-2.436.887-.453 1.976-.183 2.548.634l23.919 34.16c.633.905.413 2.152-.491 2.785l-23.246 16.277c-.343.241-.744.363-1.147.363zm2-45.134v39.292l18.461-12.927z" fill="#3762cc"/></svg>