<?xml version="1.0" encoding="iso-8859-1"?>
<!-- Generator: Adobe Illustrator 19.0.0, SVG Export Plug-In . SVG Version: 6.00 Build 0)  -->
<svg version="1.1" id="Capa_1" xmlns="http://www.w3.org/2000/svg" xmlns:xlink="http://www.w3.org/1999/xlink" x="0px" y="0px"
	 viewBox="0 0 512 512" style="enable-background:new 0 0 512 512;" xml:space="preserve">
<path style="fill:#0C4870;" d="M419.284,0h-30.905v512h30.905C470.278,512,512,470.278,512,419.284V92.716
	C512,41.722,470.278,0,419.284,0z"/>
<path style="fill:#0968A7;" d="M481.095,92.716v326.567c0,50.994-41.722,92.716-92.716,92.716H92.716
	C41.722,512,0,470.278,0,419.284V92.716C0,41.722,41.722,0,92.716,0h295.662C439.372,0,481.095,41.722,481.095,92.716z"/>
<polygon style="fill:#BFD2E0;" points="450.189,408.982 450.189,450.189 419.284,450.189 388.378,378.076 "/>
<g>
	<polygon style="fill:#DEF1FF;" points="419.284,378.076 419.284,450.189 280.209,450.189 280.209,408.982 	"/>
	<path style="fill:#DEF1FF;" d="M398.68,239.002h-30.905l51.509,169.98h30.905V290.511
		C450.189,262.181,427.01,239.002,398.68,239.002z"/>
	<polygon style="fill:#DEF1FF;" points="249.304,408.982 249.304,450.189 218.398,450.189 187.493,429.586 218.398,408.982 	"/>
</g>
<g>
	<rect x="61.811" y="252.394" style="fill:#FFFFFF;" width="30.905" height="156.588"/>
	<rect x="92.716" y="408.982" style="fill:#FFFFFF;" width="125.682" height="41.207"/>
	<path style="fill:#FFFFFF;" d="M419.284,290.511v118.471H280.209V290.511H151.437c-14.227,0-25.755-11.528-25.755-25.755
		c0-14.227,11.528-25.755,25.755-25.755h216.338C396.105,239.002,419.284,262.181,419.284,290.511z"/>
</g>
<polygon style="fill:#BFD2E0;" points="420.829,61.811 420.829,103.097 359.018,141.732 389.924,61.811 "/>
<g>
	<polygon style="fill:#DEF1FF;" points="389.924,61.811 389.924,141.732 309.569,110.827 309.569,61.811 	"/>
	<path style="fill:#DEF1FF;" d="M389.924,110.827l-24.724,97.27c30.72,0,55.63-24.91,55.63-55.63V118.55L389.924,110.827z"/>
</g>
<path style="fill:#FFFFFF;" d="M389.924,110.827v41.64c0,30.72-11.074,55.63-24.724,55.63c-30.72,0-55.63-24.91-55.63-55.63v-41.64
	H389.924z"/>
<path style="fill:#BFD2E0;" d="M258.06,103.097c-4.267,0-7.726,3.459-7.726,7.726s3.459,7.726,7.726,7.726h162.769v-15.453H258.06z"
	/>
<g>
</g>
<g>
</g>
<g>
</g>
<g>
</g>
<g>
</g>
<g>
</g>
<g>
</g>
<g>
</g>
<g>
</g>
<g>
</g>
<g>
</g>
<g>
</g>
<g>
</g>
<g>
</g>
<g>
</g>
</svg>
