<svg id="Layer_1" enable-background="new 0 0 256 256" height="512" viewBox="0 0 256 256" width="512" xmlns="http://www.w3.org/2000/svg"><path d="m77.5 190.977-7.75 57.023h13.914v-57.023z" fill="#f9cfcf"/><path d="m83.664 250h-13.914c-.577 0-1.127-.25-1.507-.685s-.553-1.013-.475-1.585l7.75-57.023c.135-.991.981-1.73 1.981-1.73h6.164c1.104 0 2 .896 2 2v57.023c.001 1.104-.894 2-1.999 2zm-11.624-4h9.624v-53.023h-2.418z" fill="#3762cc"/><path d="m180.153 190.977 7.75 57.023h-13.914v-57.023z" fill="#f9cfcf"/><path d="m187.903 250h-13.914c-1.104 0-2-.896-2-2v-57.023c0-1.104.896-2 2-2h6.164c1 0 1.847.739 1.981 1.73l7.75 57.023c.078.572-.095 1.15-.475 1.585-.379.435-.929.685-1.506.685zm-11.914-4h9.624l-7.206-53.023h-2.418z" fill="#3762cc"/><path d="m154.915 125.156h-52.277c-10.479 0-18.973 7.593-18.973 16.959v13.468 3.913 44.557 11.818 20.897h90.224v-20.897-11.818-44.557-3.913-13.468c-.001-9.366-8.496-16.959-18.974-16.959z" fill="#6bdddd"/><path d="m83.664 236.769h90.224v11.231h-90.224z" fill="#4671c6"/><path d="m170.581 67.965c-.088 0-.173.011-.261.013v-3.854c0-22.527-18.453-40.788-41.216-40.788-22.763 0-41.216 18.262-41.216 40.788v3.854c-.087-.002-.173-.013-.261-.013-6.945 0-12.574 5.571-12.574 12.444s5.63 12.444 12.574 12.444c.456 0 .906-.027 1.349-.074 4.253 18.045 20.598 31.491 40.127 31.491 19.529 0 35.874-13.446 40.127-31.491.444.047.893.074 1.349.074 6.945 0 12.574-5.571 12.574-12.444.002-6.872-5.628-12.444-12.572-12.444z" fill="#f9cfcf"/><path d="m129.104 126.27c-19.625 0-36.522-12.836-41.66-31.418-7.952-.098-14.391-6.539-14.391-14.443 0-7.381 5.616-13.487 12.835-14.342v-1.943c0-23.594 19.387-42.789 43.216-42.789s43.216 19.195 43.216 42.789v1.943c7.219.855 12.835 6.961 12.835 14.342 0 7.904-6.438 14.345-14.391 14.443-5.137 18.582-22.035 31.418-41.66 31.418zm-40.125-35.491c.917 0 1.73.63 1.944 1.541 4.156 17.634 19.856 29.95 38.181 29.95s34.024-12.316 38.181-29.95c.23-.98 1.155-1.639 2.156-1.53.394.042.776.063 1.14.063 5.831 0 10.574-4.685 10.574-10.444 0-5.751-4.731-10.431-10.551-10.444-.12.008-.202.01-.284.013-.524 0-1.028-.206-1.402-.574-.383-.376-.598-.89-.598-1.426v-3.854c0-21.388-17.592-38.789-39.216-38.789s-39.216 17.4-39.216 38.789v3.854c0 .536-.215 1.05-.598 1.426-.382.376-.908.603-1.436.574-.076-.001-.151-.005-.227-.011-.001 0-.003 0-.003 0-5.831 0-10.572 4.685-10.572 10.442 0 5.759 4.743 10.444 10.574 10.444.367 0 .74-.021 1.14-.063.073-.007.143-.011.213-.011z" fill="#3762cc"/><path d="m74.347 53.526c-1.865-4.994-1.998-10.47-.376-15.549l.139-.437c2.652-8.308 9.64-14.497 18.207-16.126 4.044-.769 8.218-.475 12.114.853l.455.155c.026.236.066.473.124.709 1.871 7.647 5.305 14.695 9.971 20.752-4.05 11.283-9.005 17.716-12.782 21.277v.001l-4.958 5.032-9.614-2.229c-2.627 0-5.064.799-7.081 2.162z" fill="#4671c6"/><path d="m177.949 36.424c-3.234-10.034-10.62-18.007-20.064-21.938l.001-.005c-33.198-16.342-51.355 3.374-51.355 3.374-1.367 1.315-2 3.315-1.52 5.277 3.811 15.578 14.079 28.695 28.131 35.933l.02.01c3.034 1.563 6.201 2.839 9.463 3.812.811.242 1.465-.697.974-1.398l-6.826-9.741c-.595-.849.45-1.885 1.262-1.25 7.548 5.91 22.213 15.702 37.048 16.193l2.416-6.615c2.775-7.603 2.934-15.944.45-23.652z" fill="#4671c6"/><path d="m97.242 72.194c-.15 0-.302-.017-.452-.052l-9.382-2.175c-2.059.042-4.04.667-5.741 1.817-.508.344-1.145.436-1.729.248-.584-.187-1.05-.631-1.265-1.205l-6.199-16.602c-2.013-5.39-2.157-11.376-.408-16.857l.14-.438c2.878-9.014 10.441-15.713 19.738-17.481 4.378-.832 8.919-.512 13.134.924l.455.155c.733.25 1.256.901 1.342 1.671.018.152.043.305.079.457 1.792 7.322 5.026 14.053 9.613 20.005.416.54.528 1.255.299 1.896-4.271 11.899-9.586 18.562-13.293 22.057l-4.905 4.982c-.381.388-.897.598-1.426.598zm-9.614-6.229c.152 0 .304.018.452.052l8.523 1.976 4.171-4.235c3.337-3.147 8.024-9.023 11.955-19.539-4.506-6.081-7.724-12.891-9.575-20.263-3.381-1.038-6.986-1.239-10.463-.576-7.854 1.494-14.244 7.153-16.676 14.77l-.14.438c-1.478 4.629-1.355 9.687.346 14.24l5.387 14.427c1.88-.849 3.923-1.29 6.02-1.29z" fill="#3762cc"/><path d="m175.081 68.692c-.021 0-.044 0-.066-.001-12.351-.409-24.503-6.967-32.784-12.639l3.005 4.289c.713 1.016.704 2.376-.022 3.383-.729 1.011-1.969 1.435-3.161 1.08-3.371-1.006-6.671-2.335-9.806-3.951-14.6-7.52-25.227-21.092-29.178-37.246-.633-2.583.154-5.328 2.054-7.171 1.231-1.263 20.463-20.084 53.647-3.749.007.003.014.007.021.011 10.011 4.214 17.683 12.631 21.061 23.113 2.61 8.1 2.441 16.961-.476 24.952l-2.416 6.615c-.289.791-1.041 1.314-1.879 1.314zm-37.59-20.386c.622 0 1.247.204 1.775.617 7.019 5.496 20.627 14.657 34.443 15.692l1.908-5.225c2.614-7.158 2.766-15.097.427-22.354-3.034-9.414-9.934-16.96-18.929-20.704-.084-.035-.165-.076-.242-.121-31.41-15.389-48.7 2.812-48.872 2.998-.027.03-.056.059-.084.086-.893.858-1.262 2.146-.965 3.36 3.677 15.029 13.556 27.651 27.104 34.631 1.949 1.004 3.957 1.886 6.004 2.64l-4.927-7.031c-.838-1.195-.679-2.791.379-3.795.557-.526 1.266-.794 1.979-.794z" fill="#3762cc"/><path d="m132.151 124.147c-.166.013-.332.027-.499.038-.259.016-.518.029-.777.04-.587.026-1.176.045-1.77.045s-1.183-.018-1.77-.045c-.26-.011-.519-.025-.778-.04-.166-.011-.332-.025-.497-.038-6.07-.44-11.776-2.17-16.83-4.932v4.736c0 11.011 8.612 19.937 19.235 19.937h1.279c10.623 0 19.236-8.926 19.236-19.937v-4.736c-5.055 2.762-10.76 4.493-16.829 4.932z" fill="#f9cfcf"/><path d="m173.888 238.769h-90.224c-1.104 0-2-.896-2-2v-94.653c0-10.454 9.409-18.959 20.974-18.959h4.592v-3.941c0-.706.372-1.36.979-1.72.607-.361 1.36-.374 1.979-.035 4.942 2.702 10.331 4.281 16.016 4.693l.481.037c.239.014.486.027.734.038 1.123.05 2.251.05 3.364 0 .251-.011.497-.023.743-.039l.471-.036c5.69-.413 11.079-1.991 16.022-4.693.62-.338 1.372-.326 1.979.035s.979 1.014.979 1.72v3.941h3.936c11.564 0 20.973 8.505 20.973 18.959v94.653c.002 1.104-.894 2-1.998 2zm-88.224-4h86.224v-92.653c0-8.249-7.614-14.959-16.973-14.959h-5.994c-.55 0-1.075-.227-1.453-.626s-.574-.937-.544-1.486l.021-.349c.017-.247.034-.494.034-.745v-1.507c-4.616 2.083-9.542 3.325-14.685 3.698l-.516.039c-.275.017-.547.031-.819.042-1.227.056-2.479.056-3.716 0-.268-.012-.538-.026-.808-.042l-.53-.04c-5.137-.372-10.062-1.614-14.677-3.697v1.507c0 .251.018.498.034.745l.021.349c.03.549-.166 1.086-.544 1.486s-.903.626-1.453.626h-6.65c-9.359 0-16.974 6.711-16.974 14.959v92.653z" fill="#3762cc"/><path d="m173.888 250h-90.224c-1.104 0-2-.896-2-2v-11.231c0-1.104.896-2 2-2h90.224c1.104 0 2 .896 2 2v11.231c0 1.104-.896 2-2 2zm-88.224-4h86.224v-7.231h-86.224z" fill="#3762cc"/><path d="m128 246.392c-2.209 0-4-2.108-4-4.707v-4.491h-22.462c-4.708 0-8.538-4.766-8.538-10.625s3.83-10.626 8.538-10.626h52.687c.309 0 .775-.607.775-1.521s-.467-1.522-.775-1.522h-52.145c-5.007 0-9.08-5.083-9.08-11.332s4.073-11.332 9.08-11.332h51.858c.501 0 1.062-.81 1.062-1.894s-.561-1.894-1.062-1.894h-25.236c-3.559 0-6.453-3.547-6.453-7.907v-7.441c0-2.599 1.791-4.707 4-4.707s4 2.108 4 4.707v5.934h23.689c4.996 0 9.062 5.073 9.062 11.308s-4.065 11.308-9.062 11.308h-51.858c-.51 0-1.08.82-1.08 1.918s.57 1.918 1.08 1.918h52.145c4.839 0 8.775 4.906 8.775 10.936s-3.937 10.935-8.775 10.935h-52.687c-.164 0-.538.458-.538 1.212s.374 1.211.538 1.211h24.009c3.559 0 6.453 3.547 6.453 7.907v5.999c0 2.598-1.791 4.706-4 4.706z" fill="#f9cfcf"/><path d="m154.225 203.485h-52.145c-.51 0-1.08-.82-1.08-1.919 0-1.097.57-1.918 1.08-1.918h43.587v-9.414h-43.587c-5.007 0-9.08 5.084-9.08 11.332s4.073 11.332 9.08 11.332h52.145c.309 0 .775.607.775 1.522s-.467 1.521-.775 1.521h-26.225v9.414h26.225c4.839 0 8.775-4.906 8.775-10.935s-3.937-10.935-8.775-10.935z" fill="#f9a7a7"/><path d="m128 248.392c-3.309 0-6-3.009-6-6.707v-2.491h-20.462c-5.811 0-10.538-5.664-10.538-12.625 0-5.873 3.364-10.822 7.905-12.227-4.567-1.646-7.905-6.75-7.905-12.774 0-7.351 4.971-13.332 11.08-13.332h24.883c-3.83-.943-6.714-4.932-6.714-9.696v-7.441c0-3.698 2.691-6.707 6-6.707s6 3.009 6 6.707v3.934h21.689c6.1 0 11.062 5.97 11.062 13.308 0 6.785-4.242 12.399-9.702 13.208 5.439.648 9.702 6.174 9.702 12.873 0 7.132-4.834 12.935-10.775 12.935h-24.106c2.334 1.765 3.882 4.839 3.882 8.33v5.999c-.001 3.697-2.692 6.706-6.001 6.706zm-26.462-30.449c-3.605 0-6.538 3.869-6.538 8.625s2.933 8.625 6.538 8.625h22.462c1.104 0 2 .896 2 2v4.491c0 1.467.916 2.707 2 2.707s2-1.24 2-2.707v-5.999c0-3.202-2.039-5.907-4.453-5.907h-24.009c-1.423 0-2.538-1.411-2.538-3.211 0-1.801 1.115-3.212 2.538-3.212h52.687c3.736 0 6.775-4.008 6.775-8.935s-3.039-8.936-6.775-8.936h-52.145c-1.728 0-3.08-1.721-3.08-3.918s1.353-3.918 3.08-3.918h51.858c3.894 0 7.062-4.176 7.062-9.308s-3.168-9.308-7.062-9.308h-23.689c-1.104 0-2-.896-2-2v-5.934c0-1.467-.916-2.707-2-2.707s-2 1.24-2 2.707v7.441c0 3.202 2.039 5.907 4.453 5.907h25.236c1.717 0 3.062 1.71 3.062 3.895s-1.345 3.895-3.062 3.895h-51.858c-3.904 0-7.08 4.187-7.08 9.332s3.176 9.332 7.08 9.332h52.145c1.557 0 2.775 1.547 2.775 3.522s-1.219 3.521-2.775 3.521z" fill="#3762cc"/><path d="m169.532 218.359c.876.155 1.781-.256 2.182-1.06l5.507-11.01 2.374 2.934c.42.519 1.081.807 1.757.768.678-.039 1.287-.4 1.623-.964l6.661-11.159c.557-.934.215-2.136-.766-2.685-.979-.549-2.227-.238-2.784.696l-5.159 8.642-2.528-3.124c-.436-.539-1.128-.828-1.83-.763s-1.313.474-1.618 1.082l-6.923 13.841c-.485.971-.054 2.148.964 2.629.175.084.357.141.54.173z" fill="#f9a7a7"/><path d="m85.7 218.359c-.876.155-1.781-.256-2.182-1.06l-5.507-11.01-2.374 2.934c-.42.519-1.081.807-1.757.768-.678-.039-1.287-.4-1.623-.964l-6.661-11.159c-.557-.934-.215-2.136.766-2.685.979-.549 2.227-.238 2.784.696l5.159 8.642 2.528-3.124c.436-.539 1.128-.828 1.83-.763s1.313.474 1.618 1.082l6.923 13.841c.485.971.054 2.148-.964 2.629-.175.084-.357.141-.54.173z" fill="#f9a7a7"/><g fill="#3762cc"><path d="m102.856 91.3c-.728 0-1.428-.397-1.782-1.089-.503-.983-.114-2.188.868-2.692l8.824-4.52-8.824-4.52c-.982-.504-1.371-1.709-.868-2.692.505-.983 1.71-1.372 2.692-.869l10.174 5.211c1.11.57 1.799 1.669 1.799 2.869s-.688 2.299-1.798 2.869l-10.175 5.211c-.291.151-.603.222-.91.222zm9.259-7.609h.011z"/><path d="m155.353 91.3c-.307 0-.618-.071-.91-.22l-10.174-5.211c-1.11-.57-1.799-1.669-1.799-2.869s.688-2.299 1.798-2.869l10.175-5.211c.985-.504 2.189-.113 2.692.869.503.983.114 2.188-.868 2.692l-8.825 4.519 8.824 4.52c.982.504 1.371 1.709.868 2.692-.354.691-1.055 1.088-1.781 1.088z"/><path d="m137.1 105.75c-1.803 0-2.674-1.304-3.249-2.167-.393-.587-.584-.833-.756-.833-.169 0-.36.245-.751.832-.575.864-1.444 2.168-3.247 2.168s-2.672-1.305-3.247-2.168c-.781-1.173-.72-1.173-1.501 0-.575.863-1.444 2.168-3.246 2.168-1.803 0-2.672-1.305-3.247-2.168-.391-.586-.582-.832-.751-.832-.828 0-1.5-.671-1.5-1.5s.672-1.5 1.5-1.5c1.803 0 2.672 1.305 3.247 2.168.781 1.173.72 1.173 1.501 0 .575-.863 1.444-2.168 3.247-2.168 1.802 0 2.671 1.305 3.246 2.168.781 1.174.721 1.173 1.502 0 .575-.864 1.444-2.168 3.247-2.168 1.804 0 2.675 1.304 3.251 2.167.783 1.174.725 1.174 1.508 0 .576-.863 1.447-2.167 3.251-2.167.828 0 1.5.671 1.5 1.5s-.672 1.5-1.5 1.5c-.172 0-.363.246-.756.833-.576.863-1.447 2.167-3.249 2.167z"/></g><path d="m182.505 144.116c-1.104 0-2-.896-2-2 0-.318-.561-1.074-.932-1.574-.614-.828-1.31-1.767-1.573-2.92-.269-1.18-.047-2.346.149-3.375.107-.563.287-1.505.162-1.765-.126-.265-.972-.72-1.478-.992-.927-.499-1.979-1.064-2.722-2.026-.741-.959-1.02-2.12-1.264-3.144-.144-.597-.359-1.5-.592-1.701-.217-.188-1.164-.274-1.729-.326-1.065-.098-2.273-.208-3.351-.824-1.06-.606-1.757-1.582-2.372-2.443-.358-.501-.899-1.258-1.199-1.362-1.044-.36-1.599-1.499-1.238-2.543s1.502-1.599 2.543-1.238c1.507.52 2.417 1.793 3.148 2.817.358.501.805 1.125 1.104 1.296.322.185 1.07.253 1.731.313 1.242.114 2.788.256 3.977 1.281 1.21 1.044 1.575 2.572 1.868 3.799.151.632.323 1.348.539 1.628.224.289.876.64 1.452.95 1.114.6 2.502 1.346 3.191 2.79.69 1.444.396 2.994.158 4.238-.123.644-.262 1.373-.179 1.736.076.334.507.915.886 1.427.766 1.032 1.719 2.317 1.719 3.957.002 1.105-.894 2.001-1.998 2.001z" fill="#a4c9ff"/><path d="m75.495 144.116c-1.104 0-2-.896-2-2 0-.388-.301-1.076-.565-1.683-.505-1.157-1.134-2.596-.78-4.145.36-1.58 1.565-2.616 2.534-3.448.49-.421 1.046-.898 1.199-1.22.156-.327.178-1.065.196-1.716.035-1.265.08-2.84 1.06-4.108.968-1.252 2.466-1.695 3.67-2.051.632-.188 1.349-.399 1.629-.641.264-.228.571-.896.843-1.486.526-1.144 1.181-2.567 2.564-3.359 1.354-.773 2.895-.623 4.128-.501.665.065 1.414.139 1.77.016 1.045-.361 2.183.195 2.543 1.238.36 1.044-.194 2.183-1.238 2.543-1.181.407-2.394.288-3.465.183-.563-.054-1.505-.148-1.752-.006-.271.155-.659.999-.916 1.558-.441.96-.942 2.048-1.864 2.843-.932.804-2.087 1.146-3.106 1.447-.547.162-1.462.433-1.64.662-.183.237-.209 1.163-.227 1.776-.029 1.048-.063 2.236-.585 3.327-.517 1.081-1.412 1.85-2.201 2.528-.468.402-1.174 1.009-1.241 1.304-.061.266.318 1.135.546 1.655.422.966.899 2.061.899 3.284-.001 1.104-.896 2-2.001 2z" fill="#a4c9ff"/><path d="m83.664 159.496v-3.913-13.468c0-.484.037-.96.081-1.434l-10.654 50.296h10.573z" fill="#6bdddd"/><path d="m83.664 192.978h-10.572c-.604 0-1.174-.272-1.554-.741s-.528-1.083-.403-1.674l10.653-50.296c.22-1.037 1.204-1.72 2.257-1.563 1.048.159 1.789 1.107 1.691 2.162-.038.413-.072.828-.072 1.25v48.862c0 1.104-.895 2-2 2zm-8.104-4h6.104v-28.819z" fill="#3762cc"/><path d="m173.888 142.116v13.468 3.913 31.481h10.674l-10.75-50.75-.049-.007c.077.623.125 1.253.125 1.895z" fill="#6bdddd"/><path d="m184.562 192.978h-10.674c-1.104 0-2-.896-2-2v-48.862c0-.513-.036-1.052-.109-1.649-.077-.617.138-1.235.581-1.671s1.063-.643 1.681-.555c.834.117 1.554.75 1.729 1.573l10.75 50.75c.125.59-.023 1.205-.403 1.674s-.952.74-1.555.74zm-8.674-4h6.206l-6.206-29.297z" fill="#3762cc"/><path d="m169.532 198.359c.876.155 1.781-.256 2.182-1.06l5.507-11.01 2.374 2.934c.42.519 1.081.807 1.757.768.678-.039 1.287-.4 1.623-.964l6.661-11.159c.557-.934.215-2.136-.766-2.685-.979-.549-2.227-.238-2.784.696l-5.159 8.642-2.528-3.124c-.436-.539-1.128-.828-1.83-.763s-1.313.474-1.618 1.082l-6.923 13.841c-.485.971-.054 2.148.964 2.629.175.084.357.141.54.173z" fill="#f9a7a7"/><path d="m85.7 198.359c-.876.155-1.781-.256-2.182-1.06l-5.507-11.01-2.374 2.934c-.42.519-1.081.807-1.757.768-.678-.039-1.287-.4-1.623-.964l-6.661-11.159c-.557-.934-.215-2.136.766-2.685.979-.549 2.227-.238 2.784.696l5.159 8.642 2.528-3.124c.436-.539 1.128-.828 1.83-.763s1.313.474 1.618 1.082l6.923 13.841c.485.971.054 2.148-.964 2.629-.175.084-.357.141-.54.173z" fill="#f9a7a7"/></svg>