<svg id="Layer_1" enable-background="new 0 0 256 256" height="512" viewBox="0 0 256 256" width="512" xmlns="http://www.w3.org/2000/svg"><path d="m159.681 233.895h-37c-4.567 0-9.002-.527-13.261-1.493v11.685c0 2.094 1.697 3.791 3.791 3.791h66.324c2.094 0 3.791-1.697 3.791-3.791v-14.578c-7.309 2.819-15.284 4.386-23.645 4.386z" fill="#f9cfcf"/><path d="m159.681 47.42h-37c-31.676 0-57.355 24.607-57.355 54.961v42.153c0 2.029-1.717 3.674-3.834 3.674-5.602 0-10.605 3.925-11.137 9.269-.61 6.13 4.404 11.288 10.675 11.288h4.296v10.169c0 30.354 25.679 54.961 57.355 54.961h37c34.999 0 63.37-27.188 63.37-60.726v-65.023c.001-33.538-28.371-60.726-63.37-60.726z" fill="#f9cfcf"/><path d="m159.682 235.895h-37.001c-32.729 0-59.354-25.553-59.354-56.961v-8.168h-2.297c-3.674 0-7.168-1.532-9.587-4.203-2.325-2.568-3.418-5.865-3.078-9.283.618-6.208 6.385-11.07 13.127-11.07 1.012 0 1.834-.751 1.834-1.674v-42.154c0-31.408 26.626-56.96 59.354-56.96h37c17.445 0 33.851 6.514 46.194 18.342 12.366 11.851 19.177 27.612 19.177 44.384v65.022c.001 34.586-29.324 62.725-65.369 62.725zm-37.001-186.474c-30.522 0-55.354 23.758-55.354 52.96v42.154c0 3.129-2.617 5.674-5.834 5.674-4.712 0-8.729 3.28-9.146 7.467-.227 2.279.506 4.481 2.063 6.202 1.661 1.835 4.075 2.888 6.621 2.888h4.296c1.104 0 2 .896 2 2v10.168c0 29.203 24.832 52.961 55.354 52.961h37.001c33.84 0 61.37-26.344 61.37-58.726v-65.022c0-15.67-6.373-30.407-17.944-41.496-11.596-11.111-27.018-17.229-43.427-17.229h-37z" fill="#3762cc"/><path d="m113.896 144.7c-.494 0-.994-.104-1.472-.326l-25.101-11.65c-1.136-.527-1.904-1.622-2.013-2.87-.109-1.247.456-2.459 1.484-3.175l22.696-15.832c1.584-1.106 3.768-.718 4.872.868 1.106 1.585.718 3.767-.868 4.872l-17.703 12.35 19.579 9.088c1.753.813 2.515 2.895 1.701 4.648-.592 1.276-1.855 2.027-3.175 2.027z" fill="#3762cc"/><path d="m89.05 202.448c-.671 0-1.325-.337-1.703-.949l-1.007-1.63c-3.231-5.23-8.421-8.354-13.882-8.354h-6.065c-1.104 0-2-.896-2-2s.896-2 2-2h6.065c6.858 0 13.32 3.832 17.284 10.252l1.007 1.63c.581.939.29 2.172-.65 2.752-.328.204-.691.299-1.049.299z" fill="#3762cc"/><path d="m179.535 249.877h-66.324c-3.193 0-5.791-2.598-5.791-5.79v-11.686c0-.608.276-1.184.752-1.563.476-.38 1.098-.521 1.69-.388 4.22.958 8.532 1.443 12.818 1.443h37.001c7.898 0 15.611-1.431 22.924-4.252.613-.237 1.307-.155 1.852.217.543.373.868.99.868 1.649v14.578c0 3.194-2.597 5.792-5.79 5.792zm-68.115-15.022v9.231c0 .987.804 1.79 1.791 1.79h66.324c.987 0 1.79-.803 1.79-1.79v-11.729c-6.957 2.348-14.224 3.536-21.644 3.536h-37.001c-3.758.002-7.535-.347-11.26-1.038z" fill="#3762cc"/><path d="m248.431 104.135c0-45.911-37.768-83.128-84.358-83.128h-19.683-5.558s-63.205-7.327-96.109 45.981c-.854 1.383.161 3.162 1.804 3.162h12.018s-13.719 8.77-15.385 26.351c-.12 1.271 1.054 2.287 2.3 2.009 10.681-2.39 54.51-10.843 97.174.438 2.207.584 3.755 2.568 3.755 4.851v11.534c16.077.074 29.086 12.582 29.086 28.005 0 15.369-12.919 27.84-28.917 28.001l10.506 31.509c.798 2.394 2.394 4.433 4.506 5.802.69.448 1.447.784 2.217 1.075l27.624 10.434c.553.209 1.118.363 1.686.488l.001.007 5.103 2.147s9.337-6.539 15.997-13.117l-.013-.003c6.697-5.978 12.496-12.885 17.187-20.53l-.013.001c11.965-15.928 19.07-35.708 19.07-57.159v-27.858z" fill="#4671c6"/><path d="m196.203 224.8c-.263 0-.526-.052-.775-.156l-4.979-2.095c-.633-.146-1.205-.317-1.742-.521l-27.625-10.434c-1.047-.395-1.873-.798-2.597-1.267-2.495-1.617-4.383-4.049-5.316-6.848l-10.506-31.509c-.202-.606-.103-1.273.27-1.794.371-.521.969-.832 1.607-.839 14.854-.149 26.938-11.813 26.938-26.001 0-14.271-12.155-25.937-27.096-26.006-1.102-.005-1.991-.899-1.991-2v-11.533c0-1.365-.932-2.564-2.266-2.917-41.727-11.033-84.202-3.112-96.227-.42-1.212.272-2.495-.058-3.429-.882-.93-.818-1.415-2.04-1.299-3.268 1.125-11.873 7.375-19.885 11.805-24.162h-6.446c-1.493 0-2.872-.808-3.597-2.107-.727-1.303-.692-2.838.091-4.106 17.354-28.114 43.089-39.376 61.623-43.873 19.348-4.694 34.679-3.23 36.298-3.056h25.13c47.617 0 86.357 38.188 86.357 85.128v27.858c0 21.154-6.689 41.272-19.347 58.194-.002.003-.004.006-.005.009-4.735 7.718-10.589 14.726-17.399 20.832-.023.026-.049.052-.074.077-6.703 6.621-15.868 13.061-16.255 13.332-.342.241-.744.364-1.148.364zm-4.179-5.927 3.924 1.65c2.449-1.771 9.437-6.952 14.696-12.115.064-.077.135-.151.211-.22 6.537-5.834 12.156-12.531 16.707-19.908.055-.115.121-.225.2-.329 12.213-16.258 18.668-35.607 18.668-55.957v-27.858c0-44.734-36.945-81.128-82.357-81.128h-25.241c-.076 0-.153-.005-.229-.014-.155-.018-15.79-1.733-35.152 2.99-17.76 4.333-42.416 15.146-59.025 42.055l.103.111h12.018c.889 0 1.67.586 1.92 1.438.249.854-.094 1.769-.843 2.247-.126.08-12.857 8.465-14.459 24.731 12.229-2.772 55.438-10.804 97.982.447 3.087.815 5.243 3.605 5.243 6.784v9.603c16.213 1.064 29.087 14.112 29.087 29.937 0 15.495-12.415 28.38-28.188 29.86l9.675 29.017c.647 1.942 1.96 3.631 3.696 4.756.478.31 1.061.59 1.834.882l27.626 10.434c.415.157.876.29 1.406.405.176.039.343.101.498.182z" fill="#3762cc"/><g fill="#f9a7a7"><path d="m80.994 120.166h-15.41c-18.069 0-32.771-14.702-32.771-32.772 0-18.069 14.701-32.771 32.771-32.771h15.41c18.07 0 32.771 14.701 32.771 32.771.001 18.07-14.701 32.772-32.771 32.772zm-15.41-61.543c-15.864 0-28.771 12.906-28.771 28.771s12.906 28.772 28.771 28.772h15.41c15.864 0 28.771-12.907 28.771-28.772 0-15.864-12.907-28.771-28.771-28.771z"/><path d="m80.994 111.163h-15.41c-13.105 0-23.768-10.663-23.768-23.77 0-13.105 10.662-23.768 23.768-23.768h15.41c13.106 0 23.769 10.662 23.769 23.768 0 13.107-10.662 23.77-23.769 23.77zm-15.41-43.537c-10.899 0-19.768 8.868-19.768 19.768 0 10.901 8.868 19.77 19.768 19.77h15.41c10.9 0 19.769-8.868 19.769-19.77 0-10.899-8.868-19.768-19.769-19.768z"/><path d="m81.016 101.098h-15.453c-7.568 0-13.704-6.135-13.704-13.704 0-7.568 6.135-13.704 13.704-13.704h15.453c7.568 0 13.704 6.135 13.704 13.704-.001 7.569-6.136 13.704-13.704 13.704z"/><path d="m33.923 104.458c.162.92-.269 1.87-1.112 2.291l-11.56 5.782 3.08 2.492c.545.441.848 1.135.807 1.845-.041.712-.42 1.351-1.012 1.704l-11.717 6.994c-.981.585-2.243.226-2.82-.804-.577-1.028-.249-2.338.731-2.923l9.074-5.417-3.28-2.654c-.566-.458-.869-1.184-.801-1.922.068-.737.498-1.379 1.136-1.698l14.533-7.269c1.019-.51 2.255-.057 2.76 1.012.087.185.147.375.181.567z"/><path d="m33.923 70.33c.162-.92-.269-1.87-1.112-2.291l-11.56-5.782 3.08-2.492c.545-.441.848-1.135.807-1.845-.041-.712-.42-1.351-1.012-1.704l-11.717-6.994c-.981-.585-2.243-.226-2.82.804-.577 1.028-.249 2.338.731 2.923l9.074 5.417-3.28 2.654c-.566.458-.869 1.184-.801 1.922.068.737.498 1.379 1.136 1.698l14.533 7.269c1.019.51 2.255.057 2.76-1.012.087-.184.147-.375.181-.567z"/></g></svg>