<svg id="Capa_1" enable-background="new 0 0 512 512" height="512" viewBox="0 0 512 512" width="512" xmlns="http://www.w3.org/2000/svg"><g><g><path d="m10 302h120v200h-120z" fill="#8690a6"/><path d="m382 302h120v200h-120z" fill="#8690a6"/><path d="m422 422h40v40h-40z" fill="#eefaff"/><path d="m422 342h40v40h-40z" fill="#eefaff"/><path d="m376 10-40 40 40 40h-120v-80z" fill="#ff7b79"/><path d="m256 136c-62.49 0-113.83 47.77-119.48 108.79h238.96c-5.65-61.02-56.99-108.79-119.48-108.79z" fill="#ffda8f"/><path d="m276 302h66v160h-66z" fill="#ffda8f"/><path d="m170 302h66v160h-66z" fill="#ffda8f"/><g fill="#eefaff"><path d="m422 302v-46c-15.706-3.785-150.03-36.152-166-40-15.854 3.82-150.321 36.222-166 40v46h40v160h-40v40h332v-40h-40v-160zm-252 160v-160h66v160zm172 0h-66v-160h66z"/><path d="m50 422h40v40h-40z"/><path d="m50 342h40v40h-40z"/></g></g><g><path d="m502 292h-70v-36c0-4.62-3.166-8.64-7.657-9.722l-39.78-9.585c-8.864-59.485-57.868-105.659-118.563-110.304v-26.389h110c4.044 0 7.691-2.437 9.239-6.173 1.548-3.737.692-8.038-2.167-10.898l-32.93-32.929 32.929-32.929c2.86-2.86 3.715-7.161 2.167-10.898-1.547-3.736-5.194-6.173-9.238-6.173h-120c-5.523 0-10 4.478-10 10v116.389c-60.69 4.645-109.698 50.814-118.563 110.304l-39.78 9.585c-4.491 1.082-7.657 5.102-7.657 9.722v36h-70c-5.523 0-10 4.478-10 10v200c0 5.522 4.477 10 10 10h201c5.523 0 10-4.478 10-10s-4.477-10-10-10c-19.559 0-98.244 0-111 0v-20h312v20h-111c-5.523 0-10 4.478-10 10s4.477 10 10 10h201c5.523 0 10-4.478 10-10v-200c0-5.522-4.477-10-10-10zm-236-272h85.858l-22.929 22.929c-3.905 3.905-3.905 10.237 0 14.143l22.929 22.928h-85.858zm-10 126c52.325 0 96.191 35.906 107.292 85.567l-104.95-25.289c-1.54-.371-3.146-.371-4.686 0l-104.95 25.289c11.103-49.661 54.969-85.567 107.294-85.567zm-156 117.877c20.761-5.003 142.372-34.307 156-37.591l156 37.591v28.123h-312zm60 48.123v140h-20v-140zm20 0h46v140h-46zm66 0h20v140h-20zm40 0h46v140h-46zm66 0h20v140h-20zm-332 180v-180h100v140h-20v-30c0-5.522-4.477-10-10-10h-40c-5.523 0-10 4.478-10 10v40c0 5.522 4.477 10 10 10h30v20zm60-40h-20v-20h20zm412 40h-60v-20h30c5.523 0 10-4.478 10-10v-40c0-5.522-4.477-10-10-10h-40c-5.523 0-10 4.478-10 10v30h-20v-140h100zm-60-40v-20h20v20z"/><path d="m412 342v40c0 5.522 4.477 10 10 10h40c5.523 0 10-4.478 10-10v-40c0-5.522-4.477-10-10-10h-40c-5.523 0-10 4.478-10 10zm20 10h20v20h-20z"/><path d="m50 392h40c5.523 0 10-4.478 10-10v-40c0-5.522-4.477-10-10-10h-40c-5.523 0-10 4.478-10 10v40c0 5.522 4.477 10 10 10zm10-40h20v20h-20z"/><circle cx="256" cy="502" r="10"/></g></g></svg>