<svg id="Layer_1" enable-background="new 0 0 256 256" height="512" viewBox="0 0 256 256" width="512" xmlns="http://www.w3.org/2000/svg"><path d="m203.973 248h-148.496v-20.878c0-19.136 15.513-34.649 34.649-34.649h79.198c19.136 0 34.649 15.513 34.649 34.649z" fill="#6bdddd"/><path d="m194.505 101.656c-.137 0-.27.018-.407.02v-6.019c0-35.184-28.821-63.705-64.373-63.705-35.552 0-64.373 28.522-64.373 63.705v6.019c-.137-.003-.27-.02-.407-.02-10.846 0-19.639 8.702-19.639 19.436s8.793 19.436 19.639 19.436c.712 0 1.414-.042 2.107-.115 6.643 28.183 32.171 49.184 62.673 49.184 30.502 0 56.03-21.001 62.673-49.184.693.073 1.395.115 2.107.115 10.846 0 19.639-8.702 19.639-19.436s-8.793-19.436-19.639-19.436z" fill="#f9cfcf"/><path d="m129.725 191.596c-30.434 0-56.595-20.094-64.208-49.077-12.179.345-22.211-9.419-22.211-21.428 0-11.289 8.855-20.567 20.046-21.378v-4.056c0-36.23 29.774-65.706 66.373-65.706s66.373 29.476 66.373 65.706v4.056c11.19.811 20.046 10.089 20.046 21.378 0 11.82-9.707 21.436-21.639 21.436-.188 0-.379-.003-.571-.008-7.614 28.983-33.775 49.077-64.209 49.077zm-62.67-53.184c.917 0 1.73.63 1.944 1.541 6.612 28.052 31.583 47.643 60.726 47.643 29.144 0 54.114-19.591 60.727-47.643.229-.981 1.17-1.644 2.156-1.53.663.07 1.283.104 1.897.104 9.726 0 17.639-7.822 17.639-17.436 0-9.612-7.91-17.433-17.634-17.436-.18.012-.274.018-.369.02-.557.013-1.057-.194-1.442-.57-.384-.376-.601-.891-.601-1.429v-6.019c0-34.024-27.98-61.706-62.373-61.706s-62.373 27.682-62.373 61.707v6.019c0 .538-.217 1.053-.602 1.429s-.927.583-1.441.57c-.095-.002-.188-.008-.283-.015-.003 0-.007 0-.01 0-9.803 0-17.71 7.819-17.71 17.43 0 9.614 7.913 17.436 17.64 17.436.613 0 1.233-.034 1.897-.104.071-.007.141-.011.212-.011z" fill="#3762cc"/><path d="m141.964 161.425c-1.104 0-2-.896-2-2 0-1.587-.688-3.118-1.987-4.427-1.143-1.15-2.699-2.048-4.503-2.596-1.086-.33-2.314-.49-3.757-.49s-2.671.16-3.756.49c-1.804.548-3.361 1.445-4.504 2.596-1.3 1.309-1.987 2.839-1.987 4.427 0 1.104-.896 2-2 2s-2-.896-2-2c0-2.628 1.118-5.201 3.149-7.246 1.607-1.618 3.744-2.864 6.18-3.604 1.467-.446 3.076-.663 4.918-.663s3.451.217 4.919.663c2.435.74 4.571 1.986 6.179 3.604 2.031 2.045 3.149 4.618 3.149 7.246 0 1.105-.896 2-2 2z" fill="#3762cc"/><path d="m44.203 79.105c-2.913-7.8-3.12-16.353-.588-24.285l.218-.682c4.142-12.976 15.056-22.642 28.437-25.187 6.316-1.201 12.835-.742 18.921 1.332l.711.242c.041.369.103.739.193 1.107 2.922 11.944 8.286 22.952 15.574 32.411-6.325 17.623-14.064 27.669-19.964 33.232v.001l-7.743 7.86-15.015-3.481c-4.103 0-7.909 1.249-11.059 3.377z" fill="#4671c6"/><path d="m206.012 52.394c-5.051-15.671-16.587-28.124-31.336-34.263l.001-.008c-51.85-25.523-80.208 5.27-80.208 5.27-2.134 2.054-3.124 5.177-2.375 8.242 5.952 24.331 21.99 44.817 43.937 56.122l.031.016c4.738 2.441 9.685 4.433 14.779 5.954 1.267.378 2.288-1.089 1.521-2.184l-10.661-15.213c-.929-1.326.703-2.945 1.971-1.952 11.789 9.231 34.693 24.524 57.863 25.292l3.773-10.332c4.336-11.878 4.584-24.905.704-36.944z" fill="#4671c6"/><path d="m79.96 107.138c-.15 0-.302-.017-.452-.052l-14.785-3.428c-3.485.043-6.841 1.089-9.717 3.033-.508.343-1.144.435-1.729.248-.584-.187-1.05-.631-1.265-1.205l-9.683-25.929c-3.056-8.183-3.275-17.271-.619-25.592l.218-.682c4.369-13.688 15.853-23.859 29.968-26.543 6.643-1.265 13.537-.779 19.94 1.404l.711.243c.733.25 1.256.901 1.341 1.671.034.299.084.587.149.854 2.834 11.585 7.953 22.24 15.215 31.665.416.54.528 1.255.299 1.896-6.595 18.373-14.774 28.636-20.475 34.011l-7.691 7.81c-.38.385-.896.596-1.425.596zm-15.015-7.482c.152 0 .304.018.452.052l13.924 3.229 6.958-7.063c5.33-5.028 12.88-14.502 19.136-31.487-7.251-9.651-12.384-20.505-15.264-32.278-.006-.023-.012-.046-.017-.069-5.63-1.841-11.671-2.23-17.491-1.123-12.674 2.41-22.982 11.542-26.905 23.83l-.218.683c-2.385 7.47-2.188 15.63.557 22.976l8.846 23.688c3.081-1.601 6.501-2.438 10.022-2.438z" fill="#3762cc"/><path d="m201.534 101.668c-.021 0-.044 0-.066-.001-21.863-.725-43.399-14.008-55.93-23.348l8.462 12.075c.852 1.217.84 2.78-.028 3.983-.854 1.185-2.309 1.682-3.703 1.265-5.2-1.552-10.288-3.602-15.123-6.092-22.511-11.596-38.899-32.527-44.994-57.441-.892-3.646.216-7.518 2.89-10.119.688-.73 7.957-8.218 21.458-12.702 12.736-4.231 33.671-6.443 61.062 7.04.017.008.033.017.05.026 15.354 6.448 27.124 19.351 32.306 35.426 4.001 12.414 3.741 25.995-.73 38.241l-3.772 10.333c-.292.791-1.044 1.314-1.882 1.314zm-58.716-29.603c.727 0 1.456.244 2.086.737 11.206 8.774 33.086 23.477 55.255 24.8l3.269-8.953c4.168-11.414 4.41-24.072.682-35.643-4.842-15.017-15.85-27.056-30.202-33.03-.095-.04-.185-.085-.271-.138-20.574-10.09-40.511-12.452-57.666-6.825-12.998 4.263-19.964 11.661-20.033 11.735-.025.028-.055.058-.082.084-1.681 1.617-2.378 4.041-1.819 6.326 5.82 23.789 21.46 43.77 42.911 54.82 4.124 2.124 8.414 3.904 12.798 5.313l-9.683-13.816c-.986-1.409-.798-3.288.448-4.469.66-.625 1.481-.941 2.307-.941z" fill="#3762cc"/><path d="m134.483 189.404c-.26.02-.519.042-.78.059-.404.025-.808.046-1.214.063-.917.041-1.837.07-2.764.07s-1.848-.029-2.765-.07c-.406-.017-.811-.039-1.215-.063-.26-.017-.518-.039-.777-.059-9.48-.687-18.392-3.389-26.285-7.704v7.397c0 17.197 13.451 31.139 30.043 31.139h1.997c16.592 0 30.043-13.942 30.043-31.139v-7.397c-7.893 4.315-16.804 7.017-26.283 7.704z" fill="#f9cfcf"/><path d="m203.973 250h-148.495c-1.104 0-2-.896-2-2v-20.878c0-20.208 16.44-36.649 36.648-36.649h6.586c-.019-.463-.028-.922-.028-1.375v-7.397c0-.706.372-1.36.979-1.72.607-.361 1.36-.374 1.979-.035 7.863 4.297 16.433 6.809 25.471 7.464l.763.058c.382.023.774.044 1.168.061 1.785.079 3.582.079 5.355 0 .398-.017.791-.038 1.184-.062l.742-.057c9.049-.656 17.618-3.167 25.482-7.465.619-.338 1.372-.326 1.979.035s.979 1.014.979 1.72v7.397c0 .454-.01.913-.028 1.375h6.585c20.209 0 36.649 16.44 36.649 36.649v20.879c.002 1.104-.894 2-1.998 2zm-146.495-4h144.495v-18.878c0-18.003-14.646-32.649-32.649-32.649h-8.735c-.566 0-1.106-.24-1.485-.661s-.563-.982-.504-1.546c.111-1.073.168-2.14.168-3.169v-4.119c-7.545 3.648-15.649 5.805-24.14 6.42l-.793.061c-.427.026-.843.048-1.261.065-1.883.085-3.809.085-5.703 0-.413-.018-.829-.04-1.245-.064l-.811-.062c-8.483-.615-16.587-2.772-24.131-6.419v4.119c0 1.029.057 2.096.168 3.169.059.563-.125 1.125-.504 1.546-.379.42-.919.661-1.485.661h-8.736c-18.002 0-32.648 14.646-32.648 32.649v18.877z" fill="#3762cc"/><path d="m90.501 135.108c-1.033 0-2.038-.534-2.596-1.491-.833-1.432-.349-3.268 1.083-4.102l13.926-8.112-13.926-8.111c-1.432-.834-1.916-2.67-1.083-4.102.835-1.432 2.672-1.917 4.103-1.083l15.2 8.854c1.599.932 2.553 2.592 2.553 4.442 0 1.851-.954 3.511-2.552 4.442l-15.201 8.855c-.475.277-.994.408-1.507.408zm13.687-12.962h.011z" fill="#3762cc"/><path d="m168.933 135.108c-.513 0-1.032-.131-1.507-.408l-15.199-8.854c-1.599-.931-2.554-2.592-2.554-4.442s.955-3.511 2.554-4.442l15.199-8.854c1.431-.835 3.269-.349 4.102 1.082.834 1.432.35 3.269-1.082 4.103l-13.925 8.111 13.925 8.112c1.432.834 1.916 2.671 1.082 4.103-.557.955-1.562 1.489-2.595 1.489z" fill="#3762cc"/><path d="m109.22 154.712c-4.921 7.218-.239 16.941 8.593 18.18 3.738.524 7.744.808 11.912.808s8.174-.284 11.912-.808c8.832-1.238 13.514-10.962 8.593-18.18-4.796-7.035-12.198-11.545-20.505-11.545s-15.709 4.51-20.505 11.545z" fill="#f9a7a7"/><path d="m129.725 175.7c-4.169 0-8.27-.279-12.189-.828-4.981-.698-9.146-3.807-11.143-8.317-1.89-4.271-1.45-9.12 1.175-12.97 5.381-7.893 13.456-12.419 22.157-12.419 8.7 0 16.776 4.526 22.158 12.418 2.625 3.851 3.063 8.699 1.174 12.97-1.995 4.509-6.16 7.619-11.142 8.317-3.92.55-8.021.829-12.19.829zm0-30.533c-7.357 0-14.229 3.89-18.853 10.672-1.868 2.74-2.167 6.056-.821 9.099 1.432 3.236 4.438 5.469 8.039 5.974 7.476 1.047 15.797 1.047 23.271 0 3.602-.505 6.607-2.739 8.039-5.975 1.346-3.042 1.046-6.358-.821-9.098-4.626-6.783-11.498-10.672-18.854-10.672zm-20.505 9.545h.01z" fill="#3762cc"/><path d="m96.351 175.213c-4.667-4.667-11.232-6.252-17.208-4.796.868-5.554-.818-11.429-5.097-15.709-7.115-7.115-18.651-7.115-25.766 0-5.604 5.604-6.774 13.944-3.55 20.713-5.43 8.408-4.472 19.742 2.892 27.106 7.698 7.698 19.726 8.38 28.223 2.097 6.732 3.103 14.959 1.902 20.506-3.646 7.115-7.115 7.115-18.65 0-25.765z" fill="#e0ebfc"/><g fill="#a4c9ff"><path d="m100.281 160.456c.781.781.781 2.047 0 2.828l-17.501 17.501c-.781.781-2.047.781-2.828 0-.781-.781-.781-2.047 0-2.828l17.501-17.501c.781-.781 2.047-.781 2.828 0z"/><path d="m104.379 145.11c.781.781.781 2.047 0 2.828l-17.501 17.501c-.781.781-2.047.781-2.828 0-.781-.781-.781-2.047 0-2.828l17.501-17.501c.781-.781 2.047-.781 2.828 0z"/><path d="m89.343 149.518c.781.781.781 2.047 0 2.828l-17.501 17.501c-.781.781-2.047.781-2.828 0-.781-.781-.781-2.047 0-2.828l17.501-17.501c.78-.782 2.047-.782 2.828 0z"/><path d="m130.359 137.122c0 1.749 1.418 3.167 3.167 3.167s3.167-1.418 3.167-3.167v-7.419c-1.767 1.768-4.024 2.744-6.333 2.938v4.481z"/></g><path d="m129.5 134.676c-3.117 0-6.234-1.187-8.607-3.56l-.201-.201c-.782-.78-.784-2.046-.004-2.829.778-.782 2.046-.784 2.828-.003l.203.203c3.189 3.188 8.374 3.188 11.56.002.781-.781 2.047-.781 2.828 0s.781 2.047 0 2.828c-2.374 2.374-5.491 3.56-8.607 3.56z" fill="#3762cc"/><path d="m168.616 159.256-2.908-1.952c-3.008-2.02-6.903-2.154-10.043-.345l-8.735 5.031c-3.443 1.983-6.257 4.897-8.119 8.407l-4.723 8.906c-1.698 3.201-1.428 7.089.696 10.025l2.053 2.838c7.621 10.536 18.596 18.168 31.126 21.643l30.802 29.745 23.37-24.2-30.802-29.745c-3.912-12.403-11.922-23.105-22.717-30.353z" fill="#f9cfcf"/><path d="m221.946 242.555c-6.453 6.683-17.102 6.869-23.785.415l-16.235-15.678 23.37-24.2 16.235 15.678c6.682 6.453 6.868 17.102.415 23.785z" fill="#f9cfcf"/><path d="m209.862 249.688c-4.273 0-8.561-1.453-12.07-4.39-.149-.081-.29-.184-.418-.307l-30.439-29.395c-12.713-3.646-23.962-11.536-31.719-22.258l-2.053-2.838c-2.59-3.582-2.913-8.231-.842-12.135l4.723-8.905c2.041-3.848 5.114-7.031 8.888-9.204l8.735-5.03c3.83-2.207 8.488-2.044 12.156.417l2.907 1.952c10.986 7.377 19.264 18.344 23.353 30.923l30.439 29.395c.132.127.243.27.333.42 6.572 7.331 6.397 18.498-.472 25.611-3.68 3.812-8.592 5.743-13.521 5.744zm-10-7.855c.086.054.169.115.247.184 5.952 5.204 14.909 4.831 20.397-.851 5.486-5.682 5.548-14.649.139-20.415-.072-.077-.138-.159-.196-.245l-30.507-29.46c-.239-.231-.418-.519-.518-.837-3.761-11.921-11.546-22.325-21.924-29.292l-2.907-1.952c-2.396-1.608-5.434-1.71-7.931-.273l-8.735 5.031c-3.12 1.797-5.662 4.429-7.351 7.612l-4.723 8.905c-1.351 2.546-1.14 5.58.55 7.916l2.052 2.837c7.327 10.129 17.996 17.547 30.04 20.888.321.089.615.257.855.489z" fill="#3762cc"/><path d="m145.059 142.189 8.201-.123c4.871-.073 9.274 2.684 11.052 6.921l26.969 64.256c1.169 2.786-.419 5.922-3.468 6.846l-38.111 11.557c-3.652 1.107-7.369-1.495-7.258-5.08z" fill="#e0ebfc"/><path d="m147.982 233.902c-1.698 0-3.367-.546-4.729-1.59-1.854-1.42-2.878-3.538-2.808-5.808l2.614-84.377c.033-1.068.9-1.922 1.969-1.938l8.201-.123c5.654-.078 10.845 3.189 12.926 8.147l26.969 64.256c.767 1.824.724 3.817-.12 5.611-.879 1.871-2.561 3.301-4.611 3.923l-38.11 11.557c-.755.23-1.531.342-2.301.342zm-.983-89.741-2.555 82.468c-.041 1.324.761 2.14 1.241 2.509.961.736 2.245.958 3.438.596l38.11-11.557c.969-.293 1.753-.948 2.151-1.796.355-.756.374-1.595.053-2.361l-26.969-64.256c-1.455-3.466-5.162-5.748-9.178-5.695z" fill="#3762cc"/><path d="m151.213 142.097-9.679.145c-4.871.073-9.189 2.961-10.84 7.249l-27.73 72.049c-1.085 2.82.596 5.906 3.671 6.739l43.123 11.678c3.683.997 7.321-1.715 7.102-5.296z" fill="#e0ebfc"/><path d="m151.31 242.164c-.691 0-1.389-.09-2.072-.275l-43.123-11.678c-2.068-.561-3.791-1.939-4.727-3.783-.897-1.768-1-3.759-.289-5.605l27.73-72.049c1.931-5.018 7.024-8.446 12.676-8.531l9.679-.145c1.05-.012 1.961.811 2.026 1.878l5.648 92.564c.138 2.268-.821 4.415-2.633 5.89-1.391 1.133-3.135 1.734-4.915 1.734zm-1.976-98.039-7.769.117c-4.035.061-7.653 2.459-9.004 5.968l-27.73 72.049c-.298.776-.255 1.614.124 2.359.424.835 1.228 1.466 2.204 1.731l43.123 11.678c1.203.326 2.481.064 3.417-.698.471-.383 1.247-1.223 1.167-2.545z" fill="#3762cc"/><path d="m164.313 148.988c-1.778-4.237-6.181-6.994-11.052-6.921l-2.047.031-6.154.092-3.524.053c-4.871.073-9.189 2.961-10.84 7.249l-3.629 9.429 6.711-.101c1.169-.018 2.129.854 2.146 1.947l.117 7.818c.061 4.062 3.462 7.555 7.807 7.612 4.496.059 8.131-3.365 8.069-7.538l-.129-8.623c-.012-.819.688-1.494 1.565-1.508.877-.013 1.597.641 1.609 1.46l.036 2.377c.061 4.062 3.462 7.555 7.807 7.612 3.859.05 7.077-2.468 7.873-5.821z" fill="#a4c9ff"/><path d="m143.957 178.196c-.045 0-.09 0-.136 0-5.315-.07-9.702-4.369-9.78-9.582l-.116-7.784c-.011.008-.05-.011-.112-.011-.002 0-.004 0-.005 0l-6.711.101c-.011 0-.021 0-.03 0-.653 0-1.266-.319-1.641-.855-.38-.545-.465-1.243-.226-1.863l3.629-9.429c1.931-5.018 7.024-8.446 12.676-8.531l11.726-.176c5.649-.058 10.846 3.19 12.926 8.147l6.366 15.167c.164.391.2.824.102 1.236-1.018 4.283-5.089 7.359-9.71 7.359-.045 0-.09 0-.136 0-3.927-.052-7.347-2.412-8.897-5.743l.036 2.395c.037 2.472-.93 4.822-2.722 6.618-1.878 1.88-4.509 2.951-7.239 2.951zm-10.144-21.377c2.24 0 4.078 1.744 4.111 3.917l.117 7.818c.046 3.069 2.662 5.6 5.833 5.642 1.713.009 3.341-.625 4.49-1.777 1.022-1.024 1.573-2.35 1.553-3.732l-.13-8.623c-.027-1.922 1.559-3.508 3.535-3.538 1.987-.003 3.61 1.509 3.64 3.429l.035 2.378c.046 3.069 2.663 5.6 5.834 5.642 2.577.03 4.912-1.493 5.728-3.705l-6.09-14.508c-1.455-3.467-5.159-5.765-9.178-5.695l-11.726.176c-4.035.061-7.653 2.459-9.004 5.968l-2.565 6.667 3.751-.057c.022-.001.044-.002.066-.002z" fill="#3762cc"/></svg>