<svg id="Layer_1" height="512" viewBox="0 0 512 512" width="512" xmlns="http://www.w3.org/2000/svg" data-name="Layer 1"><path d="m188.59 130.134a9.232 9.232 0 0 1 11.73-1.19 10.905 10.905 0 0 1 -11.73 18.37l-.11-.08v-16.99z" fill="#cea697"/><path d="m79.31 147.314a10.905 10.905 0 0 1 -11.73-18.37 9.232 9.232 0 0 1 11.73 1.19h.21v17.04z" fill="#cea697"/><path d="m178 222h-.13c-1.79-3-5.18-8.753-7.45-11.433l-.01.074-72.285-.387-.068.01a61.1 61.1 0 0 0 -7.218 10.13c-7.57 13.59-8.835 27.67-5.545 42.77l60.906 75.136.01.05a53.357 53.357 0 0 1 10.58-2.34l.12-.19 21.145-51.64z" fill="#6994fe"/><path d="m413.05 279.384a19.179 19.179 0 0 1 19.16 19.15v20.51h-13.6v-20.51a5.561 5.561 0 0 0 -5.56-5.56h-.04v-13.59z" fill="#bc5e51"/><path d="m364.62 279.384v13.59h-.05a5.567 5.567 0 0 0 -5.56 5.56v20.51h-13.59v-20.51a19.171 19.171 0 0 1 19.15-19.15z" fill="#bc5e51"/><path d="m485.45 319h-156.61l-.14.012-.7 169.988h157.45a20.452 20.452 0 0 0 20.55-20.436v-128.97a20.587 20.587 0 0 0 -20.55-20.594z" fill="#7f3d32"/><path d="m364 277h50v18h-50z" fill="#313960"/><path d="m458.18 319.044h20.56v170.07h-20.56z" fill="#bc5e51"/><path d="m400.991 362.472h29.679v42.845h-29.679z" fill="#ffa4c2" transform="matrix(.529 -.848 .848 .529 -129.984 533.483)"/><path d="m372.11 422.734h42.85v29.67h-42.85z" fill="#e75163"/><path d="m177.7 284.184-20.94 51.641.03.189 5.043 6.654 22.529 11.152v-42.82z" fill="#7f3d32"/><path d="m357.56 489.114h-54.54a53.743 53.743 0 0 0 -6.25-69.05l37-36.99a37 37 0 0 0 3.41-3.94 35.75 35.75 0 0 1 20.38 32.29z" fill="#ff5a81"/><path d="m225.71 368.254-31.37-22.52a54.106 54.106 0 0 0 -12.66-6.75 77.418 77.418 0 0 1 -3.98-24.52v-86.73c0-1.82.06-3.62.19-5.4a70.905 70.905 0 0 1 .84-7.19 76.359 76.359 0 0 1 6.53-20.79c.2-.43.42-.86.63-1.29a77.563 77.563 0 0 1 146.95 34.67v86.73c0 1.54-.05 3.06-.14 4.57a76.6 76.6 0 0 1 -1.41 10.9l.17.04 2.31 2.52a35.791 35.791 0 0 1 3.41 46.64 37 37 0 0 1 -3.41 3.94l-37 36.99a53.624 53.624 0 0 0 -6.43-5.41l-23.29-16.72z" fill="#313960"/><path d="m269.52 448.744a147.958 147.958 0 0 0 -2.47-50.81l23.29 16.72a53.642 53.642 0 0 1 12.68 74.46h-44.52a147.453 147.453 0 0 0 11.01-40.37z" fill="#d2cfff"/><path d="m225.71 368.254 41.34 29.68a147.958 147.958 0 0 1 2.47 50.81h-.01a96.209 96.209 0 0 1 -44.25 20.05v-.01c11.71-31.33 12.45-69.3.45-100.53z" fill="#99f"/><path d="m193.02 468.834a96.072 96.072 0 0 0 76.49-20.09 147.453 147.453 0 0 1 -11.01 40.37h-48.67l-18.72-13.44-13.02-9.35z" fill="#7d7dff"/><path d="m156.79 336.014a54.655 54.655 0 0 1 6.27-.36 53.243 53.243 0 0 1 10.2.98 53.162 53.162 0 0 1 21.08 9.1l31.37 22.52c12 31.23 11.26 69.2-.45 100.53v.01a96.38 96.38 0 0 1 -32.24.04l-14.93-2.51-24.9-17.87-.14-.1-11.13-7.99-10.24-7.35a53.729 53.729 0 0 1 -6.18-82.1v-.01a53.919 53.919 0 0 1 31.29-14.89z" fill="#d2cfff"/><path d="m152.98 448.454.07-.1.14.1 24.9 17.87 13.02 9.35-.21.29a45.932 45.932 0 0 0 3.24 11.24v1.91h-41.16z" fill="#ff5a81"/><path d="m194.14 487.2a45.932 45.932 0 0 1 -3.24-11.24l.21-.29 18.72 13.44h-15.69z" fill="#ff5a81"/><path d="m159.47 230.4a27.317 27.317 0 0 0 .6-5.73l3.34 4.58a34.738 34.738 0 0 1 5.35 30 33.894 33.894 0 0 1 -2.72 6.76 34.585 34.585 0 0 1 -4.06 6.05l-5.53 6.61a4.745 4.745 0 0 1 -7.61-.47l-.49-.75-14.25-22 11.68-6.49a27.757 27.757 0 0 0 13.69-18.56z" fill="#80aaff"/><path d="m153.05 448.354-.07.1v40.66h-11.06v-48.75z" fill="#7f3d32"/><path d="m125.5 350.9v-37.45a51.762 51.762 0 0 0 -1.01-10.18l1.62-19.89.02-.29a11.048 11.048 0 0 1 15.48-.15l.06.22 4.53 55.14.01.05a53.283 53.283 0 0 0 -20.71 12.55z" fill="#de3c44"/><path d="m134.1 255.454 14.25 22-.28.18-6.46 5.31a11.048 11.048 0 0 0 -15.48.15l-6.37-5.46-.15-.1 14.31-22.08z" fill="#e75163"/><path d="m107.95 224.674a27.764 27.764 0 0 0 14.29 24.29l11.68 6.49-14.31 22.08-.43.67a4.742 4.742 0 0 1 -6.2 1.61 51.742 51.742 0 0 0 -3.62-3.78l-3.32-3.97a34.743 34.743 0 0 1 -1.43-42.81z" fill="#80aaff"/><path d="m108.54 230.334v-13.6l27 14.5 23.93-13.59v12.756a27.757 27.757 0 0 1 -13.69 18.56l-11.68 6.49h-.18l-11.68-6.49a27.8 27.8 0 0 1 -13.71-18.63z" fill="#cea697"/><path d="m110.74 65.694-17.09-21.41h-6.94a23.338 23.338 0 0 0 -23.33 23.34v43.83a13.845 13.845 0 0 0 13.84 13.84h1.3l-.01-21.6z" fill="#313960"/><path d="m90.81 220.394c-7.57 13.59-8.82 27.67-5.53 42.77a50.717 50.717 0 0 0 -8.5-1.17v-.01l-9.83-5.06a6.173 6.173 0 0 1 -3.36-5.5 6.014 6.014 0 0 1 .29-1.86c4.31-13.73 15.41-28.58 32.76-40.4l.01-.01c.45.38.9.75 1.36 1.1l-.01.01a60.939 60.939 0 0 0 -7.19 10.13z" fill="#7f3d32"/><path d="m79.07 177.854c-.1-.67-.18-1.33-.25-2a14.868 14.868 0 0 0 13.28 8.17h11.66a10.539 10.539 0 0 0 10.53-10.54v-.28a4.063 4.063 0 0 1 4.06-4.06 14.873 14.873 0 0 0 14.87-14.87h.84a14.867 14.867 0 0 0 14.87 14.87h1.48c2.24 0 2.58 1.82 2.58 4.06v.28a10.533 10.533 0 0 0 10.53 10.54h12.4a14.857 14.857 0 0 0 13.36-8.33c-.03.37-.07.74-.11 1.11a50.55 50.55 0 0 1 -4.4 15.7c-.19.41-.38.81-.58 1.21a50.429 50.429 0 0 1 -12.3 15.8c-.48.42-.98.82-1.48 1.21a50.251 50.251 0 0 1 -6.51 4.41l-4.43 2.51-23.93 13.59-27-14.5-3.4-1.83a50.485 50.485 0 0 1 -7.13-4.65c-.46-.35-.91-.72-1.36-1.1a50.486 50.486 0 0 1 -17.58-31.3z" fill="#313960"/><path d="m189.48 156.315v-40.521c-.49-.4-.96-.84-1.42-1.29a28.513 28.513 0 0 1 -8.34-20.13v-17.3a20.127 20.127 0 0 0 -20.13-20.131h-1.93a20.078 20.078 0 0 0 -13.54 5.23 21.707 21.707 0 0 1 -26.17 2.661l-.57-.351a19.65 19.65 0 0 1 -6.64 1.21h2.78v2.02a9.94 9.94 0 0 1 -9.94 9.94 9.937 9.937 0 0 0 -9.93 9.931v.99a15.129 15.129 0 0 1 -15.13 15.119h-.01l.01 52.641a7 7 0 0 0 -1.3 4.079v2.01a8.072 8.072 0 0 0 8.07 8.07h12.43a10.821 10.821 0 0 0 10.82-10.82 10.823 10.823 0 0 1 10.83-10.82h28.54a10.823 10.823 0 0 1 10.82 10.82 10.823 10.823 0 0 0 10.83 10.82h13.16a8.066 8.066 0 0 0 8.07-8.07v-2.01a7 7 0 0 0 -1.31-4.098z" fill="#e1b7a3"/><path d="m23.34 381.374.11-.02a51.28 51.28 0 0 1 -1.03-10.28v-57.62a51.6 51.6 0 0 1 51.54-51.54c.95 0 1.89.03 2.82.08a50.717 50.717 0 0 1 8.5 1.17 51.471 51.471 0 0 1 24.08 12.87l2.21 2.64a4.6 4.6 0 0 0 1.41 1.14 51.325 51.325 0 0 1 12.52 33.64v37.46a53.747 53.747 0 0 0 -4.99 71.34l-29.75 29.746a23.756 23.756 0 0 1 -33.6 0l-35.35-35.35a23.044 23.044 0 0 1 -2.26-2.62h-.01a23.759 23.759 0 0 1 2.27-30.98z" fill="#4e6dca"/><path d="m21.81 416.654 35.35 35.346a23.756 23.756 0 0 0 33.6 0l29.75-29.75a53.674 53.674 0 0 0 11.17 10.76l10.24 7.35v48.75h-135.92v-53.62a23.8 23.8 0 0 1 13.54-21.46h.01a23.044 23.044 0 0 0 2.26 2.624z" fill="#fe8700"/><path d="m304.32 212.084a60.958 60.958 0 0 1 12.16 36.62v29.45a61.205 61.205 0 0 1 -122.41 0v-29.454a60.9 60.9 0 0 1 12.18-36.64 153.927 153.927 0 0 1 98.06.02z" fill="#ffac83"/><path d="m304.31 212.084a153.927 153.927 0 0 0 -98.06-.02 61.205 61.205 0 0 1 98.06.02z" fill="#c12826"/><path d="m129.95 392.144a7.216 7.216 0 0 0 10.55-7.51l-.97-5.87a7.16 7.16 0 0 0 5.7-7.93l5.87-.96a7.215 7.215 0 0 0 3.57-12.55l.02-.02a36.09 36.09 0 0 1 31.37 4.17 9.029 9.029 0 0 1 12.05 13.33 36.155 36.155 0 0 1 -37.69 52.5 6.754 6.754 0 0 1 -.51.8 9.035 9.035 0 0 1 -15.97-7.94 36.115 36.115 0 0 1 -13.99-28.02z" fill="#ffac83"/><path d="m141.66 350.544a7.2 7.2 0 0 1 8.06 5.01 7.22 7.22 0 0 1 4.41 1.34c.19.14.37.28.54.43a7.215 7.215 0 0 1 -3.57 12.55l-5.87.96a7.177 7.177 0 0 0 -8.55-6.14l-.97-5.87a7.22 7.22 0 0 1 5.95-8.28z" fill="#8dc63f"/><path d="m139.53 378.764a7.16 7.16 0 1 1 4.41-2.84 7.128 7.128 0 0 1 -4.41 2.84z" fill="#e75163"/><path d="m130.98 372.634a7.179 7.179 0 0 0 8.55 6.13l.97 5.87a7.211 7.211 0 0 1 -14.01 3.28 7.21 7.21 0 0 1 -1.38-14.32z" fill="#8dc63f"/><path d="m171.89 209.52c2.13 1.47 4.87 4.07 6.81 5.62h.03q-.585 3.54-.84 7.19h-.02c-1.79-3.02-5.18-8.92-7.45-11.6.49-.39.98-.79 1.46-1.22z" fill="#7f3d32"/><path d="m36.4 431.24-14.586-14.6a17.364 17.364 0 0 1 -2.264-2.64h-.01a24.037 24.037 0 0 0 -13.54 21.494v53.506h30v-53.506a23.851 23.851 0 0 1 .4-4.254z" fill="#d17213"/><path d="m87.16 452-35.35-35.363a17.364 17.364 0 0 1 -2.26-2.637h-.01a23.76 23.76 0 0 1 2.27-30.963l1.53-1.671-.1-.016a51.3 51.3 0 0 1 -1.24-10.276v-57.62a51.814 51.814 0 0 1 36.757-49.309c-1.211-.37-2.335-.7-3.582-.981a50.1 50.1 0 0 0 -8.448-1.17c-.93-.05-2.053-.08-3-.08a51.755 51.755 0 0 0 -51.727 51.54v57.62a51.34 51.34 0 0 0 1.24 10.28v.02l-1.478 1.663a23.754 23.754 0 0 0 -2.222 30.963h.01a17.364 17.364 0 0 0 2.26 2.637l35.35 35.363a23.759 23.759 0 0 0 31.8 1.631 23.989 23.989 0 0 1 -1.8-1.631z" fill="#3e599b"/><path d="m41.38 303.054a102.193 102.193 0 0 1 65.16 0 40.465 40.465 0 0 1 8.08 24.33v19.56a40.66 40.66 0 1 1 -81.32 0v-19.56a40.465 40.465 0 0 1 8.08-24.33z" fill="#e1b7a3"/><path d="m106.54 303.054a102.193 102.193 0 0 0 -65.16 0 41.276 41.276 0 0 1 3.83-4.42 40.661 40.661 0 0 1 61.33 4.42z" fill="#e84d7a"/><path d="m94 83.585v.99c0 8.349-7.13 16.425-15.48 16.425l-.01-1-.1 57.487a6.641 6.641 0 0 0 -1.41 3.927v2.01c0 4.46 3.84 7.576 8.29 7.576h12.43a10.233 10.233 0 0 0 6.151-1.757 7.629 7.629 0 0 1 -2.871-5.819v-2.01a6.641 6.641 0 0 1 1.41-3.927l.077-83.732a9.828 9.828 0 0 0 -8.487 9.83z" fill="#ad8c7f"/><g fill="#4a5160"><path d="m77.22 162.424a8.072 8.072 0 0 0 8.07 8.07h12.43a10.823 10.823 0 0 0 10.82-10.82 10.823 10.823 0 0 1 10.83-10.82h28.54a10.823 10.823 0 0 1 10.82 10.82 10.823 10.823 0 0 0 10.83 10.82h13.16a8.066 8.066 0 0 0 8.07-8.07v6.72a14.856 14.856 0 0 1 -14.87 14.88h-12.4a10.533 10.533 0 0 1 -10.53-10.54v-.28c0-2.24-.34-4.06-2.58-4.06h-1.48a14.867 14.867 0 0 1 -14.87-14.87h-.84a14.873 14.873 0 0 1 -14.87 14.87 4.063 4.063 0 0 0 -4.06 4.06v.28a10.539 10.539 0 0 1 -10.53 10.54h-11.66a14.868 14.868 0 0 1 -13.28-8.17 14.66 14.66 0 0 1 -1.6-6.71z"/><path d="m93.65 88.574a15.129 15.129 0 0 1 -15.13 15.12h-.01v-19.71a18.294 18.294 0 0 1 18.3-18.29h16.71v2.02a9.94 9.94 0 0 1 -9.94 9.94 9.935 9.935 0 0 0 -9.93 9.93z"/><path d="m167.79 31.524-39.29-8.024a30.076 30.076 0 0 0 -36.13 29.5s6.25 12.69 18.37 12.69a19.65 19.65 0 0 0 6.64-1.21l65.31-14.72a18.617 18.617 0 0 0 -14.9-18.236z"/></g><path d="m117.38 56.944c0-14.52 13.32-17.85 27.55-14.95l33.36 7.77c.48.11.96.23 1.43.37a34.077 34.077 0 0 1 24.92 32.82l-.16 21.43v16.6h-.77a22.094 22.094 0 0 1 -14.23-5.19c-.49-.4-.96-.84-1.42-1.29a28.513 28.513 0 0 1 -8.34-20.13v-17.3a20.127 20.127 0 0 0 -20.13-20.13h-1.93a20.078 20.078 0 0 0 -13.54 5.23 21.7 21.7 0 0 1 -26.17 2.66l-.57-.35z" fill="#313960"/><path d="m283.274 389.808a3 3 0 0 1 -1.087-5.8 74.494 74.494 0 0 0 20.232-11.808 3 3 0 0 1 3.8 4.645 80.568 80.568 0 0 1 -21.859 12.755 3.01 3.01 0 0 1 -1.086.208z" fill="#515d87"/><path d="m293.986 255.344a3 3 0 0 1 -3-3 7.558 7.558 0 1 0 -15.116 0 3 3 0 0 1 -6 0 13.558 13.558 0 1 1 27.116 0 3 3 0 0 1 -3 3z" fill="#cc8666"/><path d="m237.676 255.344a3 3 0 0 1 -3-3 7.558 7.558 0 1 0 -15.116 0 3 3 0 0 1 -6 0 13.558 13.558 0 1 1 27.116 0 3 3 0 0 1 -3 3z" fill="#cc8666"/><path d="m255.273 302.174a27.808 27.808 0 0 1 -19.723-8.156 3 3 0 1 1 4.242-4.243 21.919 21.919 0 0 0 30.961 0 3 3 0 1 1 4.247 4.243 27.808 27.808 0 0 1 -19.727 8.156z" fill="#cc8666"/><path d="m213.27 184.548a3 3 0 0 1 -1.918-5.308 72.2 72.2 0 0 1 46.042-16.63 3 3 0 0 1 0 6 66.186 66.186 0 0 0 -42.209 15.245 2.981 2.981 0 0 1 -1.915.693z" fill="#515d87"/><path d="m152.426 412.343a4.8 4.8 0 1 1 3.91-2 4.782 4.782 0 0 1 -3.91 2z" fill="#d38c6c"/><path d="m176.824 378.354a4.823 4.823 0 1 1 .791-.065 4.926 4.926 0 0 1 -.791.065z" fill="#d38c6c"/><path d="m176.093 415.025a15.925 15.925 0 0 1 -9.316-3 3 3 0 0 1 3.5-4.875 10.012 10.012 0 1 0 11.677-16.267 3 3 0 1 1 3.5-4.873 16.007 16.007 0 0 1 -9.359 29.013z" fill="#d38c6c"/><path d="m92.564 422.141a3 3 0 0 1 -1.087-5.8 48.521 48.521 0 0 0 13.169-7.69 3 3 0 0 1 3.8 4.645 54.525 54.525 0 0 1 -14.8 8.638 2.985 2.985 0 0 1 -1.082.207z" fill="#2c4370"/><path d="m99.68 332.805a3 3 0 0 1 -3-3 4.015 4.015 0 1 0 -8.029 0 3 3 0 0 1 -6 0 10.015 10.015 0 1 1 20.029 0 3 3 0 0 1 -3 3z" fill="#b79284"/><path d="m62.269 332.805a3 3 0 0 1 -3-3 4.015 4.015 0 0 0 -8.03 0 3 3 0 0 1 -6 0 10.015 10.015 0 0 1 20.03 0 3 3 0 0 1 -3 3z" fill="#b79284"/><path d="m73.959 363.917a19.474 19.474 0 0 1 -13.814-5.717 3 3 0 1 1 4.242-4.242 13.556 13.556 0 0 0 19.146 0 3 3 0 1 1 4.242 4.242 19.477 19.477 0 0 1 -13.816 5.717z" fill="#b79284"/><path d="m46.054 285.769a3 3 0 0 1 -1.918-5.308 48.974 48.974 0 0 1 31.233-11.281 3 3 0 0 1 0 6 42.961 42.961 0 0 0 -27.4 9.9 2.986 2.986 0 0 1 -1.915.689z" fill="#2c4370"/><path d="m169.1 129.881a3 3 0 0 1 -3-3 6.57 6.57 0 1 0 -13.139 0 3 3 0 0 1 -6 0 12.57 12.57 0 1 1 25.139 0 3 3 0 0 1 -3 3z" fill="#8c7269"/><path d="m118.059 129.881a3 3 0 0 1 -3-3 6.569 6.569 0 1 0 -13.138 0 3 3 0 0 1 -6 0 12.569 12.569 0 1 1 25.138 0 3 3 0 0 1 -3 3z" fill="#8c7269"/><path d="m134.01 179.765a25.569 25.569 0 0 1 -9.236-1.732 3 3 0 1 1 2.166-5.595 19.517 19.517 0 0 0 14.43-.117 3 3 0 0 1 2.255 5.561 25.573 25.573 0 0 1 -9.615 1.883z" fill="#e1b7a3"/><path d="m135.539 227.678a3 3 0 0 1 -3-3v-15.078a3 3 0 1 1 6 0v15.081a3 3 0 0 1 -3 2.997z" fill="#272d44"/><path d="m159.475 220.649a3 3 0 0 1 -3-3v-16.828a3 3 0 0 1 6 0v16.828a3 3 0 0 1 -3 3z" fill="#272d44"/><path d="m108.542 219.738a3 3 0 0 1 -3-3v-15.917a3 3 0 0 1 6 0v15.917a3 3 0 0 1 -3 3z" fill="#272d44"/></svg>