<svg height="512" viewBox="0 0 512 512" width="512" xmlns="http://www.w3.org/2000/svg"><g id="Filled-Outline"><path d="m176 328h120a16 16 0 0 1 16 16 16 16 0 0 1 -16 16h16a16 16 0 0 1 16 16 16 16 0 0 1 -16 16 16 16 0 0 1 16 16 16 16 0 0 1 -16 16h-24a16 16 0 0 1 16 16 16 16 0 0 1 -16 16h-264v-128l126.64-84.42a22.05 22.05 0 0 1 29.88 5.11 22.07 22.07 0 0 1 -2.05 28.84l-26.47 26.47z" fill="#fac8b2"/><g fill="#eaaa94"><path d="m296 368h-56a8 8 0 0 1 0-16h56a8 8 0 0 1 0 16z"/><path d="m312 400h-72a8 8 0 0 1 0-16h72a8 8 0 0 1 0 16z"/><path d="m288 432h-48a8 8 0 0 1 0-16h48a8 8 0 0 1 0 16z"/><rect height="32" rx="16" transform="matrix(0 1 -1 0 560 352)" width="64" x="72" y="440"/><rect height="32" rx="16" transform="matrix(0 1 -1 0 656 256)" width="64" x="168" y="440"/><rect height="32" rx="16" transform="matrix(0 1 -1 0 584 312)" width="80" x="96" y="432"/><rect height="32" rx="16" transform="matrix(0 1 -1 0 616 280)" width="80" x="128" y="432"/><path d="m152 304 24-24h20a20 20 0 0 1 20 20v40a20 20 0 0 1 -20 20 20 20 0 0 1 -20-20v-12z"/></g><path d="m360 168h128v320h-128z" fill="#7bd7ef"/><path d="m360 168a32 32 0 0 1 32-32h64a32 32 0 0 1 32 32z" fill="#00a8e7"/><path d="m392 104h64v32h-64z" fill="#fcc200"/><path d="m400 24h48v80h-48z" fill="#40c6f3"/><path d="m400 72h-80l-32 32-24-24 40-40h96z" fill="#00a8e7"/><path d="m256 120-31 46.56a37.3 37.3 0 0 0 4.66 47.06 37.31 37.31 0 0 0 52.76 0 37.3 37.3 0 0 0 4.58-47.06z" fill="#00a8e7"/><circle cx="104" cy="104" fill="#7bd7ef" r="40"/><path d="m56 200h-8v-8a8 8 0 0 0 -16 0v8h-8a8 8 0 0 0 0 16h8v8a8 8 0 0 0 16 0v-8h8a8 8 0 0 0 0-16z" fill="#40c6f3"/><path d="m216 48h-8v-8a8 8 0 0 0 -16 0v8h-8a8 8 0 0 0 0 16h8v8a8 8 0 0 0 16 0v-8h8a8 8 0 0 0 0-16z" fill="#40c6f3"/><path d="m328 264h-8v-8a8 8 0 0 0 -16 0v8h-8a8 8 0 0 0 0 16h8v8a8 8 0 0 0 16 0v-8h8a8 8 0 0 0 0-16z" fill="#40c6f3"/><path d="m456 336a32 32 0 0 1 -32-32 32 32 0 0 0 -32-32 32 32 0 0 0 -32 32v184h128v-184a32 32 0 0 1 -32 32z" fill="#00a8e7"/><path d="m456 272a32 32 0 0 0 -32 32 32 32 0 0 0 32 32 32 32 0 0 0 32-32 32 32 0 0 0 -32-32z" fill="#40c6f3"/><circle cx="400" cy="384" fill="#fff" r="16"/><circle cx="440" cy="440" fill="#fff" r="8"/><circle cx="416" cy="224" fill="#fff" r="8"/><circle cx="392" cy="304" fill="#fff" r="8"/><circle cx="240" cy="192" fill="#fff" r="8"/><circle cx="88" cy="88" fill="#fff" r="8"/><path d="m318.33 352.85c6.35-15.27-5.72-33.18-22.33-32.85h-72v-20a28 28 0 0 0 -28-28h-4.79c9.49-27.14-20.9-51-45-35.08l-126.65 84.42a8 8 0 0 0 -3.56 6.66v128a8 8 0 0 0 8 8h56v8c-.07 20.67 24.87 31.64 40 17.87 8.69 8.11 23.31 8.11 32 0 8.69 8.11 23.31 8.11 32 0 15.14 13.77 40.07 2.79 40-17.87v-8h64c16.41.16 28.21-16.59 22.64-32 21.37 1 33.41-23.95 19.26-40 11.98-13.12 5.27-34.77-11.57-39.15zm-110.33-52.85v40c-.66 15.92-23.34 15.92-24 0v-12a8.07 8.07 0 0 0 -2.34-5.67l-18.35-18.33 16-16h16.69a12 12 0 0 1 12 12zm-104 180a8 8 0 0 1 -8-8v-32a8 8 0 0 1 16 0v32a8 8 0 0 1 -8 8zm32 0a8 8 0 0 1 -8-8v-48c.4-10.59 15.6-10.61 16 0v48a8 8 0 0 1 -8 8zm32 0a8 8 0 0 1 -8-8v-48c.4-10.59 15.6-10.61 16 0v48a8 8 0 0 1 -8 8zm40-8c-.4 10.59-15.6 10.6-16 0v-32c.4-10.59 15.6-10.6 16 0zm109.67-90.35a8 8 0 0 1 -5.67 2.35h-72c-10.58.39-10.61 15.6 0 16h72c10.57.3 10.58 15.7 0 16h-72a8 8 0 0 0 0 16h48c7-.13 10.68 8.79 5.67 13.65a8 8 0 0 1 -5.67 2.35h-64v-8c.35-16.6-17.62-28.71-32.85-22.3-4.46-17-26.07-23.53-39.15-11.57-13.08-12-34.7-5.41-39.15 11.57-15.23-6.41-33.2 5.7-32.85 22.3v8h-48v-115.72l123.08-82c9.11-6.26 22 .65 21.85 11.69a14 14 0 0 1 -4.12 9.95l-2.47 2.47-24 24a8 8 0 0 0 0 11.32l21.66 21.6v8.69a28 28 0 0 0 28 28c17.49-.15 29.49-14.9 28-32h72c10.59.38 10.59 15.65 0 16h-56a8 8 0 0 0 0 16h72c7-.09 10.68 8.76 5.67 13.65zm146.33-252.85v-24.8a8 8 0 0 0 -8-8v-72a8 8 0 0 0 -8-8h-48a8 8 0 0 0 -8 8v8h-88a8 8 0 0 0 -5.66 2.34l-40 40a8 8 0 0 0 0 11.32l24 24a8 8 0 0 0 11.32 0l29.65-29.66h68.69v16a8 8 0 0 0 -8 8v24.8a40.07 40.07 0 0 0 -32 39.2v320a8 8 0 0 0 8 8h128a8 8 0 0 0 8-8v-320a40.07 40.07 0 0 0 -32-39.2zm16 143.2c-17.13-13.37-43.48-9.36-56 8-12.53-17.36-38.87-21.36-56-8v-96h112zm0 32a24 24 0 0 1 -24 24c-31.84-1.32-31.83-46.69 0-48a24 24 0 0 1 24 24zm-80-192h48v16h-48zm-80-48a8 8 0 0 0 -5.66 2.34l-26.34 26.35-12.69-12.69 32-32h84.69v16zm88 8v-40h32v64h-32zm-16 72h64a24 24 0 0 1 22.63 16h-109.26a24 24 0 0 1 22.63-16zm-24 336v-176a24 24 0 0 1 48 0 40 40 0 0 0 64 32v144zm-144-260.72c16.86 17.57 47.2 17.58 64.06 0a45.41 45.41 0 0 0 5.66-57.16l-31-46.56a8 8 0 0 0 -13.32 0l-31 46.56a45.41 45.41 0 0 0 5.6 57.16zm7.62-48.28 24.38-36.58 24.38 36.58c12.95 19.19-1.21 45.76-24.38 45.56-23.17.19-37.33-26.39-24.38-45.56zm-127.62-19a48.05 48.05 0 0 0 48-48c-2.64-63.68-93.37-63.66-96 0a48.05 48.05 0 0 0 48 48zm0-80a32 32 0 0 1 32 32c-1.76 42.45-62.25 42.44-64 0a32 32 0 0 1 32-32zm-88 136a8 8 0 0 1 8-8h8v-8a8 8 0 0 1 16 0v8h8a8 8 0 0 1 0 16h-8v8a8 8 0 0 1 -16 0v-8h-8a8 8 0 0 1 -8-8zm160-152a8 8 0 0 1 8-8h8v-8a8 8 0 0 1 16 0v8h8a8 8 0 0 1 0 16h-8v8a8 8 0 0 1 -16 0v-8h-8a8 8 0 0 1 -8-8zm160 216a8 8 0 0 1 -8 8h-8v8a8 8 0 0 1 -16 0v-8h-8a8 8 0 0 1 0-16h8v-8a8 8 0 0 1 16 0v8h8a8 8 0 0 1 8 8zm64 88a24 24 0 0 0 -24 24c1.32 31.84 46.69 31.83 48 0a24 24 0 0 0 -24-24zm0 32a8 8 0 0 1 -8-8c.4-10.6 15.6-10.6 16 0a8 8 0 0 1 -8 8zm48 48a8 8 0 0 1 -8 8c-10.6-.39-10.6-15.61 0-16a8 8 0 0 1 8 8zm-40-216a8 8 0 0 1 8-8c10.6.39 10.6 15.61 0 16a8 8 0 0 1 -8-8zm-24 80a8 8 0 0 1 8-8c10.6.39 10.6 15.61 0 16a8 8 0 0 1 -8-8z"/></g></svg>