<svg height="512pt" viewBox="0 0 512 512" width="512pt" xmlns="http://www.w3.org/2000/svg"><path d="m48 0h416c26.507812 0 48 21.492188 48 48v416c0 26.507812-21.492188 48-48 48h-416c-26.507812 0-48-21.492188-48-48v-416c0-26.507812 21.492188-48 48-48zm0 0" fill="#f45747"/><path d="m48 32h416c8.835938 0 16 7.164062 16 16v416c0 8.835938-7.164062 16-16 16h-416c-8.835938 0-16-7.164062-16-16v-416c0-8.835938 7.164062-16 16-16zm0 0" fill="#ff6853"/><path d="m336 352h-208c-17.671875 0-32-14.328125-32-32v-128c0-17.671875 14.328125-32 32-32h208v28.480469h32v135.039062h-32zm0 0" fill="#464a5e"/><path d="m272 208h32v32h-32zm0 0" fill="#fff"/><path d="m272 272h32v32h-32zm0 0" fill="#fff"/><path d="m336 188.480469 80-16v167.039062l-80-16zm0 0" fill="#ccdade"/><path d="m336 320h-208c-17.671875 0-32-14.328125-32-32v32c0 17.671875 14.328125 32 32 32h208zm0 0" fill="#3c3f50"/><path d="m336 323.519531 80 16v-44.496093l-80-16zm0 0" fill="#b6cdd3"/></svg>