<svg id="Layer_1" enable-background="new 0 0 256 256" height="512" viewBox="0 0 256 256" width="512" xmlns="http://www.w3.org/2000/svg"><path d="m156.847 233.615h-136.193v-19.148c0-17.551 14.228-31.778 31.778-31.778h72.636c17.551 0 31.778 14.228 31.778 31.778v19.148z" fill="#6bdddd"/><path d="m148.163 99.397c-.126 0-.248.016-.373.019v-5.521c0-32.268-26.433-58.427-59.039-58.427-32.607 0-59.039 26.159-59.039 58.427v5.521c-.125-.003-.247-.019-.373-.019-9.948 0-18.012 7.981-18.012 17.825 0 9.845 8.064 17.825 18.012 17.825.653 0 1.297-.039 1.933-.106 6.092 25.848 29.506 45.109 57.48 45.109 27.975 0 51.388-19.261 57.48-45.109.635.067 1.279.106 1.933.106 9.948 0 18.012-7.981 18.012-17.825-.002-9.845-8.066-17.825-18.014-17.825z" fill="#f9cfcf"/><path d="m93.114 179.874c-.238.019-.476.039-.715.054-.37.023-.741.042-1.114.058-.841.038-1.685.064-2.535.064s-1.695-.026-2.536-.064c-.372-.016-.744-.035-1.114-.058-.238-.016-.475-.036-.712-.054-8.695-.63-16.868-3.108-24.108-7.065v6.784c0 15.773 12.336 28.559 27.554 28.559h1.832c15.218 0 27.554-12.786 27.554-28.559v-6.785c-7.239 3.958-15.412 6.436-24.106 7.066z" fill="#f9cfcf"/><path d="m156.847 235.615h-136.193c-1.104 0-2-.896-2-2v-19.148c0-18.625 15.153-33.777 33.778-33.777h5.868c-.013-.368-.02-.734-.02-1.097v-6.783c0-.706.373-1.36.98-1.721.607-.358 1.36-.373 1.979-.034 7.19 3.93 15.027 6.226 23.293 6.824l.699.054c.348.021.707.04 1.067.056 1.635.074 3.273.074 4.896 0 .367-.016.725-.034 1.083-.056l.681-.053c8.275-.6 16.111-2.896 23.302-6.826.619-.339 1.372-.325 1.979.034.607.36.98 1.015.98 1.721v6.784c0 .362-.007.729-.02 1.097h5.868c18.625 0 33.778 15.152 33.778 33.777v19.148c.002 1.105-.894 2-1.998 2zm-134.193-4h132.192v-17.148c0-16.419-13.358-29.777-29.778-29.777h-8.012c-.566 0-1.106-.24-1.486-.661-.379-.421-.562-.982-.503-1.546.102-.978.153-1.949.153-2.89v-3.514c-6.87 3.285-14.242 5.23-21.961 5.79l-.729.056c-.393.023-.775.044-1.16.06-1.729.077-3.503.077-5.245 0-.378-.016-.762-.036-1.145-.06l-.747-.057c-7.711-.559-15.083-2.504-21.952-5.788v3.513c0 .94.052 1.912.153 2.89.059.563-.125 1.125-.503 1.546-.379.421-.919.661-1.486.661h-8.012c-16.42 0-29.778 13.358-29.778 29.777v17.148z" fill="#3762cc"/><path d="m88.75 182.051c-27.943 0-51.97-18.423-59.016-45.008-.133.003-.266.004-.397.004-11.035 0-20.012-8.894-20.012-19.825 0-10.39 8.108-18.938 18.385-19.761v-3.566c0-33.319 27.382-60.427 61.04-60.427s61.04 27.107 61.04 60.427v3.566c10.277.823 18.385 9.371 18.385 19.761 0 10.932-8.978 19.825-20.012 19.825-.131 0-.264-.001-.397-.004-7.045 26.585-31.073 45.008-59.016 45.008zm-57.478-49.11c.917 0 1.73.63 1.945 1.541 6.046 25.652 28.882 43.568 55.533 43.568s49.487-17.916 55.533-43.568c.231-.98 1.159-1.626 2.158-1.53.59.063 1.169.095 1.722.095 8.829 0 16.012-7.1 16.012-15.825 0-8.723-7.178-15.82-16.002-15.825-.162.011-.256.017-.352.019-.538.003-1.053-.198-1.435-.575-.382-.376-.597-.889-.597-1.425v-5.521c0-31.114-25.588-56.427-57.04-56.427s-57.04 25.313-57.04 56.427v5.521c0 .536-.215 1.049-.597 1.425s-.872.57-1.435.575c-.096-.002-.191-.008-.286-.015-.002 0-.006 0-.008 0-8.882 0-16.06 7.098-16.06 15.821 0 8.726 7.183 15.825 16.012 15.825.56 0 1.123-.031 1.722-.095.074-.007.145-.011.215-.011z" fill="#3762cc"/><path d="m10.314 78.714c-2.672-7.154-2.861-14.998-.539-22.273l.2-.625c3.799-11.901 13.809-20.766 26.081-23.1 5.793-1.102 11.772-.681 17.353 1.222l.652.222c.038.338.095.678.177 1.016 2.68 10.954 7.599 21.05 14.284 29.726-5.802 16.162-12.9 25.376-18.311 30.478v.001l-7.102 7.209-13.771-3.193c-3.763 0-7.254 1.145-10.143 3.098z" fill="#4671c6"/><path d="m158.717 54.216c-4.632-14.373-15.213-25.794-28.74-31.425l.001-.008c-47.554-23.409-73.563 4.833-73.563 4.833-1.958 1.884-2.866 4.749-2.178 7.559 5.459 22.315 20.168 41.104 40.297 51.472l.028.014c4.345 2.238 8.883 4.066 13.555 5.46 1.162.347 2.099-.999 1.395-2.003l-9.778-13.953c-.852-1.216.645-2.701 1.807-1.79 10.812 8.466 31.819 22.492 53.069 23.196l3.46-9.476c3.978-10.89 4.206-22.838.647-33.879z" fill="#4671c6"/><g fill="#3762cc"><path d="m43.109 104.59c-.15 0-.302-.017-.452-.052l-13.542-3.14c-3.156.042-6.195.992-8.801 2.753-.508.343-1.146.434-1.729.248-.584-.188-1.05-.631-1.264-1.205l-8.881-23.78c0-.001 0-.001 0-.001-2.815-7.539-3.018-15.914-.571-23.58l.2-.625c4.026-12.612 14.606-21.983 27.612-24.457 6.12-1.165 12.473-.717 18.372 1.294l.653.223c.733.25 1.255.901 1.341 1.672.028.254.071.509.133.763 2.593 10.603 7.278 20.353 13.925 28.979.416.54.528 1.255.298 1.896-6.059 16.882-13.579 26.316-18.82 31.258l-7.049 7.158c-.381.385-.896.596-1.425.596zm-13.771-7.194c.152 0 .304.018.452.052l12.68 2.94 6.316-6.411c4.871-4.595 11.761-13.238 17.482-28.735-6.63-8.844-11.327-18.785-13.968-29.565-5.111-1.656-10.587-2.001-15.872-.996-11.562 2.199-20.969 10.531-24.548 21.744l-.2.625c-2.176 6.815-1.996 14.261.507 20.965l8.048 21.551c2.807-1.425 5.911-2.17 9.103-2.17z"/><path d="m154.61 99.573c-.022 0-.044 0-.067-.001-19.625-.65-38.956-12.305-50.57-20.84l7.176 10.24c.822 1.172.812 2.681-.026 3.843-.825 1.146-2.23 1.629-3.578 1.224-4.783-1.427-9.459-3.311-13.899-5.6-20.688-10.656-35.75-29.891-41.352-52.788-.832-3.4.201-7.011 2.694-9.438.653-.694 7.347-7.572 19.746-11.69 11.71-3.891 30.956-5.927 56.128 6.466.016.008.032.016.048.024 14.122 5.935 24.945 17.803 29.711 32.589 3.681 11.42 3.442 23.914-.672 35.181l-3.46 9.476c-.289.791-1.041 1.314-1.879 1.314zm-53.851-27.483c.702 0 1.408.236 2.016.713 10.241 8.019 30.218 21.444 50.461 22.703l2.956-8.095c3.811-10.434 4.031-22.005.623-32.582-4.424-13.726-14.485-24.73-27.605-30.191-.094-.039-.184-.085-.269-.137-45.583-22.348-70.803 4.2-71.053 4.47-.027.03-.056.059-.084.087-1.5 1.442-2.121 3.604-1.622 5.643 5.326 21.771 19.639 40.058 39.27 50.17 3.624 1.867 7.391 3.444 11.241 4.71l-8.595-12.266c-.953-1.359-.771-3.174.433-4.313.636-.606 1.429-.912 2.228-.912z"/><path d="m52.767 115.395v7.747c0 3.728 3.037 6.761 6.771 6.761 3.733 0 6.77-3.033 6.77-6.761v-10.51z"/><path d="m47.934 118.381c-.931 0-1.765-.652-1.958-1.601-.221-1.082.478-2.139 1.56-2.359l23.203-4.733c1.08-.222 2.138.478 2.359 1.561.221 1.082-.478 2.139-1.56 2.359l-23.203 4.733c-.134.027-.269.04-.401.04z"/><path d="m123.991 115.395v7.747c0 3.728-3.037 6.761-6.771 6.761-3.733 0-6.77-3.033-6.77-6.761v-10.51z"/><path d="m128.823 118.381c-.132 0-.267-.013-.402-.04l-23.203-4.733c-1.082-.221-1.781-1.277-1.56-2.359.22-1.082 1.272-1.778 2.359-1.561l23.203 4.733c1.082.221 1.781 1.277 1.56 2.359-.192.948-1.026 1.601-1.957 1.601z"/><path d="m100.165 153.968c-1.104 0-2-.896-2-2 0-1.404-.624-2.765-1.803-3.933-1.048-1.038-2.482-1.851-4.146-2.348-1.001-.299-2.137-.444-3.472-.444s-2.471.146-3.472.444c-1.664.497-3.098 1.31-4.147 2.348-1.179 1.168-1.802 2.528-1.802 3.933 0 1.104-.896 2-2 2s-2-.896-2-2c0-2.46 1.061-4.866 2.987-6.774 1.515-1.5 3.526-2.653 5.816-3.338 1.378-.412 2.889-.612 4.618-.612s3.239.2 4.618.612c2.291.685 4.302 1.839 5.815 3.338 1.927 1.908 2.988 4.314 2.988 6.774 0 1.104-.896 2-2 2z"/></g><path d="m59.638 137.552c-3.085 0-6.04-1.475-7.903-3.944-.831-1.103-.612-2.67.491-3.502 1.103-.83 2.67-.61 3.501.49.937 1.243 2.363 1.956 3.911 1.956 1.625 0 3.142-.808 4.058-2.161.774-1.144 2.329-1.445 3.472-.669 1.144.774 1.443 2.328.669 3.472-1.848 2.729-4.913 4.358-8.199 4.358z" fill="#a4c9ff"/><path d="m117.824 137.552c-3.084 0-6.039-1.475-7.902-3.944-.832-1.103-.612-2.67.49-3.502 1.102-.83 2.67-.611 3.501.49.938 1.243 2.363 1.956 3.911 1.956 1.625 0 3.142-.808 4.058-2.161.773-1.144 2.327-1.445 3.471-.669 1.144.773 1.443 2.328.669 3.472-1.846 2.728-4.911 4.358-8.198 4.358z" fill="#a4c9ff"/><path d="m241.838 248h-94.667c-3.314 0-6-2.686-6-6v-51.862c0-3.314 2.686-6 6-6h94.667c3.314 0 6 2.686 6 6v51.862c0 3.314-2.686 6-6 6z" fill="#4671c6"/><path d="m154.172 232v-31.862c0-1.657 1.343-3 3-3h74.667c1.657 0 3 1.343 3 3v31.862c0 1.657-1.343 3-3 3h-74.667c-1.657 0-3-1.343-3-3z" fill="#a4c9ff"/><path d="m218.005 184.167h-47v-7.333c0-1.657 1.343-3 3-3h41c1.657 0 3 1.343 3 3z" fill="#f9a7a7"/><path d="m171.935 213.363c1.031 0 1.918-.303 2.664-.908.745-.605 1.118-1.473 1.118-2.605 0-.862-.297-1.605-.891-2.227s-1.395-.933-2.403-.933c-.684 0-1.247.095-1.689.286-.443.191-.793.443-1.051.756-.258.314-.501.717-.731 1.21s-.44.958-.63 1.395c-.112.235-.314.42-.605.555-.292.134-.628.202-1.009.202-.448 0-.86-.182-1.235-.546s-.563-.849-.563-1.454c0-.582.177-1.196.53-1.84s.868-1.257 1.546-1.84 1.521-1.05 2.53-1.403 2.135-.529 3.378-.529c1.086 0 2.078.148 2.975.445s1.675.726 2.336 1.286c.661.561 1.16 1.21 1.496 1.95s.504 1.535.504 2.387c0 1.121-.244 2.082-.731 2.882-.487.801-1.185 1.583-2.093 2.345.874.471 1.611 1.008 2.21 1.614.599.605 1.05 1.274 1.353 2.008.302.734.454 1.527.454 2.378 0 1.02-.205 2.006-.613 2.958-.409.953-1.011 1.801-1.807 2.546-.795.745-1.739 1.328-2.832 1.748-1.092.42-2.3.63-3.622.63-1.344 0-2.549-.241-3.613-.723-1.065-.481-1.941-1.084-2.63-1.807s-1.21-1.471-1.563-2.244-.529-1.412-.529-1.916c0-.65.21-1.174.63-1.572.42-.397.944-.597 1.571-.597.314 0 .616.093.908.277.292.185.482.406.572.664.583 1.558 1.207 2.714 1.874 3.471.667.756 1.605 1.134 2.815 1.134.695 0 1.364-.17 2.009-.512.644-.342 1.176-.849 1.597-1.521.42-.672.63-1.451.63-2.336 0-1.311-.359-2.339-1.076-3.084s-1.714-1.118-2.992-1.118c-.225 0-.572.023-1.042.067-.47.045-.773.067-.907.067-.617 0-1.093-.154-1.429-.462s-.504-.737-.504-1.286c0-.538.202-.972.605-1.303s1.003-.496 1.798-.496h.687z" fill="#e0ebfc"/><path d="m200.19 225.738-.954-2.508h-8.123l-.954 2.563c-.373 1-.69 1.674-.954 2.023-.264.35-.695.525-1.295.525-.509 0-.958-.187-1.349-.559s-.586-.795-.586-1.267c0-.272.045-.554.136-.845s.241-.695.45-1.213l5.11-12.974c.146-.373.32-.82.525-1.342s.422-.956.654-1.302c.231-.345.536-.625.913-.838s.842-.32 1.396-.32c.563 0 1.034.107 1.411.32s.682.488.913.824c.232.336.427.698.586 1.083.159.386.361.902.606 1.547l5.22 12.892c.409.981.613 1.695.613 2.14 0 .463-.193.888-.579 1.274s-.852.579-1.397.579c-.318 0-.591-.057-.818-.17-.227-.114-.418-.268-.572-.463-.155-.195-.32-.495-.498-.899s-.326-.761-.454-1.07zm-8.013-5.546h5.969l-3.012-8.245z" fill="#e0ebfc"/><path d="m214.227 224.988-3.203-12.729v13.792c0 .763-.17 1.335-.511 1.717-.341.381-.793.572-1.356.572-.545 0-.991-.189-1.336-.566-.345-.376-.518-.951-.518-1.724v-15.809c0-.872.227-1.46.681-1.765s1.067-.457 1.84-.457h1.254c.754 0 1.301.068 1.642.204.341.137.593.382.756.736.164.354.35.931.559 1.73l2.903 10.943 2.903-10.943c.209-.799.395-1.376.559-1.73s.416-.6.756-.736c.341-.136.888-.204 1.643-.204h1.253c.772 0 1.386.152 1.84.457s.682.893.682 1.765v15.809c0 .763-.17 1.335-.511 1.717-.341.381-.797.572-1.37.572-.536 0-.977-.191-1.322-.572-.346-.382-.518-.954-.518-1.717v-13.79l-3.203 12.729c-.209.827-.379 1.433-.511 1.819s-.375.738-.729 1.056-.845.477-1.472.477c-.472 0-.872-.103-1.199-.307-.327-.205-.582-.466-.763-.784s-.325-.67-.429-1.056-.211-.788-.32-1.206z" fill="#e0ebfc"/><path d="m207.523 48.55c-10.5-10.5-13.567-25.618-9.203-38.817.314-.951-.663-1.822-1.56-1.375-3.91 1.948-7.554 4.612-10.736 7.993-14.099 14.981-13.605 38.719 1.075 53.13 14.855 14.582 38.718 14.498 53.469-.252 2.984-2.984 5.367-6.342 7.151-9.923.445-.894-.427-1.867-1.375-1.553-13.201 4.365-28.32 1.299-38.821-9.203z" fill="#ffea92"/><path d="m229.08 21.057 2.445 4.955c.274.556.805.941 1.418 1.03l5.468.795c1.545.224 2.161 2.123 1.044 3.212l-3.957 3.857c-.444.433-.646 1.056-.542 1.667l.934 5.446c.264 1.538-1.351 2.711-2.732 1.985l-4.891-2.571c-.549-.288-1.204-.288-1.753 0l-4.891 2.571c-1.381.726-2.996-.447-2.732-1.985l.934-5.446c.105-.611-.098-1.234-.542-1.667l-3.957-3.857c-1.118-1.089-.501-2.988 1.044-3.212l5.468-.795c.613-.089 1.144-.474 1.418-1.03l2.445-4.955c.692-1.399 2.688-1.399 3.379 0z" fill="#ffea92"/><path d="m195.992 85.594 2.154 4.364c.242.49.709.829 1.249.907l4.816.7c1.36.198 1.904 1.87.919 2.829l-3.485 3.397c-.391.381-.569.93-.477 1.468l.823 4.797c.232 1.355-1.19 2.388-2.407 1.748l-4.308-2.265c-.483-.254-1.06-.254-1.544 0l-4.308 2.265c-1.217.64-2.639-.394-2.407-1.748l.823-4.797c.092-.538-.086-1.087-.477-1.468l-3.485-3.397c-.984-.96-.441-2.631.919-2.829l4.816-.7c.54-.078 1.007-.418 1.249-.907l2.154-4.364c.61-1.232 2.368-1.232 2.976 0z" fill="#ffea92"/><path d="m241.838 250h-94.667c-4.411 0-8-3.589-8-8v-51.862c0-4.411 3.589-8 8-8h94.667c4.411 0 8 3.589 8 8v51.862c0 4.411-3.588 8-8 8zm-94.667-63.862c-2.206 0-4 1.794-4 4v51.862c0 2.206 1.794 4 4 4h94.667c2.206 0 4-1.794 4-4v-51.862c0-2.206-1.794-4-4-4z" fill="#3762cc"/><path d="m231.838 237h-74.667c-2.757 0-5-2.243-5-5v-31.861c0-2.757 2.243-5 5-5h74.667c2.757 0 5 2.243 5 5v31.861c0 2.757-2.243 5-5 5zm-74.666-37.861c-.551 0-1 .448-1 1v31.861c0 .552.449 1 1 1h74.667c.551 0 1-.448 1-1v-31.861c0-.552-.449-1-1-1z" fill="#3762cc"/><path d="m218.005 186.167h-47c-1.104 0-2-.896-2-2v-7.334c0-2.757 2.243-5 5-5h41c2.757 0 5 2.243 5 5v7.334c0 1.104-.896 2-2 2zm-45-4h43v-5.334c0-.552-.449-1-1-1h-41c-.551 0-1 .448-1 1z" fill="#3762cc"/><path d="m213.701 82.307c-10.128.001-20.258-3.795-28.003-11.397-15.41-15.128-15.917-40.218-1.131-55.93 3.271-3.475 7.073-6.305 11.301-8.411 1.127-.564 2.472-.395 3.426.433.961.833 1.324 2.151.925 3.36-4.3 13.006-.96 27.097 8.718 36.775 9.68 9.678 23.772 13.019 36.779 8.717 1.206-.401 2.526-.036 3.359.924.824.951.995 2.294.435 3.42-1.922 3.858-4.455 7.373-7.527 10.445-7.773 7.772-18.026 11.664-28.282 11.664zm-17.894-71.171c-3.071 1.762-5.866 3.971-8.327 6.586-13.306 14.139-12.849 36.718 1.02 50.333 14.029 13.77 36.751 13.662 50.654-.24 2.266-2.267 4.206-4.799 5.784-7.549-13.87 3.799-28.578-.05-38.829-10.301-10.252-10.251-14.104-24.959-10.302-38.829z" fill="#3762cc"/><path d="m220.744 46.225c-.802 0-1.598-.251-2.278-.745-1.205-.875-1.797-2.331-1.545-3.799l.923-5.386-3.912-3.814c-1.066-1.038-1.443-2.563-.983-3.979s1.661-2.429 3.135-2.644l5.408-.786 2.417-4.899c.659-1.336 1.994-2.165 3.482-2.165s2.823.829 3.482 2.164v.001l2.417 4.899 5.408.786c1.474.215 2.675 1.228 3.135 2.644.46 1.417.083 2.941-.983 3.98l-3.912 3.814.924 5.385c.251 1.468-.341 2.924-1.545 3.799-1.206.874-2.772.985-4.089.295l-4.836-2.543-4.837 2.543c-.574.3-1.194.45-1.811.45zm6.648-7.008c.621 0 1.241.148 1.806.445l4.682 2.461-.895-5.213c-.216-1.26.202-2.544 1.117-3.437l3.787-3.691-5.234-.761c-1.265-.184-2.357-.978-2.924-2.123l-2.34-4.744-2.341 4.743c-.566 1.146-1.659 1.94-2.925 2.124l-5.233.761 3.787 3.692c.916.892 1.333 2.177 1.117 3.437l-.894 5.212 4.682-2.461c.566-.297 1.187-.445 1.808-.445zm5.927-14.089h.01zm-4.239-4.071-1.793.885z" fill="#3762cc"/><path d="m200.36 108c-.582 0-1.166-.14-1.706-.424l-4.149-2.182-4.149 2.182c-1.242.65-2.718.548-3.854-.279-1.135-.824-1.692-2.195-1.455-3.577l.792-4.621-3.357-3.271c-1.005-.98-1.359-2.418-.925-3.752s1.565-2.288 2.954-2.489l4.639-.674 2.074-4.203c.621-1.259 1.878-2.04 3.281-2.04s2.66.781 3.281 2.04l2.074 4.203 4.639.674c1.388.201 2.52 1.155 2.953 2.489.434 1.334.08 2.771-.925 3.751l-3.357 3.271.792 4.621c.237 1.382-.32 2.753-1.455 3.577-.641.468-1.392.704-2.147.704zm-14.589-14.554 2.99 2.913c.863.843 1.256 2.053 1.052 3.239l-.706 4.115 3.695-1.943c1.067-.561 2.34-.56 3.405 0l3.696 1.943-.706-4.115c-.204-1.187.189-2.396 1.051-3.237l2.991-2.915-4.132-.601c-1.19-.173-2.221-.921-2.754-2.001l-1.848-3.744-1.848 3.743c-.534 1.081-1.564 1.829-2.756 2.002zm18.153.1h.01z" fill="#3762cc"/></svg>