<svg id="Layer_1" enable-background="new 0 0 256 256" height="512" viewBox="0 0 256 256" width="512" xmlns="http://www.w3.org/2000/svg"><path d="m150.5 61.57v-51.57c0-1.105-.895-2-2-2h-40.999c-1.105 0-2 .895-2 2v51.57c0 2.684-1.79 5.018-4.367 5.767-11.757 3.415-20.236 14.532-19.6 27.531.662 13.543 11.473 24.72 24.989 25.794 7.175.57 13.823-1.642 18.983-5.671 1.473-1.15 3.515-1.15 4.988 0 5.16 4.029 11.808 6.241 18.983 5.671 13.516-1.073 24.327-12.25 24.99-25.792.636-12.999-7.843-24.117-19.6-27.532-2.578-.75-4.367-3.085-4.367-5.768z" fill="#e0ebfc"/><path d="m172.43 160.519c-.941-13.316-11.678-24.142-24.987-25.183-5.047-.395-9.832.587-14.021 2.609-3.445 1.663-7.4 1.663-10.845 0-4.189-2.022-8.974-3.005-14.021-2.609-13.309 1.042-24.045 11.868-24.986 25.184-.909 12.868 7.124 23.999 18.512 27.817 2.039.684 3.418 2.583 3.418 4.734v52.929c0 1.105.895 2 2 2h40.999c1.105 0 2-.895 2-2v-52.929c0-2.151 1.38-4.05 3.419-4.734 11.388-3.818 19.421-14.949 18.512-27.818z" fill="#e0ebfc"/><path d="m108.931 135.336c3.507-.274 6.887.116 10.029 1.058 6.14 1.841 12.69 1.841 18.83 0 3.142-.942 6.522-1.332 10.028-1.058.613.048 1.221.117 1.822.206 3.149.468 5.985-1.932 5.985-5.116v-4.613c0-3.073-2.651-5.408-5.714-5.157-.02.002-.04.003-.06.005-3.73.296-7.317-.159-10.628-1.231-7.08-2.292-14.618-2.292-21.698 0-3.31 1.072-6.898 1.527-10.628 1.231-.266-.021-.531-.046-.795-.075-3.061-.337-5.727 2.07-5.727 5.149v4.76c0 3.198 2.86 5.721 6.009 5.165.837-.148 1.686-.257 2.547-.324z" fill="#f9cfcf"/><path d="m147.271 122.749c-6.532 0-12.851-2.155-18.008-6.183-.756-.59-1.771-.59-2.527 0-5.777 4.513-13.007 6.673-20.373 6.089-14.579-1.158-26.112-13.062-26.828-27.689-.666-13.606 7.986-25.758 21.04-29.55 1.75-.508 2.925-2.054 2.925-3.847v-51.569c0-2.206 1.794-4 4-4h41c2.206 0 4 1.794 4 4v51.569c0 1.793 1.175 3.339 2.925 3.847 13.053 3.792 21.705 15.943 21.04 29.551-.717 14.627-12.251 26.53-26.83 27.688-.79.063-1.578.094-2.364.094zm-19.271-10.619c1.314 0 2.628.428 3.725 1.284 4.986 3.894 11.235 5.765 17.594 5.253 12.58-.998 22.533-11.271 23.15-23.896.575-11.75-6.893-22.241-18.16-25.514-3.42-.994-5.809-4.155-5.809-7.688v-51.569h-40.999v51.569c0 3.533-2.389 6.694-5.809 7.688-11.268 3.273-18.735 13.764-18.161 25.514.617 12.625 10.569 22.898 23.149 23.896 6.358.506 12.608-1.361 17.594-5.253 1.098-.856 2.412-1.284 3.726-1.284z" fill="#3762cc"/><path d="m148.499 250h-40.999c-2.206 0-4-1.794-4-4v-52.929c0-1.286-.825-2.426-2.054-2.838-12.642-4.239-20.813-16.516-19.872-29.854 1.01-14.296 12.542-25.92 26.825-27.038 5.199-.409 10.405.562 15.047 2.803 2.894 1.397 6.213 1.396 9.106 0 4.637-2.24 9.835-3.209 15.046-2.803 14.282 1.118 25.814 12.741 26.825 27.037.943 13.339-7.228 25.616-19.871 29.854-1.229.412-2.055 1.553-2.055 2.838v52.93c.002 2.206-1.792 4-3.998 4zm-37.776-112.749c-.669 0-1.339.026-2.011.079-12.325.965-22.276 10.995-23.147 23.331-.813 11.52 6.24 22.12 17.153 25.779 2.86.959 4.782 3.624 4.782 6.631v52.929h40.999v-52.929c0-3.007 1.922-5.672 4.783-6.631 10.914-3.658 17.967-14.26 17.152-25.78-.872-12.335-10.823-22.365-23.147-23.33-4.501-.354-8.992.484-12.994 2.416-4 1.932-8.586 1.932-12.585 0-3.407-1.644-7.168-2.495-10.985-2.495z" fill="#3762cc"/><path d="m128.375 139.779c-3.361 0-6.722-.489-9.99-1.47-2.997-.898-6.127-1.227-9.298-.979-.79.062-1.582.162-2.354.3-2.046.357-4.146-.206-5.755-1.558-1.654-1.388-2.603-3.421-2.603-5.577v-4.761c0-2.041.871-3.992 2.39-5.353 1.513-1.355 3.536-2.006 5.556-1.784.246.027.491.05.738.07 3.371.267 6.686-.116 9.852-1.141 7.5-2.427 15.428-2.431 22.931 0 3.162 1.024 6.478 1.411 9.853 1.14 2.107-.167 4.139.523 5.634 1.901 1.481 1.366 2.298 3.229 2.298 5.245v4.613c0 2.085-.904 4.061-2.481 5.421-1.594 1.374-3.709 1.981-5.798 1.673-.554-.082-1.116-.146-1.683-.19-3.173-.252-6.301.081-9.299.979-3.268.981-6.631 1.471-9.991 1.471zm-17.245-6.529c2.86 0 5.677.411 8.404 1.228 5.783 1.737 11.898 1.737 17.681 0 3.473-1.04 7.09-1.422 10.759-1.136.646.051 1.306.125 1.958.222.942.143 1.888-.131 2.599-.745.705-.608 1.094-1.458 1.094-2.392v-4.613c0-.886-.358-1.704-1.009-2.304-.676-.623-1.609-.938-2.542-.86-3.967.316-7.801-.13-11.466-1.317-6.695-2.166-13.772-2.166-20.466.001-3.669 1.188-7.503 1.63-11.403 1.322-.288-.023-.573-.05-.857-.081-.901-.108-1.771.18-2.447.786-.683.612-1.059 1.455-1.059 2.374v4.761c0 .972.428 1.887 1.174 2.513.712.598 1.597.84 2.487.683.898-.159 1.82-.276 2.739-.349.787-.063 1.572-.093 2.354-.093z" fill="#3762cc"/><g fill="#f9a7a7"><path d="m128 177.925c-27.529 0-49.925-22.396-49.925-49.925s22.396-49.925 49.925-49.925 49.925 22.396 49.925 49.925-22.396 49.925-49.925 49.925zm0-94.85c-24.771 0-44.925 20.153-44.925 44.925s20.153 44.925 44.925 44.925 44.925-20.153 44.925-44.925-20.154-44.925-44.925-44.925z"/><path d="m128 162.925c-19.258 0-34.925-15.667-34.925-34.925s15.667-34.925 34.925-34.925 34.925 15.667 34.925 34.925-15.667 34.925-34.925 34.925zm0-64.85c-16.5 0-29.925 13.424-29.925 29.925s13.425 29.925 29.925 29.925 29.925-13.424 29.925-29.925-13.425-29.925-29.925-29.925z"/><circle cx="128" cy="128" r="17.425"/><path d="m184.887 152.235c1.406.248 2.856-.411 3.501-1.7l8.834-17.662 3.808 4.706c.674.833 1.734 1.295 2.819 1.233 1.088-.063 2.065-.642 2.604-1.546l10.686-17.901c.894-1.498.345-3.427-1.228-4.308-1.57-.881-3.572-.381-4.466 1.117l-8.277 13.864-4.055-5.012c-.7-.865-1.809-1.328-2.936-1.224-1.126.104-2.107.761-2.595 1.736l-11.106 22.204c-.779 1.557-.087 3.445 1.546 4.217.28.133.571.224.865.276z"/><path d="m71.113 152.235c-1.406.248-2.856-.411-3.501-1.7l-8.834-17.662-3.808 4.706c-.674.833-1.734 1.295-2.819 1.233-1.088-.063-2.065-.642-2.604-1.546l-10.686-17.901c-.894-1.498-.345-3.427 1.228-4.308 1.57-.881 3.572-.381 4.466 1.117l8.277 13.864 4.055-5.012c.7-.865 1.809-1.328 2.936-1.224 1.126.104 2.107.761 2.595 1.736l11.106 22.204c.779 1.557.087 3.445-1.546 4.217-.28.133-.571.224-.865.276z"/><path d="m184.887 116.749c1.406.248 2.856-.411 3.501-1.7l8.834-17.662 3.808 4.706c.674.833 1.734 1.295 2.819 1.233 1.088-.063 2.065-.642 2.604-1.546l10.686-17.901c.894-1.498.345-3.427-1.228-4.308-1.57-.881-3.572-.381-4.466 1.117l-8.277 13.864-4.055-5.012c-.7-.865-1.809-1.328-2.936-1.224-1.126.104-2.107.761-2.595 1.736l-11.106 22.204c-.779 1.558-.087 3.445 1.546 4.217.28.133.571.224.865.276z"/><path d="m71.113 116.749c-1.406.248-2.856-.411-3.501-1.7l-8.834-17.662-3.808 4.706c-.674.833-1.734 1.295-2.819 1.233-1.088-.063-2.065-.642-2.604-1.546l-10.685-17.902c-.894-1.498-.345-3.427 1.228-4.308 1.57-.881 3.572-.381 4.466 1.117l8.277 13.864 4.055-5.012c.7-.865 1.809-1.328 2.936-1.224 1.126.104 2.107.761 2.595 1.736l11.106 22.204c.779 1.558.087 3.445-1.546 4.217-.281.134-.572.225-.866.277z"/></g></svg>