<?xml version="1.0" encoding="iso-8859-1"?>
<!-- Generator: Adobe Illustrator 19.0.0, SVG Export Plug-In . SVG Version: 6.00 Build 0)  -->
<svg version="1.1" id="Capa_1" xmlns="http://www.w3.org/2000/svg" xmlns:xlink="http://www.w3.org/1999/xlink" x="0px" y="0px"
	 viewBox="0 0 512.001 512.001" style="enable-background:new 0 0 512.001 512.001;" xml:space="preserve">
<path style="fill:#C97F65;" d="M393.553,8.497H54.945c-12.155,0-22.008,9.853-22.008,22.008v449.084
	c0,17.9,14.511,32.411,32.411,32.411c8.28,0,335.311,0,328.206,0c12.155,0,22.008-9.854,22.008-22.008V30.506
	C415.561,18.351,405.708,8.497,393.553,8.497z"/>
<path style="fill:#BA7052;" d="M116.845,8.497h-61.9c-12.155,0-22.008,9.853-22.008,22.008v449.084
	c0,17.9,14.511,32.411,32.41,32.411h51.498V8.497z"/>
<path style="fill:#AD644B;" d="M96.582,8.497H54.945c-12.155,0-22.008,9.853-22.008,22.008v449.084
	c0,17.9,14.511,32.411,32.41,32.411h31.235V8.497z"/>
<path style="fill:#99523F;" d="M52.642,8.618C41.57,9.769,32.936,19.129,32.936,30.506V479.59c0,13.39,8.121,24.881,19.705,29.823
	L52.642,8.618L52.642,8.618z"/>
<path style="fill:#B5E3EA;" d="M128.642,0c-2.591,0-4.69,2.1-4.69,4.69v91.144c0,2.334,2.567,3.756,4.546,2.519l22.743-14.214
	L153.301,0H128.642z"/>
<path style="fill:#90D8E0;" d="M142.32,0h-13.677c-2.591,0-4.69,2.1-4.69,4.69v91.144c0,2.334,2.567,3.756,4.546,2.519l13.822-8.638
	V0H142.32z"/>
<path style="fill:#E1F3F9;" d="M173.839,0c2.59,0,4.69,2.1,4.69,4.69v91.144c0,2.334-2.567,3.756-4.546,2.519L151.241,84.14V0
	H173.839z"/>
<path style="fill:#73BBEF;" d="M470.727,321.277c-4.797,0-122.88,0-128.262,0c-4.604,0-8.337,3.732-8.337,8.337v174.05
	c0,4.604,3.732,8.337,8.337,8.337h128.262c4.604,0,8.337-3.732,8.337-8.337v-174.05
	C479.064,325.009,475.331,321.277,470.727,321.277z"/>
<path style="fill:#5DA3E2;" d="M386.556,321.277c-22.876,0-41.999,0-44.091,0c-4.604,0-8.337,3.732-8.337,8.337v174.05
	c0,4.604,3.732,8.337,8.337,8.337h44.091V321.277z"/>
<path style="fill:#AD644B;" d="M348.164,57.132h-9.261c-4.267,0-7.727-3.459-7.727-7.727s3.459-7.727,7.727-7.727h9.261
	c4.267,0,7.727,3.459,7.727,7.727S352.432,57.132,348.164,57.132z"/>
<g>
	<path style="fill:#4887CC;" d="M435.251,430.215h-25.893c-4.267,0-7.727-3.459-7.727-7.727s3.459-7.727,7.727-7.727h25.893
		c4.267,0,7.727,3.459,7.727,7.727S439.518,430.215,435.251,430.215z"/>
	<path style="fill:#4887CC;" d="M445.143,457.138h-47.471c-4.267,0-7.727-3.459-7.727-7.727s3.459-7.727,7.727-7.727h47.471
		c4.267,0,7.727,3.459,7.727,7.727S449.411,457.138,445.143,457.138z"/>
	<path style="fill:#4887CC;" d="M445.143,484.062h-47.471c-4.267,0-7.727-3.459-7.727-7.727s3.459-7.727,7.727-7.727h47.471
		c4.267,0,7.727,3.459,7.727,7.727S449.411,484.062,445.143,484.062z"/>
</g>
<path style="fill:#F8BF00;" d="M333.658,273.138c22.077,0,39.974-17.897,39.974-39.974h-79.948
	C293.684,255.241,311.581,273.138,333.658,273.138z"/>
<path style="fill:#EFA603;" d="M314.289,233.164h-20.605c0,22.077,17.897,39.974,39.974,39.974c3.563,0,7.015-0.472,10.302-1.347
	C326.878,267.246,314.289,251.678,314.289,233.164z"/>
<g>
	<path style="fill:#E1F3F9;" d="M301.477,240.893c-0.977,0-1.97-0.186-2.93-0.581c-3.948-1.62-5.835-6.133-4.215-10.081
		l30.448-74.207c1.485-3.618,4.969-5.954,8.878-5.954h0.001c3.909,0.001,7.393,2.338,8.876,5.954l30.448,74.207
		c1.62,3.948-0.267,8.461-4.215,10.081c-3.948,1.623-8.462-0.268-10.082-4.216l-25.029-60.999l-25.029,60.999
		C307.404,239.085,304.52,240.893,301.477,240.893z"/>
	<path style="fill:#E1F3F9;" d="M344.727,165.525H163.089c-4.267,0-7.727-3.459-7.727-7.727s3.459-7.727,7.727-7.727h181.637
		c4.267,0,7.727,3.459,7.727,7.727S348.994,165.525,344.727,165.525z"/>
	<path style="fill:#E1F3F9;" d="M253.908,322.82c-4.267,0-7.727-3.459-7.727-7.727V125.27c0-4.268,3.459-7.727,7.727-7.727
		c4.267,0,7.727,3.459,7.727,7.727v189.823C261.635,319.361,258.175,322.82,253.908,322.82z"/>
</g>
<path style="fill:#F8BF00;" d="M297.371,331.812L297.371,331.812c0-13.754-11.15-24.904-24.903-24.904h-37.118
	c-13.754,0-24.903,11.15-24.903,24.904c0,0.837,0.679,1.516,1.516,1.516h83.893C296.692,333.328,297.371,332.649,297.371,331.812z"
	/>
<path style="fill:#EFA603;" d="M231.05,331.812c0-13.754,11.15-24.904,24.903-24.904h-20.605c-13.754,0-24.903,11.15-24.903,24.904
	c0,0.837,0.679,1.516,1.516,1.516h20.605C231.729,333.328,231.05,332.649,231.05,331.812z"/>
<path style="fill:#FFD261;" d="M298.572,331.306h-89.326c-5.365,0-9.715,4.35-9.715,9.715v3.778c0,5.365,4.35,9.715,9.715,9.715
	h89.326c5.366,0,9.715-4.35,9.715-9.715v-3.778C308.286,335.656,303.938,331.306,298.572,331.306z"/>
<g>
	<path style="fill:#F8BF00;" d="M220.135,344.799v-3.778c0-5.366,4.35-9.715,9.715-9.715h-20.605c-5.365,0-9.715,4.35-9.715,9.715
		v3.778c0,5.365,4.35,9.715,9.715,9.715h20.605C224.484,354.515,220.135,350.165,220.135,344.799z"/>
	<path style="fill:#F8BF00;" d="M174.158,273.138c22.077,0,39.974-17.897,39.974-39.974h-79.948
		C134.184,255.241,152.081,273.138,174.158,273.138z"/>
</g>
<path style="fill:#EFA603;" d="M154.789,233.164h-20.605c0,22.077,17.897,39.974,39.974,39.974c3.563,0,7.015-0.472,10.302-1.347
	C167.378,267.246,154.789,251.678,154.789,233.164z"/>
<path style="fill:#E1F3F9;" d="M141.978,240.893c-0.977,0-1.97-0.186-2.93-0.581c-3.948-1.62-5.835-6.133-4.215-10.081
	l30.448-74.207c1.483-3.617,4.968-5.954,8.877-5.954c3.91,0,7.394,2.337,8.878,5.954l30.448,74.207
	c1.62,3.948-0.267,8.461-4.215,10.081c-3.948,1.623-8.462-0.268-10.082-4.216l-25.029-60.999l-25.029,60.999
	C147.903,239.085,145.019,240.893,141.978,240.893z"/>
<path style="fill:#4887CC;" d="M365.951,321.277c-12.873,0-22.072,0-23.486,0c-4.604,0-8.337,3.732-8.337,8.337v174.05
	c0,4.604,3.733,8.337,8.337,8.337h23.486V321.277z"/>
<path style="fill:#2C75B7;" d="M354.733,321.277c-6.795,0-11.313,0-12.268,0c-4.604,0-8.337,3.732-8.337,8.337v174.05
	c0,4.604,3.733,8.337,8.337,8.337h12.268V321.277z"/>
<g>
	<path style="fill:#FFD261;" d="M380.48,240.891h-93.644c-4.267,0-7.727-3.459-7.727-7.727s3.459-7.727,7.727-7.727h93.644
		c4.267,0,7.727,3.459,7.727,7.727S384.747,240.891,380.48,240.891z"/>
	<path style="fill:#FFD261;" d="M220.98,240.891h-93.644c-4.267,0-7.727-3.459-7.727-7.727s3.459-7.727,7.727-7.727h93.644
		c4.267,0,7.727,3.459,7.727,7.727S225.248,240.891,220.98,240.891z"/>
</g>
<g>
</g>
<g>
</g>
<g>
</g>
<g>
</g>
<g>
</g>
<g>
</g>
<g>
</g>
<g>
</g>
<g>
</g>
<g>
</g>
<g>
</g>
<g>
</g>
<g>
</g>
<g>
</g>
<g>
</g>
</svg>
