<svg height="496pt" viewBox="-60 0 496 496.032" width="496pt" xmlns="http://www.w3.org/2000/svg"><path d="m376.015625 0v416h-320v-416zm-63.910156 168.160156h-48c0 13.199219 10.71875 24 24 24 13.269531 0 24-10.800781 24-24zm-144.007813 0h-48c0 13.199219 10.804688 24 24 24 13.277344 0 24-10.800781 24-24zm0 0" fill="#656d78"/><path d="m56.015625 0v416h-16c-22.160156 0-40 17.921875-40 40v-416c0-22.078125 17.839844-40 40-40zm0 0" fill="#ccd1d9"/><path d="m376.046875 456v40h-336.03125c-22.160156 0-40-17.921875-40-40s17.839844-40 40-40h336.03125zm0 0" fill="#e6e9ed"/><path d="m376.046875 448.015625h-336.03125c-4.421875 0-8 3.578125-8 8 0 4.425781 3.578125 8 8 8h336.03125zm0 0" fill="#ccd1d9"/><path d="m312.175781 336.128906h-192.0625c-4.425781 0-8-3.578125-8-8 0-4.425781 3.574219-8 8-8h192.0625c4.425781 0 8 3.574219 8 8 0 4.421875-3.582031 8-8 8zm0 0" fill="#545c66"/><path d="m264.175781 360.121094h-96.046875c-4.425781 0-8-3.578125-8-8 0-4.425782 3.574219-8 8-8h96.046875c4.425781 0 8 3.574218 8 8 0 4.421875-3.582031 8-8 8zm0 0" fill="#545c66"/><path d="m216.144531 264.144531c-4.425781 0-8-3.578125-8-8v-184.023437c0-4.417969 3.574219-8 8-8 4.421875 0 8 3.582031 8 8v184.023437c0 4.414063-3.585937 8-8 8zm0 0" fill="#f6bb42"/><path d="m280.144531 264.144531h-128c-4.425781 0-8-3.578125-8-8 0-4.425781 3.574219-8 8-8h128c4.421875 0 8 3.574219 8 8 0 4.421875-3.585937 8-8 8zm0 0" fill="#ffce54"/><path d="m40.015625 416c-22.160156 0-40 17.921875-40 40v.015625h16c0-.007813 0-.007813 0-.015625 0-13.230469 10.769531-24 24-24h16v-16zm0 0" fill="#aab2bd"/><path d="m40.015625 496.03125c-22.160156 0-40-17.917969-40-40 0-.007812 0-.007812 0-.015625h16v.015625c0 13.234375 10.769531 24 24 24h16v16zm0 0" fill="#aab2bd"/><path d="m56.015625 416h320v16h-320zm0 0" fill="#545c66"/><path d="m56.015625 480h320v16h-320zm0 0" fill="#545c66"/><path d="m264.128906 176.128906c-.832031 0-1.6875-.128906-2.527344-.410156-4.1875-1.40625-6.457031-5.933594-5.058593-10.125l24-72.007812c1.402343-4.1875 5.890625-6.480469 10.121093-5.058594 4.183594 1.394531 6.457032 5.921875 5.054688 10.121094l-24 72.007812c-1.125 3.351562-4.238281 5.472656-7.589844 5.472656zm0 0" fill="#f6bb42"/><path d="m312.128906 176.128906c-3.351562 0-6.472656-2.121094-7.585937-5.472656l-24-72.007812c-1.398438-4.191407.863281-8.726563 5.058593-10.121094 4.214844-1.421875 8.726563.863281 10.117188 5.058594l24 72.007812c1.402344 4.183594-.863281 8.71875-5.054688 10.125-.847656.28125-1.703124.410156-2.535156.410156zm0 0" fill="#f6bb42"/><path d="m312.128906 160.128906h-48c-4.425781 0-8 3.574219-8 8 0 17.640625 14.351563 32 32 32 17.648438 0 32-14.359375 32-32 0-4.425781-3.585937-8-8-8zm0 0" fill="#ffce54"/><path d="m119.984375 176.128906c-.832031 0-1.6875-.128906-2.527344-.410156-4.183593-1.40625-6.457031-5.933594-5.058593-10.125l24-72.007812c1.402343-4.1875 5.890624-6.480469 10.121093-5.058594 4.183594 1.394531 6.457031 5.921875 5.054688 10.121094l-24 72.007812c-1.117188 3.351562-4.238281 5.472656-7.589844 5.472656zm0 0" fill="#f6bb42"/><path d="m167.984375 176.128906c-3.351563 0-6.472656-2.121094-7.585937-5.472656l-24-72.007812c-1.398438-4.191407.867187-8.726563 5.058593-10.121094 4.214844-1.421875 8.726563.863281 10.117188 5.058594l24 72.007812c1.402343 4.183594-.863281 8.71875-5.054688 10.125-.847656.28125-1.695312.410156-2.535156.410156zm0 0" fill="#f6bb42"/><g fill="#ffce54"><path d="m167.984375 160.128906h-48c-4.425781 0-8 3.574219-8 8 0 17.640625 14.351563 32 32 32s32-14.359375 32-32c0-4.425781-3.578125-8-8-8zm0 0"/><path d="m288.128906 104.121094h-143.984375c-4.425781 0-8-3.585938-8-8 0-4.417969 3.574219-8 8-8h143.984375c4.421875 0 8 3.582031 8 8 0 4.414062-3.585937 8-8 8zm0 0"/></g></svg>