<svg id="Capa_1" enable-background="new 0 0 512 512" height="512" viewBox="0 0 512 512" width="512" xmlns="http://www.w3.org/2000/svg"><g><g><g><g><path d="m247.043 37.087c-91.033 0-164.829 73.796-164.829 164.829v15.705h329.658v-15.705c0-91.033-73.797-164.829-164.829-164.829z" fill="#80786a"/></g></g></g><g><g><path d="m367.279 86.128c-27.122 27.122-39.401 62.574-35.758 94.034 31.46 3.643 66.912-8.636 94.034-35.758 24.419-24.419 36.806-55.59 36.374-84.521-.083-5.55-4.579-10.046-10.129-10.129-28.931-.432-60.102 11.955-84.521 36.374z" fill="#fff48f"/></g></g><g><g><path d="m331.521 180.162c17.067 1.976 35.308-.744 52.757-7.967 19.608-31.009 18.863-79.713 15.933-110.031-11.702 5.918-22.889 13.921-32.932 23.964-27.122 27.122-39.402 62.574-35.758 94.034z" fill="#ffee6e"/></g></g><g><g><g><path d="m290.313 88.385c0 38.356 16.386 72.107 41.207 91.777 24.822-19.669 41.207-53.42 41.207-91.777 0-34.534-13.282-65.334-34.045-85.486-3.983-3.866-10.341-3.866-14.324 0-20.762 20.152-34.045 50.952-34.045 85.486z" fill="#ff9b87"/></g></g><g><g><path d="m363.319 136.913c-56.111-27.724-65.592-91.877-65.592-91.877-4.767 13.3-7.413 27.952-7.413 43.35 0 38.356 16.386 72.107 41.207 91.777 13.545-10.735 24.569-25.669 31.798-43.25z" fill="#ff8870"/></g></g></g><g><g><path d="m277.948 39.992c-10.012-1.9-20.341-2.906-30.905-2.906h-.001c-91.032 0-164.829 73.797-164.829 164.829v15.705h61.811v-15.705c.001-80.467 57.666-147.455 133.924-161.923z" fill="#70695b"/></g></g><g><g><path d="m369.365 487.489c-11.388-57.149-61.825-100.219-122.322-100.219s-110.934 43.069-122.322 100.219c-2.53 12.696 7.29 24.511 20.235 24.511h204.173c12.946 0 22.766-11.815 20.236-24.511z" fill="#d79b8c"/></g></g><g><g><path d="m224.376 460.848v-71.518c-50.097 9.198-89.724 48.323-99.655 98.159-2.53 12.696 7.29 24.511 20.235 24.511h124.754c-24.13 0-45.334-34.248-45.334-51.152z" fill="#c38778"/></g></g><g><g><path d="m162.565 512h61.811v-122.67c-23.598 4.332-44.869 15.307-61.811 30.913z" fill="#e3a67b"/></g></g><g><g><path d="m269.71 512h61.811v-91.757c-16.942-15.606-38.213-26.58-61.811-30.913z" fill="#f2b88f"/></g></g><g><g><circle cx="406.852" cy="250.984" fill="#d79b8c" r="37.17"/></g></g><g><g><circle cx="87.23" cy="250.984" fill="#c38778" r="37.17"/></g></g><g><g><path d="m106.505 200.262c-5.716 15.836-8.838 32.912-8.838 50.719 0 82.498 66.878 149.376 149.376 149.376s149.376-66.878 149.376-149.376c0-17.807-3.122-34.883-8.838-50.719z" fill="#e0aea2"/></g></g><g><g><path d="m149.176 250.981c0-17.808 3.124-34.883 8.841-50.719h-51.512c-5.716 15.836-8.838 32.912-8.838 50.719 0 82.498 66.878 149.376 149.376 149.376 8.783 0 17.387-.765 25.755-2.219-70.224-12.205-123.622-73.442-123.622-147.157z" fill="#d79b8c"/></g></g><g><g><g><path d="m182.71 285.771c-4.143 0-7.5-3.358-7.5-7.5v-12.362c0-4.142 3.357-7.5 7.5-7.5s7.5 3.358 7.5 7.5v12.362c0 4.142-3.358 7.5-7.5 7.5z" fill="#544f43"/></g></g><g><g><path d="m311.377 285.771c-4.143 0-7.5-3.358-7.5-7.5v-12.362c0-4.142 3.357-7.5 7.5-7.5s7.5 3.358 7.5 7.5v12.362c0 4.142-3.358 7.5-7.5 7.5z" fill="#544f43"/></g></g><g><g><path d="m247.043 293.13c-8.668 0-16.91-3.754-22.615-10.299-2.722-3.123-2.396-7.86.727-10.582 3.122-2.722 7.859-2.397 10.582.726 2.854 3.276 6.976 5.155 11.307 5.155s8.452-1.879 11.309-5.155c2.721-3.123 7.458-3.448 10.582-.725 3.122 2.722 3.446 7.459.725 10.582-5.707 6.544-13.95 10.298-22.617 10.298z" fill="#544f43"/></g></g></g><g><g><path d="m119.658 327.519c-17.835 0-32.294-14.458-32.294-32.294v-73.109h64.587v73.109c.001 17.836-14.457 32.294-32.293 32.294z" fill="#70695b"/></g></g><g><g><path d="m119.658 348.123c17.835 0 32.294 14.458 32.294 32.294 0 6.24-5.058 11.298-11.298 11.298h-41.992c-6.24 0-11.298-5.058-11.298-11.298.001-17.836 14.459-32.294 32.294-32.294z" fill="#70695b"/></g></g><g><g><path d="m136.499 353.274h-33.682c-8.534 0-15.453-6.918-15.453-15.453 0-8.534 6.918-15.453 15.453-15.453h33.682c8.534 0 15.453 6.918 15.453 15.453 0 8.534-6.918 15.453-15.453 15.453z" fill="#f2b88f"/></g></g><g><g><path d="m119.658 337.821c0-8.534 6.919-15.453 15.453-15.453h-32.294c-8.534 0-15.453 6.918-15.453 15.453s6.919 15.453 15.453 15.453h32.294c-8.534 0-15.453-6.919-15.453-15.453z" fill="#e3a67b"/></g></g><g><g><path d="m406.721 155.155h-319.356c-8.534 0-15.453 6.918-15.453 15.453v51.509c0 8.534 6.918 15.453 15.453 15.453h319.356c8.534 0 15.453-6.918 15.453-15.453v-51.509c0-8.535-6.919-15.453-15.453-15.453z" fill="#f2b88f"/></g></g><g><g><path d="m374.427 327.519c17.835 0 32.294-14.458 32.294-32.294v-73.109h-64.587v73.109c0 17.836 14.458 32.294 32.293 32.294z" fill="#80786a"/></g></g><g><g><path d="m374.427 347.093c-17.835 0-32.294 14.458-32.294 32.294 0 6.24 5.058 11.298 11.298 11.298h41.992c6.24 0 11.298-5.058 11.298-11.298 0-17.836-14.458-32.294-32.294-32.294z" fill="#80786a"/></g></g><g><g><path d="m357.586 353.274h33.682c8.534 0 15.453-6.918 15.453-15.453 0-8.534-6.918-15.453-15.453-15.453h-33.682c-8.534 0-15.453 6.918-15.453 15.453.001 8.534 6.919 15.453 15.453 15.453z" fill="#f2b88f"/></g></g><g><g><path d="m374.427 337.821c0-8.534 6.918-15.453 15.453-15.453h-32.294c-8.534 0-15.453 6.918-15.453 15.453s6.918 15.453 15.453 15.453h32.294c-8.534 0-15.453-6.919-15.453-15.453z" fill="#e3a67b"/></g></g><g><g><path d="m247.051 155.155-58.374 82.414h116.75z" fill="#e3a67b"/></g></g><g><g><path d="m418.389 232.227-54.589-77.072-58.374 82.414h101.294c4.665 0 8.836-2.075 11.669-5.342z" fill="#e3a67b"/></g></g><g><g><path d="m87.365 237.569h101.312l-58.382-82.414-54.598 77.072c2.832 3.267 7.004 5.342 11.668 5.342z" fill="#e3a67b"/></g></g></g></svg>