<svg height="512pt" viewBox="-84 0 512 512" width="512pt" xmlns="http://www.w3.org/2000/svg"><path d="m342.851562 512h-342.082031l44.421875-117.800781h253.238282zm0 0" fill="#00da78"/><path d="m342.851562 512h-171.042968v-117.800781h126.621094zm0 0" fill="#00b77a"/><path d="m343.621094 171.808594c0 51.941406-26.449219 92.3125-55.921875 132.492187l-115.890625 157.328125-.277344.359375-115.609375-157.6875c-29.472656-40.179687-55.921875-80.5625-55.921875-132.492187 0-94.738282 77.070312-171.808594 171.789062-171.808594h.722657c94.410156.378906 171.109375 77.308594 171.109375 171.808594zm0 0" fill="#ff623f"/><path d="m277.621094 171.808594c0 58.339844-47.472656 105.800781-105.8125 105.800781s-105.808594-47.460937-105.808594-105.800781c0-58.347656 47.46875-105.808594 105.808594-105.808594s105.8125 47.460938 105.8125 105.808594zm0 0" fill="#fff"/><path d="m343.621094 171.808594c0 51.941406-26.449219 92.3125-55.921875 132.492187l-115.890625 157.328125v-461.628906h.703125c94.410156.378906 171.109375 77.308594 171.109375 171.808594zm0 0" fill="#e30020"/><path d="m171.808594 277.609375v-211.609375c58.339844 0 105.8125 47.460938 105.8125 105.808594 0 58.339844-47.472656 105.800781-105.8125 105.800781zm0 0" fill="#d6d6d8"/></svg>