<?xml version="1.0" encoding="iso-8859-1"?>
<!-- Generator: Adobe Illustrator 19.0.0, SVG Export Plug-In . SVG Version: 6.00 Build 0)  -->
<svg version="1.1" id="Capa_1" xmlns="http://www.w3.org/2000/svg" xmlns:xlink="http://www.w3.org/1999/xlink" x="0px" y="0px"
	 viewBox="0 0 512 512" style="enable-background:new 0 0 512 512;" xml:space="preserve">
<circle style="fill:#FF8087;" cx="354.11" cy="132.13" r="132.13"/>
<path style="fill:#E6646E;" d="M383.012,235.355c-72.973,0-132.129-59.156-132.129-132.129c0-29.106,9.524-55.924,25.469-77.757
	c-32.906,24.032-54.372,62.793-54.372,106.66c0,72.973,59.156,132.129,132.129,132.129c43.867,0,82.629-21.466,106.66-54.372
	C438.937,225.831,412.118,235.355,383.012,235.355z"/>
<g>
	<path style="fill:#FFFFFF;" d="M354.109,192.484c-6.153,0-11.145-4.653-11.145-10.806c0-13.871,8.847-25.347,22.016-29.226
		c19.379-5.71,30.839-25.153,26.653-45.226c-3.008-14.419-14.718-26.129-29.137-29.137c-11.863-2.452-23.444,0.258-32.589,7.71
		c-9.024,7.331-14.202,18.202-14.202,29.815c0,6.153-4.992,11.145-11.145,11.145s-11.145-4.992-11.145-11.145
		c0-18.355,8.169-35.532,22.427-47.121c14.25-11.589,32.935-16.048,51.202-12.226c22.976,4.782,41.629,23.435,46.411,46.411
		c6.581,31.548-11.556,62.145-42.169,71.161c-3.661,1.081-6.032,3.887-6.032,7.161C365.254,187.153,360.262,192.484,354.109,192.484
		z"/>
	<path style="fill:#FFFFFF;" d="M354.19,225.855c-6.153,0-11.185-4.992-11.185-11.145s4.952-11.145,11.105-11.145h0.081
		c6.153,0,11.145,4.992,11.145,11.145C365.335,220.863,360.343,225.855,354.19,225.855z"/>
</g>
<path style="fill:#B48764;" d="M273.69,357.457l-61.924-28.395c-5.869-2.691-9.632-8.556-9.632-15.013v-41.533h-75.921v41.533
	c0,6.457-3.763,12.322-9.632,15.013l-61.924,28.395c-18.605,8.531-30.05,27.625-28.804,48.055l5.549,90.977
	C31.935,505.204,39.157,512,47.889,512h232.57c8.731,0,15.954-6.796,16.485-15.511l5.549-90.977
	C303.739,385.082,292.295,365.988,273.69,357.457z"/>
<path style="fill:#E6646E;" d="M273.69,357.457l-47.06-21.579c-6.101,28.936-31.764,50.663-62.515,50.663
	c-30.734,0-56.383-21.703-62.503-50.614l-46.954,21.531c-18.605,8.532-30.05,27.625-28.804,48.055l5.549,90.977
	c0.532,8.714,7.755,15.51,16.485,15.51h232.571c8.731,0,15.954-6.796,16.485-15.511l5.549-90.977
	C303.739,385.082,292.295,365.988,273.69,357.457z"/>
<g>
	<path style="fill:#FF8087;" d="M68.343,398.521L42.2,365.64c-11.048,9.928-17.282,24.52-16.346,39.872l5.549,90.977
		C31.935,505.204,39.158,512,47.888,512H80.66v-79.456C80.661,420.111,76.302,408.072,68.343,398.521z"/>
	<path style="fill:#FF8087;" d="M260.004,398.521l26.143-32.881c11.048,9.928,17.282,24.52,16.346,39.872l-5.549,90.977
		C296.413,505.204,289.19,512,280.459,512h-32.772v-79.456C247.687,420.111,252.045,408.072,260.004,398.521z"/>
</g>
<path style="fill:#966D50;" d="M126.253,306.29c11.616,5.334,24.482,8.315,37.96,8.315c13.479,0,26.345-2.981,37.96-8.315v-22.053
	h-75.921L126.253,306.29L126.253,306.29z"/>
<circle style="fill:#6E4B53;" cx="164.21" cy="86.84" r="45.553"/>
<ellipse style="fill:#5C414B;" cx="164.21" cy="166.56" rx="91.11" ry="87.31"/>
<path style="fill:#503441;" d="M133.845,177.948c-30.368-30.368-34.908-56.55-34.19-72.98
	c-16.402,15.789-26.546,37.553-26.546,61.592c0,16.465,4.775,31.842,13.053,44.966L133.845,177.948z"/>
<path style="fill:#C39772;" d="M250.777,193.449c-0.608-0.197-4.353-0.316-4.353-0.316c-4.027,0-7.889-1.6-10.737-4.448
	l-6.552-6.552c-2.63-2.63-6.106-4.21-9.819-4.418c-14.778-0.827-55.756-4.504-88.313-20.479c-3.475-1.705-7.721-0.776-9.804,2.486
	c-8.529,13.353-19.08,23.949-24.999,29.394c-2.815,2.59-6.468,4.017-10.293,4.017h-5.463c-0.004,0-0.007,0.002-0.012,0.002
	c-0.832,0.016-1.682,0.103-2.547,0.27c-7.389,1.428-12.368,8.492-12.368,16.017v5.502c0,7.262,4.65,14.113,11.722,15.764
	c1.593,0.372,3.143,0.477,4.627,0.359c3.775-0.301,7.07,2.446,7.75,6.171c6.454,35.374,37.36,62.204,74.599,62.204
	s68.144-26.83,74.599-62.204c0.68-3.725,3.975-6.472,7.75-6.171c1.484,0.118,3.034,0.013,4.626-0.359
	c7.072-1.651,11.722-8.502,11.722-15.764v-6.918C262.911,200.86,257.573,195.656,250.777,193.449z"/>
<path style="fill:#B48764;" d="M118.661,223.501v-60.01c-8.002,11.561-17.116,20.706-22.462,25.625
	c-2.815,2.59-6.468,4.017-10.293,4.017h-5.463c-0.004,0-0.007,0.002-0.012,0.002c-0.832,0.015-1.682,0.103-2.547,0.27
	c-7.389,1.428-12.368,8.492-12.368,16.017v5.502c0,7.262,4.65,14.113,11.722,15.764c1.593,0.372,3.143,0.477,4.626,0.359
	c3.775-0.301,7.07,2.446,7.75,6.171c6.454,35.374,37.36,62.204,74.599,62.204c5.162,0,10.184-0.563,15.054-1.546
	C144.679,290.791,118.661,260.184,118.661,223.501z"/>
<g>
</g>
<g>
</g>
<g>
</g>
<g>
</g>
<g>
</g>
<g>
</g>
<g>
</g>
<g>
</g>
<g>
</g>
<g>
</g>
<g>
</g>
<g>
</g>
<g>
</g>
<g>
</g>
<g>
</g>
</svg>
