<svg height="512pt" viewBox="-64 0 512 512" width="512pt" xmlns="http://www.w3.org/2000/svg"><path d="m384 64v416c0 17.679688-14.320312 32-32 32h-320c-17.679688 0-32-14.320312-32-32v-416c0-17.679688 14.320312-32 32-32h320c17.679688 0 32 14.320312 32 32zm0 0" fill="#cfd8dc"/><path d="m128 160c-35.296875 0-64-28.703125-64-64v-64h256v64c0 35.296875-28.703125 64-64 64zm0 0" fill="#b0bec5"/><path d="m256 128h-128c-17.679688 0-32-14.320312-32-32v-64h48v-32h96v32h48v64c0 17.679688-14.320312 32-32 32zm0 0" fill="#26a69a"/><path d="m176 320h32v-48h48v-32h-48v-48h-32v48h-48v32h48zm0 0" fill="#e64a19"/><g fill="#fff"><path d="m64 368h32v32h-32zm0 0"/><path d="m128 368h192v32h-192zm0 0"/><path d="m64 432h32v32h-32zm0 0"/><path d="m128 432h192v32h-192zm0 0"/><path d="m144 64h32v32h-32zm0 0"/><path d="m208 64h32v32h-32zm0 0"/></g></svg>