<svg enable-background="new 0 0 256 256" height="512" viewBox="0 0 256 256" width="512" xmlns="http://www.w3.org/2000/svg"><g id="Layer_1"><g><g><path d="m169.34 101.506v49.75c0 3.54-.27 7.02-.91 10.38-.57 3.28-1.4 6.45-2.49 9.5l-38.61 5.72 1.56 19.17 6.69 8.94c-18.6 9.03-41.44 7.64-58.62-3.91-13.26-8.72-22.98-22.66-25.93-39.41v-.01c-.63-3.32-.93-6.8-.93-10.38v-49.75z" fill="#ffb69f"/></g><g><path d="m185.31 75.969c-1.24 12.071-4.838 18.073-15.969 25.539h-119.244l.003-17.259c0-15.1 12.29-27.07 27.07-27.07h64.32c9.82 0 18.26-6.99 20.1-16.64 11.725 8.03 12.21 8.253 14.23 10.12l-10.28 17.81c-1.93 3.33.48 7.5 4.33 7.5z" fill="#7c7b7a"/></g><g><path d="m51.03 161.636v.01h-6.95c-9.49 0-17.16-7.68-17.16-17.16 0-9.45 7.65-17.15 17.16-17.15h6.02v23.92c0 3.579.3 7.06.93 10.38z" fill="#ffb69f"/></g><g><path d="m50.097 101.508.002 33.747 23.946-33.747z" fill="#afafaf"/></g><g><path d="m145.395 101.508 23.946 33.747v-33.747z" fill="#afafaf"/></g><g><path d="m192.51 144.496c0 9.45-7.64 17.14-17.14 17.14h-6.94c.64-3.36.91-6.84.91-10.38v-23.93h6.03c9.48 0 17.14 7.68 17.14 17.17z" fill="#ffb69f"/></g><g><path d="m105.156 150.794v11.579c0 2.519 2.042 4.561 4.561 4.561s4.561-2.042 4.561-4.561v-11.579z" fill="#72c2e9"/></g><g><path d="m194.33 166.936-28.16 78.94-30.59-40.911-6.69-8.94-1.56-19.17 38.61-5.719z" fill="#72c2e9"/></g><g><path d="m115.108 178.837c-12.75 3.329-10.667 14.441-10.667 14.441h14.667z" fill="#fc5d3d"/></g><g><path d="m234.37 75.969h-64.5c-3.85 0-6.26-4.17-4.33-7.5l10.28-17.81 21.97-38.05c1.92-3.34 6.74-3.34 8.66 0l32.25 55.86c1.93 3.33-.48 7.5-4.33 7.5z" fill="#f0c020"/></g><g><g><path d="m166.2 90.996h-92.032c-1.381 0-2.5-1.119-2.5-2.5s1.119-2.5 2.5-2.5h90.863c.733-.874 1.505-1.779 2.188-2.693.827-1.105 2.394-1.331 3.5-.504 1.105.827 1.332 2.394.504 3.5-3.316 4.43-3.928 4.697-5.023 4.697zm-102.032 0h-4c-1.381 0-2.5-1.119-2.5-2.5s1.119-2.5 2.5-2.5h4c1.381 0 2.5 1.119 2.5 2.5s-1.119 2.5-2.5 2.5z" fill="#efefef"/></g><g><path d="m229.174 70.469h-37.891c-1.381 0-2.5-1.119-2.5-2.5s1.119-2.5 2.5-2.5h33.561l-24.889-43.11c-.69-1.196-.281-2.725.915-3.415 1.195-.692 2.725-.281 3.415.915l27.054 46.86c.962 1.666-.245 3.75-2.165 3.75zm-47.891 0h-6.217c-1.381 0-2.5-1.119-2.5-2.5s1.119-2.5 2.5-2.5h6.217c1.381 0 2.5 1.119 2.5 2.5s-1.119 2.5-2.5 2.5z" fill="#f8e5b0"/></g><g><path d="m94.387 120.17c-.569-1.258-2.05-1.817-3.308-1.249l-17.333 7.833c-1.258.569-1.817 2.05-1.249 3.308.57 1.26 2.052 1.816 3.308 1.249l17.333-7.833c1.259-.569 1.818-2.05 1.249-3.308z"/><path d="m146.936 130.062c.568-1.258.009-2.739-1.249-3.308l-17.333-7.833c-1.258-.568-2.739-.009-3.308 1.249-.568 1.258-.009 2.739 1.249 3.308 18.243 8.244 17.484 8.055 18.361 8.055.953 0 1.862-.547 2.28-1.471z"/><path d="m79.773 148.299c-1.378.085-2.426 1.271-2.341 2.649.086 1.388 1.287 2.43 2.649 2.341 7.425-.459 10.818-4.055 12.357-6.991 1.637-3.123 1.505-6.083 1.484-6.41-.123-1.97-2.384-3.031-3.978-1.857-3.197 2.356-10.302 1.911-12.769 1.541-1.363-.207-2.638.732-2.845 2.097-.208 1.365.731 2.64 2.096 2.847.819.125 6.39.895 11.442-.283-1.413 2.454-4.134 3.821-8.095 4.066z"/><path d="m143.006 144.516c1.365-.208 2.304-1.482 2.096-2.847-.207-1.364-1.471-2.303-2.847-2.096-2.295.349-9.571.815-12.767-1.541-1.595-1.175-3.855-.112-3.978 1.857-.021.327-.152 3.288 1.484 6.41 1.539 2.936 4.932 6.532 12.357 6.991.053.003.104.005.157.005 1.31 0 2.411-1.02 2.493-2.346.085-1.378-.963-2.564-2.341-2.649-4.688-.29-6.986-2.18-8.107-4.069 5.055 1.181 10.634.41 11.453.285z"/><path d="m105.156 148.294c-1.381 0-2.5 1.119-2.5 2.5v11.579c0 3.894 3.167 7.061 7.061 7.061 3.893 0 7.061-3.167 7.061-7.061v-11.579c0-1.381-1.119-2.5-2.5-2.5s-2.5 1.119-2.5 2.5v11.579c0 1.136-.924 2.061-2.061 2.061s-2.061-.925-2.061-2.061v-11.579c0-1.38-1.119-2.5-2.5-2.5z"/><path d="m101.985 193.738c.222 1.182 1.254 2.039 2.457 2.039h14.667c1.381 0 2.5-1.119 2.5-2.5s-1.119-2.5-2.5-2.5h-12.297c.17-2.776 1.574-7.602 8.929-9.522 1.336-.349 2.136-1.714 1.788-3.05s-1.715-2.136-3.05-1.788c-11.871 3.099-13.364 12.685-12.494 17.321z"/><path d="m141.498 186.442c-1.345-.304-2.685.54-2.99 1.887s.541 2.685 1.887 2.99l1.684.381c1.344.304 2.685-.538 2.99-1.887.305-1.347-.541-2.685-1.887-2.99z"/><path d="m168.542 198.504c.414-1.317-.318-2.721-1.635-3.135l-1.647-.518c-1.316-.415-2.721.318-3.135 1.635s.318 2.721 1.635 3.135l1.647.518c1.314.414 2.721-.315 3.135-1.635z"/><path d="m176.413 182.675-1.718-.17c-1.375-.138-2.598.868-2.734 2.241-.136 1.374.867 2.598 2.241 2.734l1.718.17c1.374.136 2.598-.867 2.734-2.241.137-1.373-.867-2.597-2.241-2.734z"/><path d="m147.272 201.055c-.901 1.046-.783 2.625.263 3.526l1.309 1.127c1.047.901 2.625.783 3.526-.263s.783-2.625-.263-3.526l-1.309-1.127c-1.045-.9-2.623-.784-3.526.263z"/><path d="m162.131 216.503c-.901 1.046-.784 2.625.262 3.526l1.309 1.127c1.045.9 2.623.785 3.526-.262.901-1.046.784-2.625-.262-3.526l-1.309-1.127c-1.045-.9-2.623-.783-3.526.262z"/><path d="m156.6 182.515c-1.389-.058-2.541 1.024-2.592 2.404-.052 1.38 1.024 2.541 2.404 2.592.072.003 1.75.067 1.821.067 1.337 0 2.446-1.058 2.497-2.406.052-1.38-1.024-2.541-2.404-2.592z"/><path d="m11.28 41.56h34.51c1.38 0 2.5-1.12 2.5-2.5s-1.12-2.5-2.5-2.5h-34.51c-1.38 0-2.5 1.12-2.5 2.5s1.12 2.5 2.5 2.5z"/><path d="m11.28 30.71h34.51c1.38 0 2.5-1.12 2.5-2.5s-1.12-2.5-2.5-2.5h-34.51c-1.38 0-2.5 1.12-2.5 2.5s1.12 2.5 2.5 2.5z"/><path d="m43.46 241.149h-34.51c-1.38 0-2.5 1.12-2.5 2.5s1.12 2.5 2.5 2.5h34.51c1.38 0 2.5-1.12 2.5-2.5 0-1.379-1.12-2.5-2.5-2.5z"/><path d="m43.46 230.3h-34.51c-1.38 0-2.5 1.12-2.5 2.5s1.12 2.5 2.5 2.5h34.51c1.38 0 2.5-1.12 2.5-2.5 0-1.381-1.12-2.5-2.5-2.5z"/><path d="m43.46 219.46h-34.51c-1.38 0-2.5 1.12-2.5 2.5s1.12 2.5 2.5 2.5h34.51c1.38 0 2.5-1.12 2.5-2.5s-1.12-2.5-2.5-2.5z"/><path d="m247.05 241.149h-33.47c-1.38 0-2.5 1.12-2.5 2.5s1.12 2.5 2.5 2.5h33.47c1.38 0 2.5-1.12 2.5-2.5 0-1.379-1.12-2.5-2.5-2.5z"/><path d="m247.05 230.3h-33.47c-1.38 0-2.5 1.12-2.5 2.5s1.12 2.5 2.5 2.5h33.47c1.38 0 2.5-1.12 2.5-2.5 0-1.381-1.12-2.5-2.5-2.5z"/><path d="m211.08 221.96c0 1.37 1.12 2.5 2.5 2.5h33.47c1.38 0 2.5-1.13 2.5-2.5 0-1.38-1.12-2.5-2.5-2.5h-33.47c-1.38 0-2.5 1.12-2.5 2.5z"/><path d="m202.119 34.032c-1.381 0-2.5 1.119-2.5 2.5v12.553c0 1.381 1.119 2.5 2.5 2.5s2.5-1.119 2.5-2.5v-12.553c0-1.381-1.119-2.5-2.5-2.5z"/><path d="m202.12 54.791c-1.381 0-2.5 1.119-2.5 2.5v2.177c0 1.381 1.119 2.5 2.5 2.5s2.5-1.119 2.5-2.5v-2.177c0-1.381-1.119-2.5-2.5-2.5z"/><path d="m186.8 31.649c1.174.681 2.735.277 3.41-.92.676-1.167.302-2.708-.91-3.41-1.16-.67-2.76-.23-3.42.92-.672 1.161-.311 2.711.92 3.41z"/><path d="m193.965 164.462-24.445 3.619c.365-1.301.691-2.617.969-3.946h4.882c10.829 0 19.64-8.811 19.64-19.64 0-10.846-8.811-19.67-19.64-19.67h-3.529v-22.009c10.069-6.991 14.16-13.265 15.685-24.347h46.843c5.855-.029 9.362-6.363 6.49-11.25l-32.24-55.86c-2.874-5.015-10.127-5.012-13 0l-4.74 8.21c-.679 1.192-.298 2.727.92 3.42 1.15.67 2.75.23 3.41-.92 0 0 .01 0 .01-.01l4.74-8.2c.985-1.699 3.372-1.658 4.32-.01l32.26 55.87c.98 1.783-.346 3.75-2.17 3.75h-64.5c-1.883 0-3.138-2.056-2.17-3.74l17.51-30.33c.69-1.2.28-2.73-.92-3.42-1.15-.67-2.75-.23-3.41.92l-5.739 9.943c-1.479-1.098-3.493-2.456-12.139-8.366-1.489-1.02-3.532-.169-3.868 1.594-1.614 8.465-9.034 14.608-17.644 14.608h-58.713l-19.716-38.449c-.428-.834-1.287-1.359-2.225-1.359-9.517 0-31.566 0-49.557 0-1.38 0-2.5 1.12-2.5 2.5 0 1.37 1.12 2.5 2.5 2.5h48.029l17.849 34.81c-16.298.006-29.557 13.268-29.557 29.569-.005 24.427-.004 11.019-.002 40.587h-3.518c-10.841 0-19.66 8.815-19.66 19.65 0 10.841 8.819 19.66 19.66 19.66h4.908c3.313 15.634 12.651 29.541 25.898 38.512l-10.496 17.471h-9.47c-1.38 0-2.5 1.12-2.5 2.5s1.12 2.5 2.5 2.5h10.89c.87 0 1.69-.46 2.14-1.21l11.167-18.592c16.44 9.389 37.555 10.751 55.66 2.739l29.393 39.304c1.985 2.648 6.003-.336 4-2.99-3.798-5.079-32.22-43.084-37.28-49.85-.8-1.07-2.43-1.31-3.5-.5-1.128.851-1.309 2.419-.5 3.49l4.819 6.443c-16.083 6.721-35.023 5.601-50.017-2.922l17.448-29.051c.733-1.215.314-2.736-.85-3.43-1.14-.69-2.75-.28-3.43.85l-17.395 28.955c-12.462-8.518-20.894-21.001-23.979-37.195-1.116-5.878-.886-9.023-.886-25.118l22.736-32.042h27.115l5.041 9.832c.63 1.228 2.135 1.714 3.365 1.084 1.229-.63 1.714-2.137 1.084-3.365l-3.871-7.55h36.033l22.737 32.041c0 15.986.604 22.438-2.787 32.841l-37.089 5.491c-1.366.203-2.309 1.474-2.107 2.839.2 1.352 1.456 2.308 2.839 2.107l67-9.92c1.366-.202 2.31-1.473 2.107-2.839-.202-1.368-1.472-2.309-2.838-2.109zm-18.595-34.636c8.072 0 14.64 6.581 14.64 14.67 0 8.072-6.567 14.64-14.64 14.64h-4.013c.605-4.701.482-7.005.482-23.863 0-.006.001-.012.001-.018v-5.429zm-33.88-70.147c9.756 0 18.316-6.168 21.573-15.104 6.256 4.277 8.293 5.649 9.559 6.633l-9.242 16.012c-2.868 4.881.629 11.221 6.49 11.25h12.6c-1.41 9.371-4.873 14.372-13.891 20.536h-63.074l-20.164-39.327zm-64.32 0h2.551l20.165 39.326h-47.289l.003-14.756c0-13.548 11.022-24.57 24.57-24.57zm-33.09 99.467c-8.083 0-14.66-6.577-14.66-14.66 0-8.078 6.577-14.65 14.66-14.65h3.519c.001 20.225-.164 24.243.502 29.31zm8.52-31.736v-.075-23.327h16.605zm97.635-23.402h16.605v23.317.083z"/></g></g></g></g></svg>