<svg id="Layer_3" enable-background="new 0 0 64 64" height="512" viewBox="0 0 64 64" width="512" xmlns="http://www.w3.org/2000/svg"><g><circle cx="47" cy="47" fill="#c66b60" r="15"/><path d="m32 47c0 2.917.846 5.63 2.286 7.933 2.126 1.308 4.585 2.067 7.214 2.067 8.008 0 14.5-6.94 14.5-15.5 0-2.821-.716-5.458-1.948-7.737-2.103-1.122-4.502-1.763-7.052-1.763-8.284 0-15 6.716-15 15z" fill="#e47c6e"/><path d="m36 43h4v8h-4z" fill="#4d5d7a"/><path d="m48 55-8-4v-8l8-4z" fill="#f9d18b"/><path d="m59.707 43.707-1.414-1.414-3.293 3.293-3.293-3.293-1.414 1.414 3.293 3.293-3.293 3.293 1.414 1.414 3.293-3.293 3.293 3.293 1.414-1.414-3.293-3.293z" fill="#fff"/><path d="m2 16 1.608-5.361c.894-2.978 2.897-5.499 5.597-7.042 1.832-1.046 3.905-1.597 6.014-1.597 5.028 0 9.904 1.714 13.825 4.861.455.365.916.735 1.375 1.103 3.6 2.888 5.673 7.265 5.63 11.88-.002.235-.004.473-.006.711-.063 7.465-1.811 14.821-5.111 21.518l-.129.261c-2.485 5.043-5.674 9.706-9.471 13.851l-2.957 3.228c-1.509 1.649-3.641 2.587-5.875 2.587h-.178c-2.141 0-4.16-.836-5.648-2.326l-.075-.075c-1.664-1.665-2.599-3.922-2.599-6.276v-.323" fill="#efbe9a"/><g fill="#db9b7c"><path d="m24 36.201v-1.201h-2v1.201c0 1.71-1.225 3.155-2.911 3.438-1.726.287-3.223 1.393-4.005 2.957l-1.124 2.249c-.356.713-1.073 1.155-1.87 1.155-1.153 0-2.09-.938-2.09-2.09v-.41l1.199-.9c1.754-1.315 2.801-3.409 2.801-5.6 0-4.411-3.589-8-8-8v2c3.309 0 6 2.691 6 6 0 1.565-.748 3.06-2 3.999v-.999c0-2.757-2.243-5-5-5v2c1.654 0 3 1.346 3 3v3.91c0 2.255 1.835 4.09 4.09 4.09 1.56 0 2.962-.866 3.659-2.261l1.124-2.249c.497-.994 1.447-1.696 2.545-1.879 2.655-.443 4.582-2.718 4.582-5.41z"/><path d="m28.549 12.204-.136-.21c-2.46-3.814-6.637-6.02-11.179-5.997l-.234.003c-.285 0-.567.016-.844.046-2.872.221-5.556 1.549-7.462 3.742-2.091 2.405-3.031 5.615-2.582 8.805.611 4.342 3.893 7.818 8.118 8.985l-.03.022.6.8c1.419 1.891 2.2 4.235 2.2 6.6h2c0-2.479-.729-4.935-2.063-7.018.136.005.269.018.406.018h1.186c2.377 0 4.515 1.321 5.577 3.447l1.789-.895c-1.405-2.807-4.227-4.552-7.367-4.552h-1.186c-4.656 0-8.633-3.304-9.25-7.686-.284-2.015.083-3.974 1.032-5.675-.076.443-.124.896-.124 1.361 0 4.411 3.589 8 8 8v-2c-3.309 0-6-2.691-6-6 0-3.093 2.352-5.645 5.361-5.965.217-.016.433-.035.653-.035l.247-.003c.05 0 .1-.001.148-.001 3.789 0 7.266 1.892 9.325 5.086l.178.273c2.032 3.151 3.104 6.798 3.096 10.535l-.001.212c-.009 4.417-1.062 8.835-3.049 12.778-2.239 4.447-4.853 9.673-4.853 9.673l1.789.895s2.611-5.224 4.851-9.667c2.125-4.22 3.253-8.948 3.262-13.676l.001-.198c.008-4.136-1.173-8.16-3.459-11.703z"/></g></g></svg>