<?xml version="1.0" encoding="UTF-8" standalone="no"?>
<!-- Created with Inkscape (http://www.inkscape.org/) -->

<svg
   xmlns:dc="http://purl.org/dc/elements/1.1/"
   xmlns:cc="http://creativecommons.org/ns#"
   xmlns:rdf="http://www.w3.org/1999/02/22-rdf-syntax-ns#"
   xmlns:svg="http://www.w3.org/2000/svg"
   xmlns="http://www.w3.org/2000/svg"
   xmlns:sodipodi="http://sodipodi.sourceforge.net/DTD/sodipodi-0.dtd"
   xmlns:inkscape="http://www.inkscape.org/namespaces/inkscape"
   width="700mm"
   height="700mm"
   viewBox="0 0 700 700"
   version="1.1"
   id="svg1557"
   inkscape:version="0.92.4 (5da689c313, 2019-01-14)"
   sodipodi:docname="sus-logo.svg"
   inkscape:export-filename="C:\Users\suitedoalex\sites\sus-logo-0.png"
   inkscape:export-xdpi="148.63"
   inkscape:export-ydpi="148.63">
  <defs
     id="defs1551" />
  <sodipodi:namedview
     id="base"
     pagecolor="#ffffff"
     bordercolor="#666666"
     borderopacity="1.0"
     inkscape:pageopacity="0.0"
     inkscape:pageshadow="2"
     inkscape:zoom="0.12374369"
     inkscape:cx="2772.705"
     inkscape:cy="1735.4657"
     inkscape:document-units="mm"
     inkscape:current-layer="layer1"
     showgrid="false"
     inkscape:window-width="1600"
     inkscape:window-height="837"
     inkscape:window-x="-8"
     inkscape:window-y="-8"
     inkscape:window-maximized="1" />
  <metadata
     id="metadata1554">
    <rdf:RDF>
      <cc:Work
         rdf:about="">
        <dc:format>image/svg+xml</dc:format>
        <dc:type
           rdf:resource="http://purl.org/dc/dcmitype/StillImage" />
        <dc:title></dc:title>
      </cc:Work>
    </rdf:RDF>
  </metadata>
  <g
     inkscape:label="Layer 1"
     inkscape:groupmode="layer"
     id="layer1"
     transform="translate(0,403)">
    <path
       d="m 285.66239,-39.611588 -15.5511,-4.555549 c -10.05996,-3.199425 -16.82227,-12.756548 -16.82227,-23.249259 0,-13.707003 10.87024,-24.535824 24.6184,-24.535824 h 30.54307 v 10.828821 h -21.43304 c -4.13581,0 -7.75497,3.185354 -7.75497,7.768249 0,2.724462 1.7894,5.938754 5.03051,6.818324 l 15.02012,5.030512 c 10.49351,3.213495 16.01199,13.66479 16.01199,25.526635 0,15.04826 -12.36495,27.372058 -27.44109,27.372058 h -32.35929 v -12.323798 h 27.81861 c 4.09386,0 8.69056,-4.051649 8.69056,-9.528715 0,-4.136075 -2.29118,-7.768249 -6.3715,-9.151454 m -142.37692,0 -15.50888,-4.555549 c -9.52898,-3.199425 -16.38952,-12.756548 -16.38952,-23.249259 0,-13.707003 10.9544,-24.535824 24.64653,-24.535824 h 30.57122 v 10.828821 h -21.46118 c -4.10793,0 -7.72683,3.185354 -7.72683,7.768249 0,2.724462 1.80268,5.938754 4.9883,6.818324 l 15.06233,5.030512 c 10.04589,3.213495 15.49481,13.66479 15.49481,25.526635 0,15.04826 -11.83476,27.372058 -26.9101,27.372058 h -32.36009 v -12.323798 h 27.81861 c 4.06678,0 8.66348,-4.051649 8.66348,-9.528715 0,-4.136075 -2.76667,-7.768249 -6.88868,-9.151454 m 70.71363,33.770642 c -18.68123,0 -33.2678,-13.245315 -33.2678,-29.67678 v -55.972806 h 25.08008 v 58.277528 c 0,7.307357 6.37071,13.204164 14.5725,13.204164 7.75497,0 14.62958,-5.896807 14.62958,-13.204164 v -58.277528 h 11.83371 v 55.972806 c 0,16.431465 -14.58658,29.67678 -32.84807,29.67678"
       style="fill:#25409a;fill-opacity:1;fill-rule:evenodd;stroke:none;stroke-width:9.36590958"
       id="path562"
       inkscape:connector-curvature="0"
       inkscape:export-filename="C:\Users\suitedoalex\sites\sus-logo-1.png"
       inkscape:export-xdpi="218.00664"
       inkscape:export-ydpi="218.00664" />
    <path
       d="m 497.62593,-1.093447 c 0,0 -43.24334,2.948271 -80.03261,-0.376996 0.74072,44.71097 6.1477,67.681998 7.02833,72.585868 h 80.38199 C 501.17474,47.600405 498.1431,9.637674 497.62593,-1.092916 M 361.28547,-93.980301 c 5.36582,0.448678 52.73117,4.5967 55.91652,4.5967 l 75.00289,76.275121 h 96.40805 v -80.871821 z m 62.77679,-4.708207 h 80.95519 v -78.426922 h -80.95519 z m -0.51771,22.551284 v 0 l -10.52058,-10.716519 c -14.02825,0.185843 -59.18604,-4.597762 -73.68925,-7.126558 v 80.871821 c 72.47357,7.153639 110.51967,8.955787 152.98114,7.61453 h 0.68496 z m 73.71739,67.163757 h 9.83695 v 62.861222 c -1.20267,-6.51115 -4.89086,-44.795132 -4.42917,-57.048575 -1.24515,-1.25577 -5.40778,-5.812647 -5.40778,-5.812647"
       style="fill:#25409a;fill-opacity:1;fill-rule:evenodd;stroke:none;stroke-width:9.36590958"
       id="path564"
       inkscape:connector-curvature="0"
       inkscape:export-filename="C:\Users\suitedoalex\sites\sus-logo-1.png"
       inkscape:export-xdpi="218.00664"
       inkscape:export-ydpi="218.00664" />
    <path
       d="m 1240.8944,172.80121 -22.834,-6.68921 c -14.7718,-4.6977 -24.7012,-18.73094 -24.7012,-34.13787 0,-20.12666 15.9613,-36.027073 36.148,-36.027073 h 44.8484 v 15.900413 h -31.4713 c -6.0731,0 -11.388,4.6771 -11.388,11.4065 0,4.00036 2.628,8.72016 7.3872,10.01171 l 22.0538,7.38648 c 15.409,4.71848 23.5116,20.0647 23.5116,37.48198 0,22.09598 -18.1547,40.19169 -40.2935,40.19169 h -47.5142 v -18.09572 h 40.8476 c 6.0109,0 12.7616,-5.94907 12.7616,-13.99145 0,-6.07316 -3.3644,-11.40643 -9.356,-13.43745 m -209.0589,0 -22.7727,-6.68921 c -13.99237,-4.6977 -24.06557,-18.73094 -24.06557,-34.13787 0,-20.12666 16.08487,-36.027073 36.19007,-36.027073 h 44.8887 v 15.900413 h -31.5125 c -6.0319,0 -11.3451,4.6771 -11.3451,11.4065 0,4.00036 2.6473,8.72016 7.3233,10.01171 l 22.1177,7.38648 c 14.7516,4.71848 22.7516,20.0647 22.7516,37.48198 0,22.09598 -17.3771,40.19169 -39.5133,40.19169 h -47.51497 v -18.09572 h 40.84657 c 5.9715,0 12.7205,-5.94907 12.7205,-13.99145 0,-6.07316 -4.0622,-11.40643 -10.1143,-13.43745 m 103.8321,49.587 c -27.4293,0 -48.8501,-19.44863 -48.8501,-43.57581 V 96.624907 h 36.8274 v 85.571703 c 0,10.72974 9.3552,19.38827 21.3981,19.38827 11.3871,0 21.4813,-8.65853 21.4813,-19.38827 V 96.624907 h 17.3763 V 178.8124 c 0,24.12717 -21.4183,43.57581 -48.233,43.57581"
       style="fill:#25409a;fill-opacity:1;fill-rule:evenodd;stroke:none;stroke-width:13.75241184"
       id="path562-5-8"
       inkscape:connector-curvature="0"
       inkscape:export-filename="C:\Users\suitedoalex\sites\sus-logo-01.png"
       inkscape:export-xdpi="284.95001"
       inkscape:export-ydpi="284.95001" />
    <path
       d="m 1184.0153,-86.088882 c 0,0 -63.3368,4.3182 -117.2201,-0.5523 1.0854,65.485999 9.0047,99.130449 10.2943,106.312979 h 117.7321 c -5.6083,-34.44128 -10.0488,-90.043579 -10.8063,-105.760179 M 984.32513,-222.13618 c 7.8579,0.6574 77.23087,6.7327 81.89757,6.7327 l 109.8523,111.7166 h 141.2034 v -118.4493 z m 91.94637,-6.8958 h 118.5703 v -114.86824 h -118.5703 z m -0.765,33.0297 v 0 l -15.4099,-15.6959 c -20.5465,0.27231 -86.68622,-6.73409 -107.92882,-10.438 v 118.4493 c 106.14992,10.477598 161.87262,13.116998 224.06362,11.152498 h 1.0038 z m 107.97,98.371598 h 14.4069 v 92.0698891 c -1.7613,-9.5364901 -7.1627,-65.6092891 -6.486,-83.5561891 -1.8243,-1.8394 -7.9209,-8.5137 -7.9209,-8.5137"
       style="fill:#25409a;fill-opacity:1;fill-rule:evenodd;stroke:none;stroke-width:13.71780777"
       id="path564-5-3"
       inkscape:connector-curvature="0"
       inkscape:export-filename="C:\Users\suitedoalex\sites\sus-logo-01.png"
       inkscape:export-xdpi="284.95001"
       inkscape:export-ydpi="284.95001" />
  </g>
</svg>
