<svg id="Layer_1" enable-background="new 0 0 256 256" height="512" viewBox="0 0 256 256" width="512" xmlns="http://www.w3.org/2000/svg"><path d="m204.258 248h-149.053v-20.956c0-19.208 15.571-34.779 34.779-34.779h79.495c19.208 0 34.779 15.571 34.779 34.779z" fill="#6bdddd"/><path d="m194.755 101.107c-.138 0-.271.018-.408.02v-6.042c0-35.316-28.929-63.945-64.615-63.945-35.686 0-64.615 28.629-64.615 63.945v6.042c-.137-.003-.271-.02-.408-.02-10.887 0-19.713 8.734-19.713 19.509 0 10.774 8.826 19.509 19.713 19.509.715 0 1.42-.042 2.115-.116 6.668 28.289 32.292 49.369 62.908 49.369 30.616 0 56.24-21.08 62.908-49.369.695.073 1.4.116 2.115.116 10.887 0 19.713-8.734 19.713-19.509-.001-10.775-8.826-19.509-19.713-19.509z" fill="#f9cfcf"/><path d="m142.223 161.093c-1.104 0-2-.896-2-2 0-1.589-.702-3.124-2.029-4.438-1.17-1.158-2.767-2.063-4.616-2.615-1.114-.333-2.375-.495-3.855-.495-1.479 0-2.74.162-3.854.495-1.85.553-3.446 1.458-4.618 2.616-1.327 1.314-2.028 2.849-2.028 4.438 0 1.104-.896 2-2 2s-2-.896-2-2c0-2.642 1.142-5.227 3.214-7.28 1.636-1.62 3.81-2.867 6.287-3.606 1.49-.445 3.125-.662 4.999-.662s3.509.217 5 .663c2.477.74 4.65 1.986 6.286 3.605 2.073 2.053 3.214 4.638 3.214 7.28 0 1.103-.895 1.999-2 1.999z" fill="#3762cc"/><path d="m97.76 134.494c-4.086 0-7.411-3.319-7.411-7.399v-12.333c0-4.08 3.324-7.4 7.411-7.4 4.085 0 7.409 3.32 7.409 7.4v12.333c.001 4.08-3.323 7.399-7.409 7.399z" fill="#3762cc"/><path d="m161.672 134.494c-4.086 0-7.411-3.319-7.411-7.399v-12.333c0-4.08 3.324-7.4 7.411-7.4 4.085 0 7.409 3.32 7.409 7.4v12.333c.001 4.08-3.323 7.399-7.409 7.399z" fill="#3762cc"/><path d="m134.507 189.184c-.261.02-.521.042-.783.06-.405.025-.811.046-1.219.063-.92.041-1.844.07-2.774.07-.931 0-1.855-.029-2.775-.07-.408-.017-.814-.039-1.219-.063-.261-.017-.52-.039-.78-.059-9.516-.689-18.461-3.402-26.384-7.733v7.425c0 17.262 13.501 31.256 30.156 31.256h2.005c16.655 0 30.156-13.994 30.156-31.256v-7.425c-7.923 4.33-16.868 7.043-26.383 7.732z" fill="#f9cfcf"/><path d="m204.258 250h-149.053c-1.104 0-2-.896-2-2v-20.957c0-20.28 16.499-36.779 36.779-36.779h6.619c-.02-.467-.029-.931-.029-1.389v-7.424c0-.706.373-1.36.98-1.72.607-.361 1.36-.373 1.979-.035 7.894 4.314 16.497 6.835 25.57 7.493l.766.059c.383.023.777.044 1.173.061 1.792.08 3.594.08 5.375 0 .401-.017.795-.038 1.188-.062l.746-.057c9.083-.658 17.686-3.18 25.581-7.494.619-.338 1.371-.326 1.979.035.607.36.98 1.014.98 1.72v7.425c0 .458-.01.921-.029 1.389h6.619c20.28 0 36.779 16.499 36.779 36.779v20.956c-.002 1.104-.898 2-2.002 2zm-147.053-4h145.053v-18.957c0-18.074-14.705-32.779-32.779-32.779h-8.769c-.566 0-1.106-.24-1.485-.661s-.563-.983-.504-1.546c.112-1.076.168-2.147.168-3.182v-4.146c-7.575 3.665-15.713 5.832-24.238 6.449l-.797.061c-.428.026-.845.048-1.265.065-1.889.086-3.823.086-5.724 0-.413-.018-.832-.04-1.25-.064l-.816-.063c-8.516-.617-16.652-2.783-24.227-6.448v4.146c0 1.035.057 2.106.168 3.182.059.563-.125 1.125-.504 1.546-.379.42-.919.661-1.485.661h-8.769c-18.075 0-32.779 14.705-32.779 32.779v18.957z" fill="#3762cc"/><path d="m129.731 191.377c-30.546 0-56.805-20.17-64.444-49.262-.195.005-.388.008-.579.008-11.973 0-21.713-9.648-21.713-21.508 0-11.33 8.889-20.642 20.122-21.452v-4.078c0-36.362 29.883-65.945 66.615-65.945s66.615 29.583 66.615 65.945v4.078c11.232.811 20.121 10.122 20.121 21.452 0 11.86-9.74 21.508-21.713 21.508-.191 0-.384-.003-.579-.008-7.64 29.092-33.898 49.262-64.445 49.262zm-62.906-53.369c.917 0 1.73.63 1.945 1.541 6.638 28.161 31.706 47.828 60.961 47.828s54.324-19.667 60.961-47.828c.231-.98 1.156-1.639 2.158-1.53.664.07 1.286.104 1.904.104 9.767 0 17.713-7.854 17.713-17.508 0-9.653-7.943-17.506-17.707-17.509-.181.012-.279.019-.378.02-.539.018-1.055-.197-1.437-.573-.383-.376-.599-.89-.599-1.427v-6.042c0-34.157-28.089-61.945-62.615-61.945s-62.614 27.79-62.614 61.946v6.042c0 .537-.216 1.051-.599 1.427-.382.376-.877.608-1.437.573-.1-.001-.198-.008-.296-.015-.003 0-.007 0-.01 0-9.839 0-17.78 7.852-17.78 17.503 0 9.654 7.946 17.508 17.713 17.508.618 0 1.24-.034 1.904-.104.072-.008.142-.011.213-.011z" fill="#3762cc"/><path d="m43.888 78.471c-2.924-7.829-3.132-16.414-.59-24.376l.218-.684c4.158-13.024 15.113-22.727 28.544-25.282 6.34-1.206 12.884-.745 18.992 1.337l.713.243c.041.37.103.742.194 1.111 2.933 11.989 8.317 23.038 15.632 32.533-6.349 17.689-14.117 27.773-20.039 33.357v.002l-7.773 7.889-15.072-3.494c-4.118 0-7.939 1.253-11.101 3.39z" fill="#4671c6"/><path d="m206.305 51.659c-5.07-15.73-16.649-28.23-31.454-34.392l.001-.008c-52.045-25.619-80.51 5.289-80.51 5.289-2.142 2.062-3.136 5.197-2.384 8.273 5.975 24.423 22.073 44.985 44.102 56.333l.031.016c4.756 2.45 9.721 4.45 14.835 5.976 1.272.38 2.297-1.093 1.527-2.192l-10.701-15.271c-.933-1.331.706-2.956 1.978-1.959 11.833 9.266 34.824 24.616 58.08 25.387l3.787-10.371c4.354-11.921 4.603-24.997.708-37.081z" fill="#4671c6"/><g fill="#3762cc"><path d="m79.78 106.601c-.15 0-.302-.017-.452-.052l-14.843-3.441c-3.5.042-6.869 1.094-9.758 3.046-.508.343-1.146.435-1.729.248-.584-.187-1.05-.631-1.264-1.205l-9.719-26.027c-3.067-8.212-3.288-17.333-.622-25.684l.219-.685c4.385-13.735 15.909-23.943 30.075-26.637 6.666-1.268 13.586-.781 20.011 1.409l.713.243c.734.25 1.257.902 1.343 1.673.033.301.083.589.149.858 2.845 11.63 7.984 22.325 15.274 31.786.416.54.528 1.255.298 1.896-6.619 18.441-14.828 28.742-20.549 34.136l-7.72 7.839c-.382.387-.897.597-1.426.597zm-15.072-7.495c.152 0 .304.018.452.052l13.98 3.242 6.987-7.092c5.351-5.047 12.931-14.559 19.211-31.612-7.279-9.688-12.431-20.582-15.323-32.4-.006-.024-.012-.049-.018-.073-5.655-1.852-11.719-2.242-17.565-1.129-12.722 2.42-23.072 11.587-27.01 23.925l-.219.685c-2.394 7.499-2.195 15.691.559 23.067l8.882 23.785c3.094-1.609 6.528-2.45 10.064-2.45z"/><path d="m201.811 101.111c-.022 0-.044 0-.067-.001-21.966-.728-43.602-14.087-56.173-23.462l8.52 12.158c.854 1.218.842 2.784-.027 3.989-.856 1.187-2.313 1.682-3.709 1.268-5.218-1.557-10.325-3.615-15.178-6.115-22.594-11.639-39.043-32.646-45.16-57.652-.895-3.657.216-7.54 2.899-10.15.688-.731 7.984-8.247 21.535-12.748 12.783-4.246 33.792-6.468 61.286 7.066.018.009.035.018.052.027 15.411 6.472 27.221 19.421 32.421 35.554 4.016 12.46 3.755 26.09-.733 38.381l-3.787 10.371c-.29.791-1.042 1.314-1.879 1.314zm-58.936-29.7c.727 0 1.458.245 2.089.738 11.25 8.809 33.216 23.569 55.472 24.896l3.283-8.991c4.185-11.458 4.427-24.166.683-35.781-4.858-15.076-15.91-27.162-30.319-33.159-.095-.04-.187-.086-.272-.139-20.655-10.129-40.668-12.498-57.888-6.85-13.048 4.279-20.041 11.706-20.11 11.781-.026.028-.055.058-.082.084-1.689 1.625-2.389 4.061-1.828 6.356 5.842 23.88 21.542 43.938 43.075 55.031 4.147 2.136 8.461 3.925 12.868 5.341l-9.731-13.886c-.988-1.41-.8-3.292.448-4.475.661-.628 1.483-.946 2.312-.946z"/><path d="m173.501 111.745c-.132 0-.267-.013-.402-.041l-23.352-4.764c-1.082-.221-1.781-1.277-1.56-2.359s1.277-1.782 2.359-1.56l23.352 4.764c1.082.221 1.781 1.277 1.56 2.359-.193.947-1.026 1.601-1.957 1.601z"/><path d="m85.945 111.745c-.931 0-1.764-.653-1.958-1.601-.221-1.083.478-2.139 1.56-2.359l23.352-4.764c1.083-.225 2.139.478 2.359 1.56.221 1.083-.478 2.139-1.56 2.359l-23.352 4.764c-.134.027-.268.041-.401.041z"/></g><circle cx="25.491" cy="53.105" fill="#a4c9ff" r="6"/><circle cx="209.055" cy="18.605" fill="#6bdddd" r="6"/><circle cx="217.478" cy="94.521" fill="#a4c9ff" r="6"/><circle cx="122" cy="59.105" fill="#f9a7a7" r="6"/><path d="m208.493 38.917c-2.758-1.451-5.68-2.877-8.73-4.278 1.239 1.807 3.359 5.01 4.924 7.943.496.253.994.505 1.478.76 17.177 9.035 26.597 18.228 25.198 24.59-2.766 12.575-48.296 17.25-109.21 3.855-28.05-6.168-53.733-14.949-72.319-24.725-17.177-9.035-26.597-18.228-25.198-24.59 1.603-7.289 17.574-11.923 42.582-11.923 10.617 0 22.885.853 36.353 2.676 1.338-.668 7.783-3.873 8.187-3.862-19.964-3.148-38.674-4.432-54.188-3.634-15.859.813-35.293 4.193-37.817 15.669-2.523 11.477 13.7 22.697 27.754 30.09 18.971 9.978 45.099 18.921 73.573 25.183 24.468 5.381 48.193 8.237 67.968 8.237 3.238 0 6.371-.077 9.383-.231 15.859-.814 35.293-4.194 37.817-15.67 2.523-11.477-13.701-22.698-27.755-30.09z" fill="#a4c9ff"/><path d="m228.002 12.859c-4.14-11.947-32.997-11.05-67.251-3.494l8.8 3.239-.001.002c7.251-1.407 14.121-2.46 20.454-3.109 5.07-.52 9.475-.75 13.276-.75 13.036 0 18.943 2.709 19.996 5.748 1.36 3.925-3.981 12.425-23.05 24.51-17.598 11.152-42.25 22.478-69.416 31.888s-53.539 15.764-74.265 17.888c-22.457 2.302-31.913-1.073-33.272-4.999-1.182-3.413 2.715-10.288 16.283-19.967l-.002-.002c.362-4.943.854-6.611.865-6.648-15.499 10.321-24.589 20.408-21.871 28.254 2.441 7.048 13.166 9.102 24.833 9.102 4.56 0 9.265-.314 13.674-.766 21.098-2.162 47.874-8.603 75.394-18.136 50.768-17.588 101.511-45.56 95.553-62.76z" fill="#f9a7a7"/></svg>