<svg height="512" viewBox="0 0 58 58" width="512" xmlns="http://www.w3.org/2000/svg"><g id="Page-1" fill="none" fill-rule="evenodd"><g id="050---Language-Tutor" fill-rule="nonzero"><path id="Shape" d="m32.77 51.32c.1531109-.4232063.2309525-.8699493.23-1.32 0-2.209139-1.790861-4-4-4v-14c.0058896-2.1062026-.5461608-4.1763917-1.6-6-.856029-1.4759077-2.0147553-2.7539146-3.4-3.75-3.6560128-2.6256932-8.4739649-2.9845894-12.478652-.9295526-4.00468705 2.0550368-6.52255055 6.1783646-6.521348 10.6795526v14c-2.209139 0-4 1.790861-4 4-.00095246.4500507.07688913.8967937.23 1.32-.77520343.562021-1.23288663 1.4625034-1.23 2.42v2.26c.0032948 1.1032019.89679813 1.9967052 2 2h30c1.1032019-.0032948 1.9967052-.8967981 2-2v-2.26c.0028866-.9574966-.4547966-1.857979-1.23-2.42z" fill="#7e532f"/><path id="Shape" d="m22 45.83v4.17s-.83 3-5 3-5-3-5-3v-4.2c1.7 1.88 3.63 3.2 5 3.2s3.3-1.31 5-3.17z" fill="#f6c58f"/><path id="Shape" d="m34 53.74v2.26c-.0032948 1.1032019-.8967981 1.9967052-2 2h-30c-1.10320187-.0032948-1.9967052-.8967981-2-2v-2.26c-.00288663-.9574966.45479657-1.857979 1.23-2.42.43721672-.3258812.95670015-.5232849 1.5-.57l9.27-.75s.83 3 5 3 5-3 5-3l9.27.75c.5432998.0467151 1.0627833.2441188 1.5.57.7752034.562021 1.2328866 1.4625034 1.23 2.42z" fill="#e04c34"/><path id="Shape" d="m29 32 .0000466 5c-1.0574566-.0180012-2.1086555-.1657736-3.1300466-.44-3.6235549-1.1006197-6.7564649-3.4176309-8.87-6.56-2.0970612 3.1157134-5.1943131 5.422778-8.78 6.54-1.05019388.2858383-2.13177914.4403505-3.22000043.46l.00000043-5c-.00120255-4.501188 2.51666095-8.6245158 6.521348-10.6795526 4.0046871-2.0550368 8.8226392-1.6961406 12.478652.9295526 1.3852447.9960854 2.543971 2.2740923 3.4 3.75 1.0538392 1.8236083 1.6058896 3.8937974 1.6 6z" fill="#a1693e"/><path id="Shape" d="m25.87 36.56c-.03.55-.05 1.1-.05 1.43-.04 2.56-1.76 5.6-3.82 7.84-1.7 1.86-3.64 3.17-5 3.17s-3.3-1.32-5-3.2c-2.01-2.23-3.7-5.26-3.73-7.81 0-.33-.02-.89-.05-1.45 3.5856869-1.117222 6.6829388-3.4242866 8.78-6.54 2.1135351 3.1423691 5.2464451 5.4593803 8.87 6.56z" fill="#fad5a9"/><path id="Shape" d="m42 26-6.34 5.75c-.2948776.2590557-.7140403.3216481-1.0717346.1600393-.3576943-.1616089-.5877689-.5175315-.5882654-.9100393v-5z" fill="#915da6"/><path id="Shape" d="m58 2v22c-.0032948 1.1032019-.8967981 1.9967052-2 2h-28.6c-.856029-1.4759077-2.0147553-2.7539146-3.4-3.75v-20.25c.0032948-1.10320187.8967981-1.9967052 2-2h30c1.1032019.0032948 1.9967052.89679813 2 2z" fill="#b19acb"/><path id="Shape" d="m34 14c-.4302393-.0003267-.8120445-.2758064-.948-.684l-2.052-6.154-2.052 6.154c-.1128959.3394023-.398285.5927937-.748664.6647242-.350379.0719304-.712517-.0485281-.95-.316-.2374831-.2674719-.3142319-.6413219-.201336-.9807242l3-9c.1348836-.41037454.5180268-.6877501.95-.6877501s.8151164.27737556.95.6877501l3 9c.1015206.3048053.0504155.6398255-.1373651.9004999s-.4893677.4152562-.8106349.4155001z" fill="#fff"/><path id="Rectangle-path" d="m29 9h4v2h-4z" fill="#fff"/><g fill="#2b5781"><path id="Shape" d="m54 6h-8c-.5522847 0-1-.44771525-1-1s.4477153-1 1-1h8c.5522847 0 1 .44771525 1 1s-.4477153 1-1 1z"/><path id="Shape" d="m50 6c-.5522847 0-1-.44771525-1-1v-1c0-.55228475.4477153-1 1-1s1 .44771525 1 1v1c0 .55228475-.4477153 1-1 1z"/><path id="Shape" d="m47 14c-.4643791.0008998-.868272-.3180058-.9751118-.7699285-.1068397-.4519226.1114908-.9179291.5271118-1.1250715 5.331-2.665 5.448-6.931 5.448-7.111.0032997-.54994016.4500499-.9940099 1-.994h.006c.5499402.0032997.9940099.45004994.994 1 0 .229-.074 5.655-6.553 8.9-.1392562.0674687-.2922699.1016999-.447.1z"/><path id="Shape" d="m53 14c-.1547895-.0000102-.3074634-.0359537-.446-.105-6.48-3.24-6.554-8.666-6.554-8.895 0-.55228475.4477153-1 1-1s1 .44771525 1 1c0 .2.13 4.452 5.447 7.11.4096897.2098455.6232128.6722505.5172697 1.1201979s-.5039827.765713-.9642697.7698021z"/></g><path id="Shape" d="m40 7h-3c-.5522847 0-1 .44771525-1 1s.4477153 1 1 1h6v-2z" fill="#5c4d74"/><path id="Shape" d="m41 11c-.4043959-.0000863-.7689341-.2437275-.923678-.6173454-.1547439-.373618-.0692299-.80366035.216678-1.0896546l1.293-1.293-1.293-1.293c-.3789722-.39237889-.3735524-1.01608478.0121814-1.40181858.3857338-.38573379 1.0094397-.39115363 1.4018186-.01218142l2 2c.3903819.39049985.3903819 1.02350015 0 1.414l-2 2c-.1874927.1875494-.4418052.2929434-.707.293z" fill="#5c4d74"/><path id="Shape" d="m42 18h-13c-.5522847 0-1-.4477153-1-1s.4477153-1 1-1h13c.5522847 0 1 .4477153 1 1s-.4477153 1-1 1z" fill="#fff"/><path id="Shape" d="m53 18h-7c-.5522847 0-1-.4477153-1-1s.4477153-1 1-1h7c.5522847 0 1 .4477153 1 1s-.4477153 1-1 1z" fill="#fff"/><path id="Shape" d="m38 22h-7c-.5522847 0-1-.4477153-1-1s.4477153-1 1-1h7c.5522847 0 1 .4477153 1 1s-.4477153 1-1 1z" fill="#fff"/></g></g></svg>