<svg id="Layer_1" enable-background="new 0 0 256 256" height="512" viewBox="0 0 256 256" width="512" xmlns="http://www.w3.org/2000/svg"><path d="m203.973 248h-148.496v-20.878c0-19.136 15.513-34.649 34.649-34.649h79.198c19.136 0 34.649 15.513 34.649 34.649z" fill="#6bdddd"/><path d="m194.505 101.656c-.137 0-.27.018-.407.02v-6.019c0-35.184-28.821-63.705-64.373-63.705-35.552 0-64.373 28.522-64.373 63.705v6.019c-.137-.003-.27-.02-.407-.02-10.846 0-19.639 8.702-19.639 19.436s8.793 19.436 19.639 19.436c.712 0 1.414-.042 2.107-.115 6.643 28.183 32.171 49.184 62.673 49.184 30.502 0 56.03-21.001 62.673-49.184.693.073 1.395.115 2.107.115 10.846 0 19.639-8.702 19.639-19.436s-8.793-19.436-19.639-19.436z" fill="#f9cfcf"/><path d="m129.725 191.596c-30.434 0-56.595-20.094-64.208-49.077-12.167.343-22.21-9.419-22.21-21.428 0-11.289 8.855-20.567 20.046-21.378v-4.056c0-36.23 29.774-65.706 66.373-65.706s66.373 29.476 66.373 65.706v4.056c11.19.811 20.046 10.089 20.046 21.378 0 11.82-9.707 21.436-21.639 21.436-.188 0-.379-.003-.571-.008-7.615 28.983-33.776 49.077-64.21 49.077zm-62.671-53.184c.918 0 1.73.63 1.945 1.541 6.612 28.052 31.583 47.643 60.726 47.643 29.144 0 54.114-19.591 60.727-47.643.23-.98 1.165-1.642 2.156-1.53.663.07 1.283.104 1.897.104 9.726 0 17.639-7.822 17.639-17.436 0-9.612-7.91-17.433-17.634-17.436-.18.012-.274.018-.369.02-.552.017-1.057-.194-1.442-.57-.384-.376-.601-.891-.601-1.429v-6.019c0-34.024-27.98-61.706-62.373-61.706s-62.373 27.682-62.373 61.707v6.019c0 .538-.217 1.053-.601 1.429s-.888.584-1.442.57c-.095-.002-.189-.008-.284-.015-.003 0-.007 0-.01 0-9.802 0-17.709 7.819-17.709 17.43 0 9.614 7.913 17.436 17.639 17.436.613 0 1.234-.034 1.896-.104.072-.007.143-.011.213-.011z" fill="#3762cc"/><path d="m141.964 161.425c-1.104 0-2-.896-2-2 0-1.587-.688-3.118-1.987-4.427-1.143-1.15-2.699-2.048-4.503-2.596-1.086-.33-2.314-.49-3.757-.49s-2.671.16-3.756.49c-1.805.548-3.362 1.445-4.504 2.595-1.3 1.309-1.988 2.84-1.988 4.427 0 1.104-.896 2-2 2s-2-.896-2-2c0-2.628 1.119-5.202 3.15-7.246 1.606-1.618 3.743-2.864 6.179-3.604 1.467-.446 3.076-.663 4.918-.663s3.451.217 4.919.663c2.435.74 4.571 1.986 6.179 3.604 2.031 2.045 3.149 4.618 3.149 7.246.001 1.106-.895 2.001-1.999 2.001z" fill="#3762cc"/><path d="m44.203 79.105c-2.913-7.8-3.12-16.353-.588-24.285l.218-.682c4.142-12.976 15.056-22.642 28.437-25.187 6.316-1.201 12.835-.742 18.921 1.332l.711.242c.041.369.103.739.193 1.107 2.922 11.944 8.286 22.952 15.574 32.411-6.325 17.623-14.064 27.669-19.964 33.232v.001l-7.743 7.86-15.015-3.481c-4.103 0-7.909 1.249-11.059 3.377z" fill="#4671c6"/><path d="m206.012 52.394c-5.051-15.671-16.587-28.124-31.336-34.263l.001-.008c-51.85-25.523-80.208 5.27-80.208 5.27-2.134 2.054-3.124 5.177-2.375 8.242 5.952 24.331 21.99 44.817 43.937 56.122l.031.016c4.738 2.441 9.685 4.433 14.779 5.954 1.267.378 2.288-1.089 1.521-2.184l-10.661-15.213c-.929-1.326.703-2.945 1.971-1.952 11.789 9.231 34.693 24.524 57.863 25.292l3.773-10.332c4.336-11.878 4.584-24.905.704-36.944z" fill="#4671c6"/><path d="m79.96 107.138c-.15 0-.302-.017-.452-.052l-14.787-3.428c-3.485.043-6.84 1.089-9.716 3.033-.509.343-1.146.435-1.729.248s-1.05-.631-1.264-1.205l-9.684-25.929c-3.056-8.183-3.275-17.271-.619-25.593l.217-.681c4.371-13.689 15.854-23.86 29.969-26.544 6.644-1.264 13.539-.778 19.939 1.404l.711.243c.734.25 1.257.903 1.342 1.674.033.297.083.583.148.849 2.835 11.588 7.954 22.242 15.216 31.667.416.54.528 1.255.298 1.896-6.593 18.372-14.773 28.636-20.474 34.011l-7.691 7.81c-.379.386-.894.597-1.424.597zm-15.015-7.482c.152 0 .304.018.452.052l13.924 3.229 6.958-7.063c5.331-5.029 12.881-14.502 19.137-31.487-7.25-9.651-12.384-20.505-15.264-32.278-.005-.022-.011-.045-.017-.068-5.629-1.842-11.668-2.231-17.492-1.124-12.672 2.41-22.982 11.542-26.905 23.831l-.217.681c-2.385 7.471-2.188 15.631.555 22.978l8.847 23.688c3.081-1.602 6.501-2.439 10.022-2.439z" fill="#3762cc"/><path d="m201.534 101.668c-.021 0-.044 0-.066-.001-21.864-.725-43.4-14.009-55.931-23.348l8.463 12.075c.852 1.217.84 2.78-.028 3.983-.854 1.185-2.309 1.682-3.703 1.265-5.2-1.552-10.288-3.602-15.123-6.092-22.51-11.596-38.899-32.526-44.994-57.441-.892-3.645.215-7.517 2.89-10.119.686-.729 7.957-8.218 21.458-12.702 12.737-4.23 33.671-6.443 61.062 7.04.017.008.033.017.05.026 15.354 6.448 27.124 19.351 32.306 35.426 4.001 12.414 3.741 25.995-.73 38.241l-3.772 10.333c-.292.791-1.044 1.314-1.882 1.314zm-58.715-29.604c.726 0 1.455.244 2.085.737 11.206 8.775 33.085 23.478 55.255 24.801l3.269-8.953c4.168-11.414 4.41-24.072.682-35.643-4.842-15.017-15.85-27.056-30.202-33.03-.095-.04-.185-.085-.271-.138-20.575-10.091-40.512-12.453-57.667-6.825-12.997 4.263-19.964 11.661-20.033 11.735-.026.028-.055.058-.082.083-1.681 1.618-2.377 4.042-1.818 6.326 5.819 23.79 21.459 43.771 42.91 54.82 4.124 2.125 8.414 3.905 12.798 5.314l-9.683-13.816c-.986-1.409-.798-3.288.447-4.469.662-.625 1.483-.942 2.31-.942z" fill="#3762cc"/><path d="m134.483 189.404c-.26.02-.519.042-.78.059-.404.025-.808.046-1.214.063-.917.041-1.837.07-2.764.07s-1.848-.029-2.765-.07c-.406-.017-.811-.039-1.215-.063-.26-.017-.518-.039-.777-.059-9.48-.687-18.392-3.389-26.285-7.704v7.397c0 17.197 13.451 31.139 30.043 31.139h1.997c16.592 0 30.043-13.942 30.043-31.139v-7.397c-7.893 4.315-16.804 7.017-26.283 7.704z" fill="#f9cfcf"/><path d="m203.973 250h-148.496c-1.104 0-2-.896-2-2v-20.878c0-20.208 16.44-36.649 36.649-36.649h6.586c-.019-.462-.029-.922-.029-1.375v-7.397c0-.706.373-1.36.98-1.72.608-.361 1.359-.373 1.979-.035 7.862 4.297 16.432 6.809 25.47 7.464l.764.058c.382.023.775.043 1.17.061 1.779.079 3.578.079 5.353 0 .397-.017.79-.038 1.184-.062l.742-.057c9.049-.656 17.618-3.167 25.482-7.465.619-.338 1.371-.326 1.979.035.607.36.979 1.014.979 1.72v7.397c0 .454-.01.913-.028 1.375h6.585c20.209 0 36.649 16.44 36.649 36.649v20.879c.002 1.104-.894 2-1.998 2zm-146.496-4h144.496v-18.878c0-18.003-14.646-32.649-32.649-32.649h-8.735c-.566 0-1.106-.24-1.485-.661s-.563-.982-.504-1.546c.111-1.073.168-2.14.168-3.169v-4.119c-7.545 3.648-15.649 5.805-24.14 6.42l-.793.061c-.426.026-.842.047-1.258.065-1.889.084-3.812.084-5.705 0-.415-.018-.831-.04-1.246-.064l-.811-.062c-8.483-.615-16.587-2.771-24.131-6.419v4.119c0 1.033.056 2.099.167 3.169.059.563-.125 1.125-.504 1.546-.379.42-.919.661-1.485.661h-8.736c-18.002 0-32.649 14.646-32.649 32.649v18.877z" fill="#3762cc"/><path d="m90.501 135.108c-1.033 0-2.038-.534-2.595-1.49-.834-1.432-.35-3.269 1.082-4.103l13.925-8.111-13.925-8.112c-1.432-.834-1.916-2.67-1.082-4.103.834-1.432 2.671-1.916 4.103-1.082l15.2 8.854c1.599.931 2.553 2.592 2.553 4.442 0 1.851-.954 3.511-2.553 4.442l-15.201 8.855c-.475.277-.994.408-1.507.408zm13.687-12.962h.01z" fill="#3762cc"/><path d="m168.933 135.108c-.513 0-1.032-.131-1.507-.408l-15.199-8.854c-1.599-.931-2.554-2.592-2.554-4.442s.955-3.511 2.554-4.442l15.199-8.854c1.431-.834 3.269-.35 4.102 1.082.834 1.432.35 3.269-1.082 4.103l-13.925 8.111 13.925 8.112c1.432.834 1.916 2.671 1.082 4.103-.557.955-1.562 1.489-2.595 1.489z" fill="#3762cc"/><path d="m104.527 157.633c-6.047 9.148-.294 21.473 10.559 23.042 4.593.664 9.516 1.025 14.638 1.025s10.045-.36 14.638-1.025c10.853-1.569 16.606-13.894 10.559-23.042-5.892-8.916-14.988-14.633-25.196-14.633s-19.304 5.717-25.198 14.633z" fill="#f9a7a7"/><path d="m129.725 183.7c-5.108 0-10.129-.352-14.924-1.045-5.854-.847-10.798-4.581-13.223-9.988-2.375-5.297-1.896-11.329 1.282-16.136 6.523-9.87 16.316-15.53 26.866-15.53s20.342 5.661 26.866 15.53c3.178 4.807 3.657 10.839 1.282 16.136-2.426 5.408-7.368 9.142-13.224 9.989-4.795.693-9.816 1.044-14.925 1.044zm0-38.7c-9.183 0-17.759 5.007-23.529 13.736-2.454 3.712-2.807 8.193-.969 12.293 1.861 4.151 5.654 7.017 10.146 7.666 9.212 1.333 19.493 1.333 28.704 0 4.491-.649 8.284-3.516 10.146-7.667 1.839-4.1 1.486-8.581-.968-12.293-5.772-8.728-14.348-13.735-23.53-13.735zm-25.198 12.633h.01z" fill="#3762cc"/><path d="m117.171 167.333c-4.941 0-8.946 4.005-8.946 8.946v40.387 4.221c0 4.296 3.483 7.779 7.779 7.779 4.296 0 7.779-3.483 7.779-7.779 0-2.331 1.89-4.221 4.221-4.221h1.721c3.282 0 5.942 2.66 5.942 5.942v17.346c0 4.143 3.127 7.761 7.261 8.029 4.531.293 8.297-3.295 8.297-7.762v-23.554-40.387c0-4.941-4.005-8.946-8.946-8.946h-25.108z" fill="#ffea92"/><path d="m143.455 250c-.218 0-.437-.007-.656-.021-5.121-.332-9.132-4.735-9.132-10.024v-17.346c0-2.173-1.769-3.942-3.942-3.942h-1.721c-1.225 0-2.221.997-2.221 2.221 0 5.392-4.387 9.779-9.779 9.779s-9.779-4.387-9.779-9.779v-44.608c0-6.036 4.91-10.946 10.946-10.946h25.108c6.035 0 10.945 4.91 10.945 10.946v63.941c0 2.693-1.127 5.294-3.092 7.136-1.832 1.718-4.183 2.643-6.677 2.643zm-15.451-35.333h1.721c4.38 0 7.942 3.563 7.942 7.942v17.346c0 3.187 2.367 5.837 5.391 6.033 1.609.106 3.162-.445 4.339-1.549 1.179-1.105 1.828-2.603 1.828-4.218v-63.941c0-3.83-3.115-6.946-6.945-6.946h-25.108c-3.83 0-6.946 3.116-6.946 6.946v44.608c0 3.187 2.592 5.779 5.779 5.779s5.779-2.592 5.779-5.779c-.001-3.43 2.79-6.221 6.22-6.221z" fill="#3762cc"/><g fill="#6bdddd"><circle cx="119.998" cy="180.167" r="5.167"/><circle cx="137.179" cy="188.381" r="4.785"/><circle cx="121.871" cy="200.968" r="4.402"/><path d="m140.964 209.618h-4.569c-.552 0-1-.448-1-1v-4.569c0-.552.448-1 1-1h4.569c.552 0 1 .448 1 1v4.569c0 .552-.447 1-1 1z"/></g></svg>